<ttFont>
    <TTGlyph name="A" xMin="124" yMin="0" xMax="1558" yMax="1434">
      <contour>
        <pt x="1558" y="0" on="1"/>
        <pt x="1298" y="0" on="1"/>
        <pt x="1298" y="352" on="1"/>
        <pt x="384" y="352" on="1"/>
        <pt x="384" y="0" on="1"/>
        <pt x="124" y="0" on="1"/>
        <pt x="124" y="717" on="1"/>
        <pt x="124" y="874" on="0"/>
        <pt x="232" y="1138" on="0"/>
        <pt x="424" y="1328" on="0"/>
        <pt x="686" y="1434" on="0"/>
        <pt x="841" y="1434" on="1"/>
        <pt x="1427" y="1434" on="1"/>
        <pt x="1454" y="1434" on="0"/>
        <pt x="1502" y="1414" on="0"/>
        <pt x="1538" y="1378" on="0"/>
        <pt x="1558" y="1330" on="0"/>
        <pt x="1558" y="1303" on="1"/>
      </contour>
      <contour>
        <pt x="384" y="612" on="1"/>
        <pt x="1298" y="612" on="1"/>
        <pt x="1298" y="1174" on="1"/>
        <pt x="841" y="1174" on="1"/>
        <pt x="829" y="1174" on="0"/>
        <pt x="752" y="1167" on="0"/>
        <pt x="651" y="1139" on="0"/>
        <pt x="539" y="1081" on="0"/>
        <pt x="445" y="979" on="0"/>
        <pt x="384" y="826" on="0"/>
        <pt x="384" y="717" on="1"/>
      </contour>
    </TTGlyph>
    <TTGlyph name="AE" xMin="124" yMin="0" xMax="2600" yMax="1434">
      <contour>
        <pt x="2600" y="0" on="1"/>
        <pt x="1662" y="0" on="1"/>
        <pt x="1626" y="0" on="0"/>
        <pt x="1545" y="16" on="0"/>
        <pt x="1465" y="51" on="0"/>
        <pt x="1392" y="106" on="0"/>
        <pt x="1335" y="184" on="0"/>
        <pt x="1299" y="287" on="0"/>
        <pt x="1298" y="352" on="1"/>
        <pt x="384" y="352" on="1"/>
        <pt x="384" y="0" on="1"/>
        <pt x="124" y="0" on="1"/>
        <pt x="124" y="717" on="1"/>
        <pt x="124" y="874" on="0"/>
        <pt x="232" y="1138" on="0"/>
        <pt x="424" y="1328" on="0"/>
        <pt x="686" y="1434" on="0"/>
        <pt x="841" y="1434" on="1"/>
        <pt x="1427" y="1434" on="1"/>
        <pt x="1437" y="1434" on="1"/>
        <pt x="2600" y="1434" on="1"/>
        <pt x="2600" y="1174" on="1"/>
        <pt x="1558" y="1174" on="1"/>
        <pt x="1558" y="365" on="1"/>
        <pt x="1558" y="314" on="0"/>
        <pt x="1612" y="260" on="0"/>
        <pt x="1664" y="260" on="1"/>
        <pt x="2600" y="260" on="1"/>
      </contour>
      <contour>
        <pt x="384" y="612" on="1"/>
        <pt x="1298" y="612" on="1"/>
        <pt x="1298" y="1174" on="1"/>
        <pt x="841" y="1174" on="1"/>
        <pt x="829" y="1174" on="0"/>
        <pt x="752" y="1167" on="0"/>
        <pt x="651" y="1139" on="0"/>
        <pt x="539" y="1081" on="0"/>
        <pt x="445" y="979" on="0"/>
        <pt x="384" y="826" on="0"/>
        <pt x="384" y="717" on="1"/>
      </contour>
      <contour>
        <pt x="2484" y="586" on="1"/>
        <pt x="1662" y="586" on="1"/>
        <pt x="1662" y="848" on="1"/>
        <pt x="2484" y="848" on="1"/>
      </contour>
    </TTGlyph>
    <TTGlyph name="AEacute" xMin="124" yMin="0" xMax="2600" yMax="1939">
      <component glyphName="AE" x="0" y="0" flags="0x204"/>
      <component glyphName="acute" x="1004" y="350" flags="0x4"/>
    </TTGlyph>
    <TTGlyph name="Aacute" xMin="124" yMin="0" xMax="1558" yMax="1999">
      <component glyphName="A" x="0" y="0" flags="0x204"/>
      <component glyphName="acute" x="467" y="410" flags="0x4"/>
    </TTGlyph>
    <TTGlyph name="Abreve" xMin="124" yMin="0" xMax="1558" yMax="1902">
      <component glyphName="A" x="0" y="0" flags="0x204"/>
      <component glyphName="breve" x="283" y="350" flags="0x4"/>
    </TTGlyph>
    <TTGlyph name="Acircumflex" xMin="124" yMin="0" xMax="1558" yMax="2003">
      <component glyphName="A" x="0" y="0" flags="0x204"/>
      <component glyphName="circumflex" x="270" y="410" flags="0x4"/>
    </TTGlyph>
    <TTGlyph name="Adieresis" xMin="124" yMin="0" xMax="1558" yMax="1854">
      <component glyphName="A" x="0" y="0" flags="0x204"/>
      <component glyphName="dieresis" x="270" y="410" flags="0x4"/>
    </TTGlyph>
    <TTGlyph name="Agrave" xMin="124" yMin="0" xMax="1558" yMax="1999">
      <component glyphName="A" x="0" y="0" flags="0x204"/>
      <component glyphName="grave" x="172" y="410" flags="0x4"/>
    </TTGlyph>
    <TTGlyph name="Amacron" xMin="124" yMin="0" xMax="1558" yMax="1786">
      <component glyphName="A" x="0" y="0" flags="0x204"/>
      <component glyphName="macron" x="283" y="350" flags="0x4"/>
    </TTGlyph>
    <TTGlyph name="Aogonek" xMin="124" yMin="-434" xMax="1728" yMax="1434">
      <contour>
        <pt x="1558" y="0" on="1"/>
        <pt x="1509" y="0" on="1"/>
        <pt x="1458" y="-42" on="0"/>
        <pt x="1400" y="-141" on="0"/>
        <pt x="1400" y="-186" on="1"/>
        <pt x="1400" y="-224" on="0"/>
        <pt x="1452" y="-254" on="0"/>
        <pt x="1509" y="-254" on="1"/>
        <pt x="1534" y="-254" on="0"/>
        <pt x="1595" y="-244" on="0"/>
        <pt x="1655" y="-228" on="0"/>
        <pt x="1710" y="-211" on="0"/>
        <pt x="1728" y="-203" on="1"/>
        <pt x="1728" y="-389" on="1"/>
        <pt x="1710" y="-394" on="0"/>
        <pt x="1659" y="-410" on="0"/>
        <pt x="1590" y="-424" on="0"/>
        <pt x="1502" y="-434" on="0"/>
        <pt x="1447" y="-434" on="1"/>
        <pt x="1393" y="-434" on="0"/>
        <pt x="1299" y="-414" on="0"/>
        <pt x="1228" y="-370" on="0"/>
        <pt x="1187" y="-298" on="0"/>
        <pt x="1187" y="-246" on="1"/>
        <pt x="1187" y="-219" on="0"/>
        <pt x="1200" y="-154" on="0"/>
        <pt x="1230" y="-88" on="0"/>
        <pt x="1277" y="-25" on="0"/>
        <pt x="1312" y="0" on="1"/>
        <pt x="1298" y="0" on="1"/>
        <pt x="1298" y="352" on="1"/>
        <pt x="384" y="352" on="1"/>
        <pt x="384" y="0" on="1"/>
        <pt x="124" y="0" on="1"/>
        <pt x="124" y="717" on="1"/>
        <pt x="124" y="874" on="0"/>
        <pt x="232" y="1138" on="0"/>
        <pt x="424" y="1328" on="0"/>
        <pt x="686" y="1434" on="0"/>
        <pt x="841" y="1434" on="1"/>
        <pt x="1427" y="1434" on="1"/>
        <pt x="1454" y="1434" on="0"/>
        <pt x="1502" y="1414" on="0"/>
        <pt x="1538" y="1378" on="0"/>
        <pt x="1558" y="1330" on="0"/>
        <pt x="1558" y="1303" on="1"/>
      </contour>
      <contour>
        <pt x="384" y="612" on="1"/>
        <pt x="1298" y="612" on="1"/>
        <pt x="1298" y="1174" on="1"/>
        <pt x="841" y="1174" on="1"/>
        <pt x="829" y="1174" on="0"/>
        <pt x="752" y="1167" on="0"/>
        <pt x="651" y="1139" on="0"/>
        <pt x="539" y="1081" on="0"/>
        <pt x="445" y="979" on="0"/>
        <pt x="384" y="826" on="0"/>
        <pt x="384" y="717" on="1"/>
      </contour>
    </TTGlyph>
    <TTGlyph name="Aring" xMin="124" yMin="0" xMax="1558" yMax="2003">
      <component glyphName="A" x="0" y="0" flags="0x204"/>
      <component glyphName="ring" x="270" y="410" flags="0x4"/>
    </TTGlyph>
    <TTGlyph name="Atilde" xMin="124" yMin="0" xMax="1558" yMax="1921">
      <component glyphName="A" x="0" y="0" flags="0x204"/>
      <component glyphName="tilde" x="270" y="410" flags="0x4"/>
    </TTGlyph>
    <TTGlyph name="B" xMin="149" yMin="0" xMax="1582" yMax="1434">
      <contour>
        <pt x="1582" y="315" on="1"/>
        <pt x="1582" y="267" on="0"/>
        <pt x="1549" y="157" on="0"/>
        <pt x="1474" y="63" on="0"/>
        <pt x="1354" y="0" on="0"/>
        <pt x="1267" y="0" on="1"/>
        <pt x="280" y="0" on="1"/>
        <pt x="252" y="0" on="0"/>
        <pt x="204" y="20" on="0"/>
        <pt x="169" y="55" on="0"/>
        <pt x="149" y="103" on="0"/>
        <pt x="149" y="131" on="1"/>
        <pt x="149" y="1303" on="1"/>
        <pt x="149" y="1330" on="0"/>
        <pt x="169" y="1378" on="0"/>
        <pt x="204" y="1414" on="0"/>
        <pt x="252" y="1434" on="0"/>
        <pt x="280" y="1434" on="1"/>
        <pt x="1150" y="1434" on="1"/>
        <pt x="1198" y="1434" on="0"/>
        <pt x="1308" y="1400" on="0"/>
        <pt x="1403" y="1325" on="0"/>
        <pt x="1466" y="1205" on="0"/>
        <pt x="1466" y="1118" on="1"/>
        <pt x="1466" y="1069" on="1"/>
        <pt x="1466" y="1000" on="0"/>
        <pt x="1420" y="841" on="0"/>
        <pt x="1369" y="770" on="1"/>
        <pt x="1413" y="743" on="0"/>
        <pt x="1490" y="667" on="0"/>
        <pt x="1548" y="567" on="0"/>
        <pt x="1582" y="441" on="0"/>
        <pt x="1582" y="365" on="1"/>
      </contour>
      <contour>
        <pt x="1322" y="365" on="1"/>
        <pt x="1322" y="416" on="0"/>
        <pt x="1290" y="497" on="0"/>
        <pt x="1232" y="555" on="0"/>
        <pt x="1150" y="586" on="0"/>
        <pt x="1099" y="586" on="1"/>
        <pt x="513" y="586" on="1"/>
        <pt x="513" y="848" on="1"/>
        <pt x="982" y="848" on="1"/>
        <pt x="1033" y="848" on="0"/>
        <pt x="1115" y="879" on="0"/>
        <pt x="1173" y="937" on="0"/>
        <pt x="1204" y="1018" on="0"/>
        <pt x="1204" y="1069" on="1"/>
        <pt x="1204" y="1118" on="1"/>
        <pt x="1204" y="1174" on="0"/>
        <pt x="1150" y="1174" on="1"/>
        <pt x="409" y="1174" on="1"/>
        <pt x="409" y="260" on="1"/>
        <pt x="1267" y="260" on="1"/>
        <pt x="1274" y="260" on="0"/>
        <pt x="1294" y="262" on="0"/>
        <pt x="1310" y="272" on="0"/>
        <pt x="1322" y="296" on="0"/>
        <pt x="1322" y="317" on="1"/>
      </contour>
    </TTGlyph>
    <TTGlyph name="C" xMin="132" yMin="0" xMax="1435" yMax="1434">
      <contour>
        <pt x="1435" y="0" on="1"/>
        <pt x="497" y="0" on="1"/>
        <pt x="461" y="0" on="0"/>
        <pt x="378" y="17" on="0"/>
        <pt x="297" y="53" on="0"/>
        <pt x="223" y="110" on="0"/>
        <pt x="166" y="191" on="0"/>
        <pt x="132" y="298" on="0"/>
        <pt x="132" y="365" on="1"/>
        <pt x="132" y="1069" on="1"/>
        <pt x="132" y="1105" on="0"/>
        <pt x="149" y="1188" on="0"/>
        <pt x="185" y="1269" on="0"/>
        <pt x="243" y="1343" on="0"/>
        <pt x="324" y="1400" on="0"/>
        <pt x="430" y="1434" on="0"/>
        <pt x="497" y="1434" on="1"/>
        <pt x="1435" y="1434" on="1"/>
        <pt x="1435" y="1174" on="1"/>
        <pt x="497" y="1174" on="1"/>
        <pt x="446" y="1174" on="0"/>
        <pt x="392" y="1120" on="0"/>
        <pt x="392" y="1067" on="1"/>
        <pt x="392" y="365" on="1"/>
        <pt x="392" y="315" on="0"/>
        <pt x="447" y="260" on="0"/>
        <pt x="497" y="260" on="1"/>
        <pt x="1435" y="260" on="1"/>
      </contour>
    </TTGlyph>
    <TTGlyph name="Cacute" xMin="132" yMin="0" xMax="1435" yMax="1939">
      <component glyphName="C" x="0" y="0" flags="0x204"/>
      <component glyphName="acute" x="422" y="350" flags="0x4"/>
    </TTGlyph>
    <TTGlyph name="Ccaron" xMin="132" yMin="0" xMax="1435" yMax="1923">
      <component glyphName="C" x="0" y="0" flags="0x204"/>
      <component glyphName="caron" x="248" y="350" flags="0x4"/>
    </TTGlyph>
    <TTGlyph name="Ccedilla" xMin="132" yMin="-453" xMax="1435" yMax="1434">
      <contour>
        <pt x="1435" y="0" on="1"/>
        <pt x="921" y="0" on="1"/>
        <pt x="894" y="-70" on="1"/>
        <pt x="923" y="-70" on="0"/>
        <pt x="996" y="-84" on="0"/>
        <pt x="1061" y="-123" on="0"/>
        <pt x="1105" y="-193" on="0"/>
        <pt x="1105" y="-250" on="1"/>
        <pt x="1105" y="-307" on="0"/>
        <pt x="1048" y="-385" on="0"/>
        <pt x="957" y="-433" on="0"/>
        <pt x="844" y="-453" on="0"/>
        <pt x="788" y="-453" on="1"/>
        <pt x="737" y="-453" on="0"/>
        <pt x="669" y="-448" on="0"/>
        <pt x="621" y="-441" on="0"/>
        <pt x="584" y="-433" on="0"/>
        <pt x="565" y="-430" on="1"/>
        <pt x="565" y="-254" on="1"/>
        <pt x="605" y="-273" on="0"/>
        <pt x="710" y="-299" on="0"/>
        <pt x="765" y="-299" on="1"/>
        <pt x="822" y="-299" on="0"/>
        <pt x="898" y="-276" on="0"/>
        <pt x="898" y="-248" on="1"/>
        <pt x="898" y="-232" on="0"/>
        <pt x="874" y="-212" on="0"/>
        <pt x="838" y="-201" on="0"/>
        <pt x="798" y="-197" on="0"/>
        <pt x="782" y="-197" on="1"/>
        <pt x="759" y="-197" on="0"/>
        <pt x="707" y="-203" on="0"/>
        <pt x="687" y="-209" on="1"/>
        <pt x="765" y="0" on="1"/>
        <pt x="497" y="0" on="1"/>
        <pt x="461" y="0" on="0"/>
        <pt x="378" y="17" on="0"/>
        <pt x="297" y="53" on="0"/>
        <pt x="223" y="110" on="0"/>
        <pt x="166" y="191" on="0"/>
        <pt x="132" y="298" on="0"/>
        <pt x="132" y="365" on="1"/>
        <pt x="132" y="1069" on="1"/>
        <pt x="132" y="1105" on="0"/>
        <pt x="149" y="1188" on="0"/>
        <pt x="185" y="1269" on="0"/>
        <pt x="243" y="1343" on="0"/>
        <pt x="324" y="1400" on="0"/>
        <pt x="430" y="1434" on="0"/>
        <pt x="497" y="1434" on="1"/>
        <pt x="1435" y="1434" on="1"/>
        <pt x="1435" y="1174" on="1"/>
        <pt x="497" y="1174" on="1"/>
        <pt x="446" y="1174" on="0"/>
        <pt x="392" y="1120" on="0"/>
        <pt x="392" y="1067" on="1"/>
        <pt x="392" y="365" on="1"/>
        <pt x="392" y="315" on="0"/>
        <pt x="447" y="260" on="0"/>
        <pt x="497" y="260" on="1"/>
        <pt x="1435" y="260" on="1"/>
      </contour>
    </TTGlyph>
    <TTGlyph name="Ccircumflex" xMin="132" yMin="0" xMax="1435" yMax="1943">
      <component glyphName="C" x="0" y="0" flags="0x204"/>
      <component glyphName="circumflex" x="231" y="350" flags="0x4"/>
    </TTGlyph>
    <TTGlyph name="Cdotaccent" xMin="132" yMin="0" xMax="1435" yMax="1794">
      <component glyphName="C" x="0" y="0" flags="0x204"/>
      <component glyphName="dotaccent" x="227" y="350" flags="0x4"/>
    </TTGlyph>
    <TTGlyph name="D" xMin="149" yMin="0" xMax="1582" yMax="1434">
      <contour>
        <pt x="1582" y="600" on="1"/>
        <pt x="1582" y="469" on="0"/>
        <pt x="1491" y="249" on="0"/>
        <pt x="1331" y="90" on="0"/>
        <pt x="1111" y="0" on="0"/>
        <pt x="982" y="0" on="1"/>
        <pt x="280" y="0" on="1"/>
        <pt x="252" y="0" on="0"/>
        <pt x="204" y="20" on="0"/>
        <pt x="169" y="55" on="0"/>
        <pt x="149" y="103" on="0"/>
        <pt x="149" y="131" on="1"/>
        <pt x="149" y="1303" on="1"/>
        <pt x="149" y="1330" on="0"/>
        <pt x="169" y="1378" on="0"/>
        <pt x="204" y="1414" on="0"/>
        <pt x="252" y="1434" on="0"/>
        <pt x="280" y="1434" on="1"/>
        <pt x="982" y="1434" on="1"/>
        <pt x="1111" y="1434" on="0"/>
        <pt x="1331" y="1344" on="0"/>
        <pt x="1491" y="1185" on="0"/>
        <pt x="1582" y="964" on="0"/>
        <pt x="1582" y="834" on="1"/>
      </contour>
      <contour>
        <pt x="1322" y="834" on="1"/>
        <pt x="1322" y="910" on="0"/>
        <pt x="1273" y="1036" on="0"/>
        <pt x="1183" y="1125" on="0"/>
        <pt x="1058" y="1174" on="0"/>
        <pt x="982" y="1174" on="1"/>
        <pt x="409" y="1174" on="1"/>
        <pt x="409" y="260" on="1"/>
        <pt x="982" y="260" on="1"/>
        <pt x="1058" y="260" on="0"/>
        <pt x="1183" y="309" on="0"/>
        <pt x="1273" y="398" on="0"/>
        <pt x="1322" y="523" on="0"/>
        <pt x="1322" y="600" on="1"/>
      </contour>
    </TTGlyph>
    <TTGlyph name="Dcaron" xMin="149" yMin="0" xMax="1582" yMax="1923">
      <component glyphName="D" x="0" y="0" flags="0x204"/>
      <component glyphName="caron" x="272" y="350" flags="0x4"/>
    </TTGlyph>
    <TTGlyph name="Dcroat" xMin="44" yMin="0" xMax="1816" yMax="1434">
      <component glyphName="Eth" x="0" y="0" flags="0x204"/>
    </TTGlyph>
    <TTGlyph name="E" xMin="145" yMin="0" xMax="1447" yMax="1434">
      <contour>
        <pt x="1330" y="586" on="1"/>
        <pt x="509" y="586" on="1"/>
        <pt x="509" y="848" on="1"/>
        <pt x="1330" y="848" on="1"/>
      </contour>
      <contour>
        <pt x="1447" y="0" on="1"/>
        <pt x="509" y="0" on="1"/>
        <pt x="455" y="0" on="0"/>
        <pt x="327" y="38" on="0"/>
        <pt x="218" y="125" on="0"/>
        <pt x="145" y="264" on="0"/>
        <pt x="145" y="365" on="1"/>
        <pt x="145" y="1303" on="1"/>
        <pt x="145" y="1330" on="0"/>
        <pt x="165" y="1378" on="0"/>
        <pt x="200" y="1414" on="0"/>
        <pt x="248" y="1434" on="0"/>
        <pt x="276" y="1434" on="1"/>
        <pt x="1447" y="1434" on="1"/>
        <pt x="1447" y="1174" on="1"/>
        <pt x="405" y="1174" on="1"/>
        <pt x="405" y="365" on="1"/>
        <pt x="405" y="314" on="0"/>
        <pt x="459" y="260" on="0"/>
        <pt x="511" y="260" on="1"/>
        <pt x="1447" y="260" on="1"/>
      </contour>
    </TTGlyph>
    <TTGlyph name="Eacute" xMin="145" yMin="0" xMax="1447" yMax="1999">
      <component glyphName="E" x="0" y="0" flags="0x204"/>
      <component glyphName="acute" x="463" y="410" flags="0x4"/>
    </TTGlyph>
    <TTGlyph name="Ebreve" xMin="145" yMin="0" xMax="1447" yMax="1902">
      <component glyphName="E" x="0" y="0" flags="0x204"/>
      <component glyphName="breve" x="244" y="350" flags="0x4"/>
    </TTGlyph>
    <TTGlyph name="Ecaron" xMin="145" yMin="0" xMax="1447" yMax="1923">
      <component glyphName="E" x="0" y="0" flags="0x204"/>
      <component glyphName="caron" x="244" y="350" flags="0x4"/>
    </TTGlyph>
    <TTGlyph name="Ecircumflex" xMin="145" yMin="0" xMax="1447" yMax="2003">
      <component glyphName="E" x="0" y="0" flags="0x204"/>
      <component glyphName="circumflex" x="225" y="410" flags="0x4"/>
    </TTGlyph>
    <TTGlyph name="Edieresis" xMin="145" yMin="0" xMax="1447" yMax="1854">
      <component glyphName="E" x="0" y="0" flags="0x204"/>
      <component glyphName="dieresis" x="287" y="410" flags="0x4"/>
    </TTGlyph>
    <TTGlyph name="Edotaccent" xMin="145" yMin="0" xMax="1447" yMax="1794">
      <component glyphName="E" x="0" y="0" flags="0x204"/>
      <component glyphName="dotaccent" x="244" y="350" flags="0x4"/>
    </TTGlyph>
    <TTGlyph name="Egrave" xMin="145" yMin="0" xMax="1447" yMax="1999">
      <component glyphName="E" x="0" y="0" flags="0x204"/>
      <component glyphName="grave" x="150" y="410" flags="0x4"/>
    </TTGlyph>
    <TTGlyph name="Emacron" xMin="145" yMin="0" xMax="1447" yMax="1786">
      <component glyphName="E" x="0" y="0" flags="0x204"/>
      <component glyphName="macron" x="244" y="350" flags="0x4"/>
    </TTGlyph>
    <TTGlyph name="Eng" xMin="151" yMin="-582" xMax="1584" yMax="1459">
      <contour>
        <pt x="1584" y="-217" on="1"/>
        <pt x="1584" y="-295" on="0"/>
        <pt x="1530" y="-429" on="0"/>
        <pt x="1433" y="-527" on="0"/>
        <pt x="1299" y="-582" on="0"/>
        <pt x="1220" y="-582" on="1"/>
        <pt x="268" y="-582" on="1"/>
        <pt x="268" y="-322" on="1"/>
        <pt x="1220" y="-322" on="1"/>
        <pt x="1268" y="-322" on="0"/>
        <pt x="1322" y="-267" on="0"/>
        <pt x="1322" y="-217" on="1"/>
        <pt x="1322" y="59" on="1"/>
        <pt x="411" y="1010" on="1"/>
        <pt x="411" y="0" on="1"/>
        <pt x="151" y="0" on="1"/>
        <pt x="151" y="1323" on="1"/>
        <pt x="151" y="1363" on="0"/>
        <pt x="196" y="1428" on="0"/>
        <pt x="231" y="1444" on="1"/>
        <pt x="268" y="1459" on="0"/>
        <pt x="346" y="1444" on="0"/>
        <pt x="374" y="1415" on="1"/>
        <pt x="1322" y="426" on="1"/>
        <pt x="1324" y="1434" on="1"/>
        <pt x="1584" y="1434" on="1"/>
      </contour>
    </TTGlyph>
    <TTGlyph name="Eogonek" xMin="145" yMin="-434" xMax="1447" yMax="1434">
      <contour>
        <pt x="1447" y="0" on="1"/>
        <pt x="1228" y="0" on="1"/>
        <pt x="1177" y="-42" on="0"/>
        <pt x="1120" y="-141" on="0"/>
        <pt x="1120" y="-186" on="1"/>
        <pt x="1120" y="-224" on="0"/>
        <pt x="1171" y="-254" on="0"/>
        <pt x="1228" y="-254" on="1"/>
        <pt x="1253" y="-254" on="0"/>
        <pt x="1315" y="-244" on="0"/>
        <pt x="1375" y="-228" on="0"/>
        <pt x="1429" y="-211" on="0"/>
        <pt x="1447" y="-203" on="1"/>
        <pt x="1447" y="-389" on="1"/>
        <pt x="1429" y="-394" on="0"/>
        <pt x="1378" y="-410" on="0"/>
        <pt x="1310" y="-424" on="0"/>
        <pt x="1222" y="-434" on="0"/>
        <pt x="1167" y="-434" on="1"/>
        <pt x="1113" y="-434" on="0"/>
        <pt x="1018" y="-414" on="0"/>
        <pt x="948" y="-370" on="0"/>
        <pt x="907" y="-298" on="0"/>
        <pt x="907" y="-246" on="1"/>
        <pt x="907" y="-219" on="0"/>
        <pt x="920" y="-154" on="0"/>
        <pt x="949" y="-88" on="0"/>
        <pt x="996" y="-25" on="0"/>
        <pt x="1031" y="0" on="1"/>
        <pt x="509" y="0" on="1"/>
        <pt x="455" y="0" on="0"/>
        <pt x="327" y="38" on="0"/>
        <pt x="218" y="125" on="0"/>
        <pt x="145" y="264" on="0"/>
        <pt x="145" y="365" on="1"/>
        <pt x="145" y="1303" on="1"/>
        <pt x="145" y="1330" on="0"/>
        <pt x="165" y="1378" on="0"/>
        <pt x="200" y="1414" on="0"/>
        <pt x="248" y="1434" on="0"/>
        <pt x="276" y="1434" on="1"/>
        <pt x="1447" y="1434" on="1"/>
        <pt x="1447" y="1174" on="1"/>
        <pt x="405" y="1174" on="1"/>
        <pt x="405" y="365" on="1"/>
        <pt x="405" y="314" on="0"/>
        <pt x="459" y="260" on="0"/>
        <pt x="511" y="260" on="1"/>
        <pt x="1447" y="260" on="1"/>
      </contour>
      <contour>
        <pt x="1330" y="586" on="1"/>
        <pt x="509" y="586" on="1"/>
        <pt x="509" y="848" on="1"/>
        <pt x="1330" y="848" on="1"/>
      </contour>
    </TTGlyph>
    <TTGlyph name="Eth" xMin="44" yMin="0" xMax="1816" yMax="1434">
      <contour>
        <pt x="1816" y="600" on="1"/>
        <pt x="1816" y="469" on="0"/>
        <pt x="1721" y="249" on="0"/>
        <pt x="1557" y="90" on="0"/>
        <pt x="1340" y="0" on="0"/>
        <pt x="1218" y="0" on="1"/>
        <pt x="513" y="0" on="1"/>
        <pt x="486" y="0" on="0"/>
        <pt x="439" y="20" on="0"/>
        <pt x="403" y="55" on="0"/>
        <pt x="382" y="103" on="0"/>
        <pt x="382" y="131" on="1"/>
        <pt x="382" y="600" on="1"/>
        <pt x="44" y="600" on="1"/>
        <pt x="44" y="834" on="1"/>
        <pt x="382" y="834" on="1"/>
        <pt x="382" y="1303" on="1"/>
        <pt x="382" y="1330" on="0"/>
        <pt x="403" y="1378" on="0"/>
        <pt x="439" y="1414" on="0"/>
        <pt x="486" y="1434" on="0"/>
        <pt x="513" y="1434" on="1"/>
        <pt x="1218" y="1434" on="1"/>
        <pt x="1335" y="1434" on="0"/>
        <pt x="1552" y="1346" on="0"/>
        <pt x="1717" y="1187" on="0"/>
        <pt x="1816" y="967" on="0"/>
        <pt x="1816" y="834" on="1"/>
      </contour>
      <contour>
        <pt x="644" y="600" on="1"/>
        <pt x="644" y="260" on="1"/>
        <pt x="1216" y="260" on="1"/>
        <pt x="1294" y="260" on="0"/>
        <pt x="1419" y="311" on="0"/>
        <pt x="1508" y="401" on="0"/>
        <pt x="1556" y="526" on="0"/>
        <pt x="1556" y="600" on="1"/>
        <pt x="1556" y="834" on="1"/>
        <pt x="1556" y="911" on="0"/>
        <pt x="1500" y="1037" on="0"/>
        <pt x="1407" y="1127" on="0"/>
        <pt x="1285" y="1175" on="0"/>
        <pt x="1218" y="1174" on="1"/>
        <pt x="644" y="1174" on="1"/>
        <pt x="644" y="834" on="1"/>
        <pt x="982" y="834" on="1"/>
        <pt x="982" y="600" on="1"/>
      </contour>
    </TTGlyph>
    <TTGlyph name="Euro" xMin="104" yMin="0" xMax="1746" yMax="1434">
      <contour>
        <pt x="1042" y="418" on="1"/>
        <pt x="704" y="418" on="1"/>
        <pt x="704" y="365" on="1"/>
        <pt x="704" y="317" on="0"/>
        <pt x="762" y="260" on="0"/>
        <pt x="808" y="260" on="1"/>
        <pt x="1746" y="260" on="1"/>
        <pt x="1746" y="0" on="1"/>
        <pt x="808" y="0" on="1"/>
        <pt x="753" y="0" on="0"/>
        <pt x="625" y="38" on="0"/>
        <pt x="515" y="125" on="0"/>
        <pt x="442" y="264" on="0"/>
        <pt x="442" y="365" on="1"/>
        <pt x="442" y="418" on="1"/>
        <pt x="104" y="418" on="1"/>
        <pt x="104" y="651" on="1"/>
        <pt x="442" y="651" on="1"/>
        <pt x="442" y="782" on="1"/>
        <pt x="104" y="782" on="1"/>
        <pt x="104" y="1016" on="1"/>
        <pt x="442" y="1016" on="1"/>
        <pt x="442" y="1069" on="1"/>
        <pt x="442" y="1105" on="0"/>
        <pt x="459" y="1188" on="0"/>
        <pt x="496" y="1269" on="0"/>
        <pt x="553" y="1343" on="0"/>
        <pt x="635" y="1400" on="0"/>
        <pt x="741" y="1434" on="0"/>
        <pt x="808" y="1434" on="1"/>
        <pt x="1746" y="1434" on="1"/>
        <pt x="1746" y="1174" on="1"/>
        <pt x="808" y="1174" on="1"/>
        <pt x="757" y="1174" on="0"/>
        <pt x="704" y="1120" on="0"/>
        <pt x="704" y="1067" on="1"/>
        <pt x="704" y="1016" on="1"/>
        <pt x="1042" y="1016" on="1"/>
        <pt x="1042" y="782" on="1"/>
        <pt x="704" y="782" on="1"/>
        <pt x="704" y="651" on="1"/>
        <pt x="1042" y="651" on="1"/>
      </contour>
    </TTGlyph>
    <TTGlyph name="F" xMin="151" yMin="0" xMax="1453" yMax="1434">
      <contour>
        <pt x="1337" y="586" on="1"/>
        <pt x="515" y="586" on="1"/>
        <pt x="515" y="848" on="1"/>
        <pt x="1337" y="848" on="1"/>
      </contour>
      <contour>
        <pt x="1453" y="1174" on="1"/>
        <pt x="411" y="1174" on="1"/>
        <pt x="411" y="0" on="1"/>
        <pt x="151" y="0" on="1"/>
        <pt x="151" y="1303" on="1"/>
        <pt x="151" y="1330" on="0"/>
        <pt x="171" y="1378" on="0"/>
        <pt x="206" y="1414" on="0"/>
        <pt x="254" y="1434" on="0"/>
        <pt x="282" y="1434" on="1"/>
        <pt x="1453" y="1434" on="1"/>
      </contour>
    </TTGlyph>
    <TTGlyph name="G" xMin="132" yMin="0" xMax="1566" yMax="1434">
      <contour>
        <pt x="1566" y="131" on="1"/>
        <pt x="1566" y="103" on="0"/>
        <pt x="1546" y="55" on="0"/>
        <pt x="1511" y="20" on="0"/>
        <pt x="1463" y="0" on="0"/>
        <pt x="1435" y="0" on="1"/>
        <pt x="497" y="0" on="1"/>
        <pt x="461" y="0" on="0"/>
        <pt x="378" y="17" on="0"/>
        <pt x="297" y="53" on="0"/>
        <pt x="223" y="110" on="0"/>
        <pt x="166" y="191" on="0"/>
        <pt x="132" y="298" on="0"/>
        <pt x="132" y="365" on="1"/>
        <pt x="132" y="1069" on="1"/>
        <pt x="132" y="1105" on="0"/>
        <pt x="149" y="1188" on="0"/>
        <pt x="185" y="1269" on="0"/>
        <pt x="243" y="1343" on="0"/>
        <pt x="324" y="1400" on="0"/>
        <pt x="430" y="1434" on="0"/>
        <pt x="497" y="1434" on="1"/>
        <pt x="1554" y="1434" on="1"/>
        <pt x="1554" y="1174" on="1"/>
        <pt x="497" y="1174" on="1"/>
        <pt x="446" y="1174" on="0"/>
        <pt x="392" y="1120" on="0"/>
        <pt x="392" y="1067" on="1"/>
        <pt x="392" y="365" on="1"/>
        <pt x="392" y="315" on="0"/>
        <pt x="447" y="260" on="0"/>
        <pt x="497" y="260" on="1"/>
        <pt x="1306" y="260" on="1"/>
        <pt x="1306" y="586" on="1"/>
        <pt x="614" y="586" on="1"/>
        <pt x="614" y="848" on="1"/>
        <pt x="1435" y="848" on="1"/>
        <pt x="1463" y="848" on="0"/>
        <pt x="1511" y="827" on="0"/>
        <pt x="1546" y="791" on="0"/>
        <pt x="1566" y="744" on="0"/>
        <pt x="1566" y="717" on="1"/>
      </contour>
    </TTGlyph>
    <TTGlyph name="Gbreve" xMin="132" yMin="0" xMax="1566" yMax="1902">
      <component glyphName="G" x="0" y="0" flags="0x204"/>
      <component glyphName="breve" x="313" y="350" flags="0x4"/>
    </TTGlyph>
    <TTGlyph name="Gcircumflex" xMin="132" yMin="0" xMax="1566" yMax="1943">
      <component glyphName="G" x="0" y="0" flags="0x204"/>
      <component glyphName="circumflex" x="313" y="350" flags="0x4"/>
    </TTGlyph>
    <TTGlyph name="Gcommaaccent" xMin="132" yMin="-582" xMax="1566" yMax="1434">
      <component glyphName="G" x="0" y="0" flags="0x204"/>
      <component glyphName="uni0326" x="666" y="0" flags="0x4"/>
    </TTGlyph>
    <TTGlyph name="Gdotaccent" xMin="132" yMin="0" xMax="1566" yMax="1794">
      <component glyphName="G" x="0" y="0" flags="0x204"/>
      <component glyphName="dotaccent" x="313" y="350" flags="0x4"/>
    </TTGlyph>
    <TTGlyph name="H" xMin="153" yMin="0" xMax="1586" yMax="1434">
      <contour>
        <pt x="413" y="848" on="1"/>
        <pt x="1326" y="848" on="1"/>
        <pt x="1326" y="1434" on="1"/>
        <pt x="1586" y="1434" on="1"/>
        <pt x="1586" y="0" on="1"/>
        <pt x="1326" y="0" on="1"/>
        <pt x="1326" y="586" on="1"/>
        <pt x="413" y="586" on="1"/>
        <pt x="413" y="0" on="1"/>
        <pt x="153" y="0" on="1"/>
        <pt x="153" y="1434" on="1"/>
        <pt x="413" y="1434" on="1"/>
      </contour>
    </TTGlyph>
    <TTGlyph name="Hbar" xMin="50" yMin="0" xMax="1689" yMax="1434">
      <contour>
        <pt x="413" y="1184" on="1"/>
        <pt x="1326" y="1184" on="1"/>
        <pt x="1326" y="1434" on="1"/>
        <pt x="1586" y="1434" on="1"/>
        <pt x="1586" y="1184" on="1"/>
        <pt x="1689" y="1184" on="1"/>
        <pt x="1689" y="950" on="1"/>
        <pt x="1586" y="950" on="1"/>
        <pt x="1586" y="0" on="1"/>
        <pt x="1326" y="0" on="1"/>
        <pt x="1326" y="586" on="1"/>
        <pt x="413" y="586" on="1"/>
        <pt x="413" y="0" on="1"/>
        <pt x="153" y="0" on="1"/>
        <pt x="153" y="950" on="1"/>
        <pt x="50" y="950" on="1"/>
        <pt x="50" y="1184" on="1"/>
        <pt x="153" y="1184" on="1"/>
        <pt x="153" y="1434" on="1"/>
        <pt x="413" y="1434" on="1"/>
      </contour>
      <contour>
        <pt x="1326" y="848" on="1"/>
        <pt x="1326" y="950" on="1"/>
        <pt x="413" y="950" on="1"/>
        <pt x="413" y="848" on="1"/>
      </contour>
    </TTGlyph>
    <TTGlyph name="Hcircumflex" xMin="153" yMin="0" xMax="1586" yMax="1943">
      <component glyphName="H" x="0" y="0" flags="0x204"/>
      <component glyphName="circumflex" x="299" y="350" flags="0x4"/>
    </TTGlyph>
    <TTGlyph name="I" xMin="153" yMin="0" xMax="413" yMax="1434">
      <contour>
        <pt x="413" y="0" on="1"/>
        <pt x="153" y="0" on="1"/>
        <pt x="153" y="1434" on="1"/>
        <pt x="413" y="1434" on="1"/>
      </contour>
    </TTGlyph>
    <TTGlyph name="IJ" xMin="153" yMin="0" xMax="1863" yMax="1434">
      <component glyphName="I" x="0" y="0" flags="0x4"/>
      <component glyphName="J" x="506" y="0" flags="0x4"/>
    </TTGlyph>
    <TTGlyph name="Iacute" xMin="153" yMin="0" xMax="805" yMax="1999">
      <component glyphName="I" x="0" y="0" flags="0x204"/>
      <component glyphName="acute" x="-140" y="410" flags="0x4"/>
    </TTGlyph>
    <TTGlyph name="Ibreve" xMin="-123" yMin="0" xMax="692" yMax="1902">
      <component glyphName="I" x="0" y="0" flags="0x204"/>
      <component glyphName="breve" x="-286" y="350" flags="0x4"/>
    </TTGlyph>
    <TTGlyph name="Icircumflex" xMin="-184" yMin="0" xMax="754" yMax="2003">
      <component glyphName="I" x="0" y="0" flags="0x204"/>
      <component glyphName="circumflex" x="-286" y="410" flags="0x4"/>
    </TTGlyph>
    <TTGlyph name="Idieresis" xMin="-76" yMin="0" xMax="645" yMax="1854">
      <component glyphName="I" x="0" y="0" flags="0x204"/>
      <component glyphName="dieresis" x="-286" y="410" flags="0x4"/>
    </TTGlyph>
    <TTGlyph name="Idotaccent" xMin="153" yMin="0" xMax="414" yMax="1794">
      <component glyphName="I" x="0" y="0" flags="0x204"/>
      <component glyphName="dotaccent" x="-286" y="350" flags="0x4"/>
    </TTGlyph>
    <TTGlyph name="Igrave" xMin="-247" yMin="0" xMax="413" yMax="1999">
      <component glyphName="I" x="0" y="0" flags="0x204"/>
      <component glyphName="grave" x="-443" y="410" flags="0x4"/>
    </TTGlyph>
    <TTGlyph name="Imacron" xMin="-51" yMin="0" xMax="621" yMax="1786">
      <component glyphName="I" x="0" y="0" flags="0x204"/>
      <component glyphName="macron" x="-286" y="350" flags="0x4"/>
    </TTGlyph>
    <TTGlyph name="Iogonek" xMin="42" yMin="-434" xMax="583" yMax="1434">
      <contour>
        <pt x="413" y="0" on="1"/>
        <pt x="364" y="0" on="1"/>
        <pt x="313" y="-42" on="0"/>
        <pt x="255" y="-141" on="0"/>
        <pt x="255" y="-186" on="1"/>
        <pt x="255" y="-224" on="0"/>
        <pt x="307" y="-254" on="0"/>
        <pt x="364" y="-254" on="1"/>
        <pt x="389" y="-254" on="0"/>
        <pt x="450" y="-244" on="0"/>
        <pt x="510" y="-228" on="0"/>
        <pt x="565" y="-211" on="0"/>
        <pt x="583" y="-203" on="1"/>
        <pt x="583" y="-389" on="1"/>
        <pt x="565" y="-394" on="0"/>
        <pt x="514" y="-410" on="0"/>
        <pt x="445" y="-424" on="0"/>
        <pt x="357" y="-434" on="0"/>
        <pt x="302" y="-434" on="1"/>
        <pt x="248" y="-434" on="0"/>
        <pt x="154" y="-414" on="0"/>
        <pt x="83" y="-370" on="0"/>
        <pt x="42" y="-298" on="0"/>
        <pt x="42" y="-246" on="1"/>
        <pt x="42" y="-219" on="0"/>
        <pt x="55" y="-154" on="0"/>
        <pt x="85" y="-88" on="0"/>
        <pt x="132" y="-25" on="0"/>
        <pt x="167" y="0" on="1"/>
        <pt x="153" y="0" on="1"/>
        <pt x="153" y="1434" on="1"/>
        <pt x="413" y="1434" on="1"/>
      </contour>
    </TTGlyph>
    <TTGlyph name="Itilde" xMin="-109" yMin="0" xMax="678" yMax="1861">
      <component glyphName="I" x="0" y="0" flags="0x204"/>
      <component glyphName="tilde" x="-286" y="350" flags="0x4"/>
    </TTGlyph>
    <TTGlyph name="J" xMin="40" yMin="0" xMax="1357" yMax="1434">
      <contour>
        <pt x="1357" y="365" on="1"/>
        <pt x="1357" y="287" on="0"/>
        <pt x="1303" y="153" on="0"/>
        <pt x="1206" y="55" on="0"/>
        <pt x="1072" y="0" on="0"/>
        <pt x="993" y="0" on="1"/>
        <pt x="40" y="0" on="1"/>
        <pt x="40" y="260" on="1"/>
        <pt x="993" y="260" on="1"/>
        <pt x="1041" y="260" on="0"/>
        <pt x="1095" y="315" on="0"/>
        <pt x="1095" y="365" on="1"/>
        <pt x="1095" y="1434" on="1"/>
        <pt x="1357" y="1434" on="1"/>
      </contour>
    </TTGlyph>
    <TTGlyph name="Jcircumflex" xMin="40" yMin="0" xMax="1695" yMax="1943">
      <component glyphName="J" x="0" y="0" flags="0x204"/>
      <component glyphName="circumflex" x="655" y="350" flags="0x4"/>
    </TTGlyph>
    <TTGlyph name="K" xMin="153" yMin="0" xMax="1654" yMax="1434">
      <contour>
        <pt x="1654" y="0" on="1"/>
        <pt x="1285" y="0" on="1"/>
        <pt x="700" y="586" on="1"/>
        <pt x="517" y="586" on="1"/>
        <pt x="517" y="848" on="1"/>
        <pt x="700" y="848" on="1"/>
        <pt x="1285" y="1434" on="1"/>
        <pt x="1654" y="1434" on="1"/>
        <pt x="917" y="717" on="1"/>
      </contour>
      <contour>
        <pt x="413" y="0" on="1"/>
        <pt x="153" y="0" on="1"/>
        <pt x="153" y="1434" on="1"/>
        <pt x="413" y="1434" on="1"/>
      </contour>
    </TTGlyph>
    <TTGlyph name="Kcommaaccent" xMin="153" yMin="-582" xMax="1654" yMax="1434">
      <component glyphName="K" x="0" y="0" flags="0x204"/>
      <component glyphName="uni0326" x="553" y="0" flags="0x4"/>
    </TTGlyph>
    <TTGlyph name="L" xMin="151" yMin="0" xMax="1468" yMax="1434">
      <contour>
        <pt x="1468" y="0" on="1"/>
        <pt x="282" y="0" on="1"/>
        <pt x="254" y="0" on="0"/>
        <pt x="206" y="20" on="0"/>
        <pt x="171" y="55" on="0"/>
        <pt x="151" y="103" on="0"/>
        <pt x="151" y="131" on="1"/>
        <pt x="151" y="1434" on="1"/>
        <pt x="411" y="1434" on="1"/>
        <pt x="411" y="260" on="1"/>
        <pt x="1468" y="260" on="1"/>
      </contour>
    </TTGlyph>
    <TTGlyph name="Lacute" xMin="151" yMin="0" xMax="1468" yMax="1939">
      <component glyphName="L" x="0" y="0" flags="0x204"/>
      <component glyphName="acute" x="-134" y="350" flags="0x4"/>
    </TTGlyph>
    <TTGlyph name="Lcaron" xMin="151" yMin="0" xMax="1468" yMax="1714">
      <component glyphName="L" x="0" y="0" flags="0x204"/>
      <component glyphName="uni0315" x="549" y="350" flags="0x4"/>
    </TTGlyph>
    <TTGlyph name="Lcommaaccent" xMin="151" yMin="-582" xMax="1468" yMax="1434">
      <component glyphName="L" x="0" y="0" flags="0x204"/>
      <component glyphName="uni0326" x="575" y="0" flags="0x4"/>
    </TTGlyph>
    <TTGlyph name="Ldot" xMin="151" yMin="0" xMax="1662" yMax="1434">
      <component glyphName="L" x="0" y="0" flags="0x4"/>
      <component glyphName="periodcentered" x="1315" y="0" flags="0x4"/>
    </TTGlyph>
    <TTGlyph name="Lslash" xMin="55" yMin="0" xMax="1636" yMax="1434">
      <contour>
        <pt x="874" y="805" on="1"/>
        <pt x="579" y="657" on="1"/>
        <pt x="579" y="260" on="1"/>
        <pt x="1636" y="260" on="1"/>
        <pt x="1636" y="0" on="1"/>
        <pt x="450" y="0" on="1"/>
        <pt x="422" y="0" on="0"/>
        <pt x="374" y="20" on="0"/>
        <pt x="339" y="55" on="0"/>
        <pt x="319" y="103" on="0"/>
        <pt x="319" y="131" on="1"/>
        <pt x="319" y="526" on="1"/>
        <pt x="55" y="395" on="1"/>
        <pt x="55" y="670" on="1"/>
        <pt x="319" y="801" on="1"/>
        <pt x="319" y="1434" on="1"/>
        <pt x="579" y="1434" on="1"/>
        <pt x="579" y="932" on="1"/>
        <pt x="874" y="1079" on="1"/>
      </contour>
    </TTGlyph>
    <TTGlyph name="M" xMin="151" yMin="-20" xMax="1820" yMax="1461">
      <contour>
        <pt x="1820" y="0" on="1"/>
        <pt x="1558" y="0" on="1"/>
        <pt x="1558" y="854" on="1"/>
        <pt x="1097" y="43" on="1"/>
        <pt x="1080" y="12" on="0"/>
        <pt x="1019" y="-20" on="0"/>
        <pt x="984" y="-20" on="1"/>
        <pt x="950" y="-20" on="0"/>
        <pt x="891" y="12" on="0"/>
        <pt x="874" y="43" on="1"/>
        <pt x="411" y="854" on="1"/>
        <pt x="411" y="0" on="1"/>
        <pt x="151" y="0" on="1"/>
        <pt x="151" y="1323" on="1"/>
        <pt x="151" y="1368" on="0"/>
        <pt x="204" y="1438" on="0"/>
        <pt x="247" y="1450" on="1"/>
        <pt x="268" y="1455" on="0"/>
        <pt x="310" y="1452" on="0"/>
        <pt x="349" y="1437" on="0"/>
        <pt x="381" y="1410" on="0"/>
        <pt x="392" y="1391" on="1"/>
        <pt x="984" y="362" on="1"/>
        <pt x="1576" y="1391" on="1"/>
        <pt x="1599" y="1429" on="0"/>
        <pt x="1680" y="1461" on="0"/>
        <pt x="1724" y="1450" on="1"/>
        <pt x="1766" y="1438" on="0"/>
        <pt x="1820" y="1368" on="0"/>
        <pt x="1820" y="1323" on="1"/>
      </contour>
    </TTGlyph>
    <TTGlyph name="N" xMin="151" yMin="-20" xMax="1584" yMax="1459">
      <contour>
        <pt x="1584" y="111" on="1"/>
        <pt x="1584" y="83" on="0"/>
        <pt x="1563" y="35" on="0"/>
        <pt x="1528" y="0" on="0"/>
        <pt x="1480" y="-20" on="0"/>
        <pt x="1453" y="-20" on="1"/>
        <pt x="1429" y="-20" on="0"/>
        <pt x="1380" y="-2" on="0"/>
        <pt x="1361" y="18" on="1"/>
        <pt x="411" y="1010" on="1"/>
        <pt x="411" y="0" on="1"/>
        <pt x="151" y="0" on="1"/>
        <pt x="151" y="1323" on="1"/>
        <pt x="151" y="1363" on="0"/>
        <pt x="196" y="1428" on="0"/>
        <pt x="231" y="1444" on="1"/>
        <pt x="268" y="1459" on="0"/>
        <pt x="346" y="1444" on="0"/>
        <pt x="374" y="1415" on="1"/>
        <pt x="1324" y="424" on="1"/>
        <pt x="1324" y="1434" on="1"/>
        <pt x="1584" y="1434" on="1"/>
      </contour>
    </TTGlyph>
    <TTGlyph name="Nacute" xMin="151" yMin="-20" xMax="1584" yMax="1939">
      <component glyphName="N" x="0" y="0" flags="0x204"/>
      <component glyphName="acute" x="434" y="350" flags="0x4"/>
    </TTGlyph>
    <TTGlyph name="Ncaron" xMin="151" yMin="-20" xMax="1584" yMax="1923">
      <component glyphName="N" x="0" y="0" flags="0x204"/>
      <component glyphName="caron" x="297" y="350" flags="0x4"/>
    </TTGlyph>
    <TTGlyph name="Ncommaaccent" xMin="151" yMin="-582" xMax="1584" yMax="1459">
      <component glyphName="N" x="0" y="0" flags="0x204"/>
      <component glyphName="uni0326" x="690" y="0" flags="0x4"/>
    </TTGlyph>
    <TTGlyph name="Ntilde" xMin="151" yMin="-20" xMax="1584" yMax="1841">
      <component glyphName="N" x="0" y="0" flags="0x204"/>
      <component glyphName="tilde" x="297" y="330" flags="0x4"/>
    </TTGlyph>
    <TTGlyph name="O" xMin="106" yMin="-20" xMax="1656" yMax="1454">
      <contour>
        <pt x="1656" y="580" on="1"/>
        <pt x="1656" y="449" on="0"/>
        <pt x="1566" y="229" on="0"/>
        <pt x="1406" y="69" on="0"/>
        <pt x="1187" y="-20" on="0"/>
        <pt x="1058" y="-20" on="1"/>
        <pt x="706" y="-20" on="1"/>
        <pt x="577" y="-20" on="0"/>
        <pt x="357" y="69" on="0"/>
        <pt x="197" y="229" on="0"/>
        <pt x="106" y="449" on="0"/>
        <pt x="106" y="580" on="1"/>
        <pt x="106" y="854" on="1"/>
        <pt x="106" y="984" on="0"/>
        <pt x="197" y="1205" on="0"/>
        <pt x="357" y="1364" on="0"/>
        <pt x="577" y="1454" on="0"/>
        <pt x="706" y="1454" on="1"/>
        <pt x="1058" y="1454" on="1"/>
        <pt x="1187" y="1454" on="0"/>
        <pt x="1406" y="1364" on="0"/>
        <pt x="1566" y="1205" on="0"/>
        <pt x="1656" y="984" on="0"/>
        <pt x="1656" y="854" on="1"/>
      </contour>
      <contour>
        <pt x="1396" y="854" on="1"/>
        <pt x="1396" y="931" on="0"/>
        <pt x="1347" y="1056" on="0"/>
        <pt x="1258" y="1145" on="0"/>
        <pt x="1133" y="1194" on="0"/>
        <pt x="1058" y="1194" on="1"/>
        <pt x="706" y="1194" on="1"/>
        <pt x="630" y="1194" on="0"/>
        <pt x="505" y="1145" on="0"/>
        <pt x="415" y="1056" on="0"/>
        <pt x="366" y="931" on="0"/>
        <pt x="366" y="854" on="1"/>
        <pt x="366" y="580" on="1"/>
        <pt x="366" y="503" on="0"/>
        <pt x="415" y="378" on="0"/>
        <pt x="505" y="289" on="0"/>
        <pt x="630" y="240" on="0"/>
        <pt x="706" y="240" on="1"/>
        <pt x="1056" y="240" on="1"/>
        <pt x="1132" y="240" on="0"/>
        <pt x="1257" y="289" on="0"/>
        <pt x="1347" y="378" on="0"/>
        <pt x="1396" y="503" on="0"/>
        <pt x="1396" y="580" on="1"/>
      </contour>
    </TTGlyph>
    <TTGlyph name="OE" xMin="106" yMin="-20" xMax="2699" yMax="1454">
      <contour>
        <pt x="2699" y="0" on="1"/>
        <pt x="1761" y="0" on="1"/>
        <pt x="1726" y="0" on="0"/>
        <pt x="1648" y="15" on="0"/>
        <pt x="1571" y="46" on="0"/>
        <pt x="1499" y="97" on="0"/>
        <pt x="1470" y="133" on="1"/>
        <pt x="1391" y="61" on="0"/>
        <pt x="1182" y="-20" on="0"/>
        <pt x="1058" y="-20" on="1"/>
        <pt x="706" y="-20" on="1"/>
        <pt x="577" y="-20" on="0"/>
        <pt x="357" y="69" on="0"/>
        <pt x="197" y="229" on="0"/>
        <pt x="106" y="449" on="0"/>
        <pt x="106" y="580" on="1"/>
        <pt x="106" y="854" on="1"/>
        <pt x="106" y="984" on="0"/>
        <pt x="197" y="1205" on="0"/>
        <pt x="357" y="1364" on="0"/>
        <pt x="577" y="1454" on="0"/>
        <pt x="706" y="1454" on="1"/>
        <pt x="1058" y="1454" on="1"/>
        <pt x="1157" y="1454" on="0"/>
        <pt x="1332" y="1401" on="0"/>
        <pt x="1404" y="1352" on="1"/>
        <pt x="1420" y="1389" on="0"/>
        <pt x="1484" y="1434" on="0"/>
        <pt x="1527" y="1434" on="1"/>
        <pt x="2699" y="1434" on="1"/>
        <pt x="2699" y="1174" on="1"/>
        <pt x="1656" y="1174" on="1"/>
        <pt x="1656" y="365" on="1"/>
        <pt x="1656" y="314" on="0"/>
        <pt x="1710" y="260" on="0"/>
        <pt x="1763" y="260" on="1"/>
        <pt x="2699" y="260" on="1"/>
      </contour>
      <contour>
        <pt x="1396" y="854" on="1"/>
        <pt x="1396" y="931" on="0"/>
        <pt x="1347" y="1056" on="0"/>
        <pt x="1258" y="1145" on="0"/>
        <pt x="1133" y="1194" on="0"/>
        <pt x="1058" y="1194" on="1"/>
        <pt x="706" y="1194" on="1"/>
        <pt x="630" y="1194" on="0"/>
        <pt x="505" y="1145" on="0"/>
        <pt x="415" y="1056" on="0"/>
        <pt x="366" y="931" on="0"/>
        <pt x="366" y="854" on="1"/>
        <pt x="366" y="580" on="1"/>
        <pt x="366" y="503" on="0"/>
        <pt x="415" y="378" on="0"/>
        <pt x="505" y="289" on="0"/>
        <pt x="630" y="240" on="0"/>
        <pt x="706" y="240" on="1"/>
        <pt x="1056" y="240" on="1"/>
        <pt x="1132" y="240" on="0"/>
        <pt x="1257" y="289" on="0"/>
        <pt x="1347" y="378" on="0"/>
        <pt x="1396" y="503" on="0"/>
        <pt x="1396" y="580" on="1"/>
      </contour>
      <contour>
        <pt x="2582" y="586" on="1"/>
        <pt x="1761" y="586" on="1"/>
        <pt x="1761" y="848" on="1"/>
        <pt x="2582" y="848" on="1"/>
      </contour>
    </TTGlyph>
    <TTGlyph name="Oacute" xMin="106" yMin="-20" xMax="1656" yMax="1999">
      <component glyphName="O" x="0" y="0" flags="0x204"/>
      <component glyphName="acute" x="446" y="410" flags="0x4"/>
    </TTGlyph>
    <TTGlyph name="Obreve" xMin="106" yMin="-20" xMax="1656" yMax="1902">
      <component glyphName="O" x="0" y="0" flags="0x204"/>
      <component glyphName="breve" x="309" y="350" flags="0x4"/>
    </TTGlyph>
    <TTGlyph name="Ocircumflex" xMin="106" yMin="-20" xMax="1656" yMax="2003">
      <component glyphName="O" x="0" y="0" flags="0x204"/>
      <component glyphName="circumflex" x="309" y="410" flags="0x4"/>
    </TTGlyph>
    <TTGlyph name="Odieresis" xMin="106" yMin="-20" xMax="1656" yMax="1854">
      <component glyphName="O" x="0" y="0" flags="0x204"/>
      <component glyphName="dieresis" x="309" y="410" flags="0x4"/>
    </TTGlyph>
    <TTGlyph name="Ograve" xMin="106" yMin="-20" xMax="1656" yMax="1999">
      <component glyphName="O" x="0" y="0" flags="0x204"/>
      <component glyphName="grave" x="154" y="410" flags="0x4"/>
    </TTGlyph>
    <TTGlyph name="Ohungarumlaut" xMin="106" yMin="-20" xMax="1656" yMax="1888">
      <component glyphName="O" x="0" y="0" flags="0x204"/>
      <component glyphName="hungarumlaut" x="387" y="350" flags="0x4"/>
    </TTGlyph>
    <TTGlyph name="Omacron" xMin="106" yMin="-20" xMax="1656" yMax="1786">
      <component glyphName="O" x="0" y="0" flags="0x204"/>
      <component glyphName="macron" x="309" y="350" flags="0x4"/>
    </TTGlyph>
    <TTGlyph name="Oslash" xMin="89" yMin="-104" xMax="1677" yMax="1538">
      <contour>
        <pt x="1482" y="1290" on="1"/>
        <pt x="1564" y="1210" on="0"/>
        <pt x="1658" y="988" on="0"/>
        <pt x="1658" y="854" on="1"/>
        <pt x="1658" y="580" on="1"/>
        <pt x="1658" y="449" on="0"/>
        <pt x="1568" y="229" on="0"/>
        <pt x="1408" y="69" on="0"/>
        <pt x="1189" y="-20" on="0"/>
        <pt x="1060" y="-20" on="1"/>
        <pt x="708" y="-20" on="1"/>
        <pt x="648" y="-20" on="0"/>
        <pt x="535" y="0" on="0"/>
        <pt x="483" y="18" on="1"/>
        <pt x="386" y="-104" on="1"/>
        <pt x="89" y="-104" on="1"/>
        <pt x="284" y="143" on="1"/>
        <pt x="200" y="224" on="0"/>
        <pt x="108" y="446" on="0"/>
        <pt x="108" y="580" on="1"/>
        <pt x="108" y="854" on="1"/>
        <pt x="108" y="985" on="0"/>
        <pt x="199" y="1206" on="0"/>
        <pt x="359" y="1365" on="0"/>
        <pt x="579" y="1454" on="0"/>
        <pt x="708" y="1454" on="1"/>
        <pt x="1060" y="1454" on="1"/>
        <pt x="1120" y="1454" on="0"/>
        <pt x="1232" y="1434" on="0"/>
        <pt x="1283" y="1415" on="1"/>
        <pt x="1380" y="1538" on="1"/>
        <pt x="1677" y="1538" on="1"/>
      </contour>
      <contour>
        <pt x="1398" y="854" on="1"/>
        <pt x="1398" y="923" on="0"/>
        <pt x="1357" y="1040" on="0"/>
        <pt x="1320" y="1083" on="1"/>
        <pt x="659" y="242" on="1"/>
        <pt x="671" y="240" on="0"/>
        <pt x="694" y="240" on="0"/>
        <pt x="708" y="240" on="1"/>
        <pt x="1058" y="240" on="1"/>
        <pt x="1134" y="240" on="0"/>
        <pt x="1259" y="289" on="0"/>
        <pt x="1349" y="378" on="0"/>
        <pt x="1398" y="503" on="0"/>
        <pt x="1398" y="580" on="1"/>
      </contour>
      <contour>
        <pt x="368" y="580" on="1"/>
        <pt x="368" y="508" on="0"/>
        <pt x="409" y="394" on="0"/>
        <pt x="446" y="350" on="1"/>
        <pt x="1107" y="1192" on="1"/>
        <pt x="1095" y="1194" on="0"/>
        <pt x="1073" y="1194" on="0"/>
        <pt x="1060" y="1194" on="1"/>
        <pt x="708" y="1194" on="1"/>
        <pt x="632" y="1194" on="0"/>
        <pt x="507" y="1145" on="0"/>
        <pt x="417" y="1056" on="0"/>
        <pt x="368" y="931" on="0"/>
        <pt x="368" y="854" on="1"/>
      </contour>
    </TTGlyph>
    <TTGlyph name="Oslashacute" xMin="89" yMin="-104" xMax="1677" yMax="1939">
      <component glyphName="Oslash" x="0" y="0" flags="0x204"/>
      <component glyphName="acute" x="477" y="350" flags="0x4"/>
    </TTGlyph>
    <TTGlyph name="Otilde" xMin="106" yMin="-20" xMax="1656" yMax="1941">
      <component glyphName="O" x="0" y="0" flags="0x204"/>
      <component glyphName="tilde" x="309" y="430" flags="0x4"/>
    </TTGlyph>
    <TTGlyph name="P" xMin="147" yMin="0" xMax="1580" yMax="1434">
      <contour>
        <pt x="1580" y="834" on="1"/>
        <pt x="1580" y="745" on="0"/>
        <pt x="1536" y="605" on="0"/>
        <pt x="1461" y="498" on="0"/>
        <pt x="1363" y="422" on="0"/>
        <pt x="1256" y="374" on="0"/>
        <pt x="1147" y="352" on="0"/>
        <pt x="1099" y="352" on="1"/>
        <pt x="511" y="352" on="1"/>
        <pt x="511" y="612" on="1"/>
        <pt x="1099" y="612" on="1"/>
        <pt x="1149" y="616" on="0"/>
        <pt x="1230" y="649" on="0"/>
        <pt x="1288" y="705" on="0"/>
        <pt x="1320" y="784" on="0"/>
        <pt x="1320" y="834" on="1"/>
        <pt x="1320" y="952" on="1"/>
        <pt x="1315" y="1001" on="0"/>
        <pt x="1283" y="1083" on="0"/>
        <pt x="1228" y="1141" on="0"/>
        <pt x="1150" y="1174" on="0"/>
        <pt x="1099" y="1174" on="1"/>
        <pt x="513" y="1174" on="1"/>
        <pt x="461" y="1174" on="0"/>
        <pt x="407" y="1120" on="0"/>
        <pt x="407" y="1069" on="1"/>
        <pt x="407" y="0" on="1"/>
        <pt x="147" y="0" on="1"/>
        <pt x="147" y="1069" on="1"/>
        <pt x="147" y="1169" on="0"/>
        <pt x="220" y="1309" on="0"/>
        <pt x="329" y="1395" on="0"/>
        <pt x="457" y="1434" on="0"/>
        <pt x="511" y="1434" on="1"/>
        <pt x="1099" y="1434" on="1"/>
        <pt x="1187" y="1434" on="0"/>
        <pt x="1327" y="1389" on="0"/>
        <pt x="1434" y="1314" on="0"/>
        <pt x="1509" y="1216" on="0"/>
        <pt x="1558" y="1109" on="0"/>
        <pt x="1580" y="1000" on="0"/>
        <pt x="1580" y="952" on="1"/>
      </contour>
    </TTGlyph>
    <TTGlyph name="Q" xMin="106" yMin="-221" xMax="1656" yMax="1454">
      <contour>
        <pt x="1656" y="580" on="1"/>
        <pt x="1656" y="480" on="0"/>
        <pt x="1603" y="303" on="0"/>
        <pt x="1506" y="159" on="0"/>
        <pt x="1369" y="51" on="0"/>
        <pt x="1285" y="20" on="1"/>
        <pt x="1589" y="-221" on="1"/>
        <pt x="1212" y="-221" on="1"/>
        <pt x="962" y="-20" on="1"/>
        <pt x="706" y="-20" on="1"/>
        <pt x="577" y="-20" on="0"/>
        <pt x="357" y="69" on="0"/>
        <pt x="197" y="229" on="0"/>
        <pt x="106" y="449" on="0"/>
        <pt x="106" y="580" on="1"/>
        <pt x="106" y="854" on="1"/>
        <pt x="106" y="984" on="0"/>
        <pt x="197" y="1205" on="0"/>
        <pt x="357" y="1364" on="0"/>
        <pt x="577" y="1454" on="0"/>
        <pt x="706" y="1454" on="1"/>
        <pt x="1058" y="1454" on="1"/>
        <pt x="1187" y="1454" on="0"/>
        <pt x="1406" y="1364" on="0"/>
        <pt x="1566" y="1205" on="0"/>
        <pt x="1656" y="984" on="0"/>
        <pt x="1656" y="854" on="1"/>
      </contour>
      <contour>
        <pt x="1396" y="854" on="1"/>
        <pt x="1396" y="931" on="0"/>
        <pt x="1347" y="1056" on="0"/>
        <pt x="1258" y="1145" on="0"/>
        <pt x="1133" y="1194" on="0"/>
        <pt x="1058" y="1194" on="1"/>
        <pt x="706" y="1194" on="1"/>
        <pt x="630" y="1194" on="0"/>
        <pt x="505" y="1145" on="0"/>
        <pt x="415" y="1056" on="0"/>
        <pt x="366" y="931" on="0"/>
        <pt x="366" y="854" on="1"/>
        <pt x="366" y="580" on="1"/>
        <pt x="366" y="503" on="0"/>
        <pt x="415" y="378" on="0"/>
        <pt x="505" y="289" on="0"/>
        <pt x="630" y="240" on="0"/>
        <pt x="706" y="240" on="1"/>
        <pt x="1056" y="240" on="1"/>
        <pt x="1132" y="240" on="0"/>
        <pt x="1257" y="289" on="0"/>
        <pt x="1347" y="378" on="0"/>
        <pt x="1396" y="503" on="0"/>
        <pt x="1396" y="580" on="1"/>
      </contour>
    </TTGlyph>
    <TTGlyph name="R" xMin="151" yMin="0" xMax="1646" yMax="1434">
      <contour>
        <pt x="1584" y="952" on="1"/>
        <pt x="1584" y="863" on="0"/>
        <pt x="1540" y="723" on="0"/>
        <pt x="1465" y="616" on="0"/>
        <pt x="1367" y="540" on="0"/>
        <pt x="1260" y="491" on="0"/>
        <pt x="1151" y="469" on="0"/>
        <pt x="1103" y="469" on="1"/>
        <pt x="1646" y="0" on="1"/>
        <pt x="1244" y="0" on="1"/>
        <pt x="702" y="469" on="1"/>
        <pt x="515" y="469" on="1"/>
        <pt x="515" y="729" on="1"/>
        <pt x="1103" y="729" on="1"/>
        <pt x="1152" y="733" on="0"/>
        <pt x="1233" y="766" on="0"/>
        <pt x="1292" y="822" on="0"/>
        <pt x="1324" y="901" on="0"/>
        <pt x="1324" y="952" on="1"/>
        <pt x="1324" y="1116" on="1"/>
        <pt x="1324" y="1138" on="0"/>
        <pt x="1313" y="1161" on="0"/>
        <pt x="1296" y="1172" on="0"/>
        <pt x="1277" y="1174" on="0"/>
        <pt x="1269" y="1174" on="1"/>
        <pt x="411" y="1174" on="1"/>
        <pt x="411" y="0" on="1"/>
        <pt x="151" y="0" on="1"/>
        <pt x="151" y="1303" on="1"/>
        <pt x="151" y="1330" on="0"/>
        <pt x="171" y="1378" on="0"/>
        <pt x="206" y="1414" on="0"/>
        <pt x="254" y="1434" on="0"/>
        <pt x="282" y="1434" on="1"/>
        <pt x="1269" y="1434" on="1"/>
        <pt x="1356" y="1434" on="0"/>
        <pt x="1476" y="1371" on="0"/>
        <pt x="1551" y="1276" on="0"/>
        <pt x="1584" y="1166" on="0"/>
        <pt x="1584" y="1118" on="1"/>
      </contour>
    </TTGlyph>
    <TTGlyph name="Racute" xMin="151" yMin="0" xMax="1646" yMax="1939">
      <component glyphName="R" x="0" y="0" flags="0x204"/>
      <component glyphName="acute" x="414" y="350" flags="0x4"/>
    </TTGlyph>
    <TTGlyph name="Rcaron" xMin="151" yMin="0" xMax="1646" yMax="1923">
      <component glyphName="R" x="0" y="0" flags="0x204"/>
      <component glyphName="caron" x="276" y="350" flags="0x4"/>
    </TTGlyph>
    <TTGlyph name="Rcommaaccent" xMin="151" yMin="-582" xMax="1646" yMax="1434">
      <component glyphName="R" x="0" y="0" flags="0x204"/>
      <component glyphName="uni0326" x="670" y="0" flags="0x4"/>
    </TTGlyph>
    <TTGlyph name="S" xMin="96" yMin="0" xMax="1529" yMax="1434">
      <contour>
        <pt x="1529" y="422" on="1"/>
        <pt x="1529" y="345" on="0"/>
        <pt x="1490" y="222" on="0"/>
        <pt x="1426" y="128" on="0"/>
        <pt x="1340" y="62" on="0"/>
        <pt x="1248" y="20" on="0"/>
        <pt x="1153" y="0" on="0"/>
        <pt x="1111" y="0" on="1"/>
        <pt x="108" y="0" on="1"/>
        <pt x="108" y="260" on="1"/>
        <pt x="1111" y="260" on="1"/>
        <pt x="1186" y="260" on="0"/>
        <pt x="1269" y="348" on="0"/>
        <pt x="1269" y="422" on="1"/>
        <pt x="1269" y="458" on="0"/>
        <pt x="1247" y="518" on="0"/>
        <pt x="1206" y="562" on="0"/>
        <pt x="1147" y="586" on="0"/>
        <pt x="1111" y="586" on="1"/>
        <pt x="513" y="586" on="1"/>
        <pt x="450" y="586" on="0"/>
        <pt x="304" y="631" on="0"/>
        <pt x="179" y="731" on="0"/>
        <pt x="96" y="893" on="0"/>
        <pt x="96" y="1010" on="1"/>
        <pt x="96" y="1127" on="0"/>
        <pt x="179" y="1288" on="0"/>
        <pt x="304" y="1389" on="0"/>
        <pt x="450" y="1434" on="0"/>
        <pt x="513" y="1434" on="1"/>
        <pt x="1398" y="1434" on="1"/>
        <pt x="1398" y="1174" on="1"/>
        <pt x="513" y="1174" on="1"/>
        <pt x="439" y="1174" on="0"/>
        <pt x="356" y="1084" on="0"/>
        <pt x="356" y="1010" on="1"/>
        <pt x="356" y="935" on="0"/>
        <pt x="439" y="848" on="0"/>
        <pt x="513" y="848" on="1"/>
        <pt x="1111" y="848" on="1"/>
        <pt x="1113" y="848" on="1"/>
        <pt x="1155" y="847" on="0"/>
        <pt x="1249" y="826" on="0"/>
        <pt x="1342" y="782" on="0"/>
        <pt x="1426" y="715" on="0"/>
        <pt x="1491" y="621" on="0"/>
        <pt x="1529" y="499" on="0"/>
      </contour>
    </TTGlyph>
    <TTGlyph name="Sacute" xMin="96" yMin="0" xMax="1529" yMax="1939">
      <component glyphName="S" x="0" y="0" flags="0x204"/>
      <component glyphName="acute" x="408" y="350" flags="0x4"/>
    </TTGlyph>
    <TTGlyph name="Scaron" xMin="96" yMin="0" xMax="1529" yMax="1983">
      <component glyphName="S" x="0" y="0" flags="0x204"/>
      <component glyphName="caron" x="242" y="410" flags="0x4"/>
    </TTGlyph>
    <TTGlyph name="Scedilla" xMin="96" yMin="-453" xMax="1529" yMax="1434">
      <contour>
        <pt x="1529" y="422" on="1"/>
        <pt x="1529" y="345" on="0"/>
        <pt x="1490" y="222" on="0"/>
        <pt x="1426" y="128" on="0"/>
        <pt x="1340" y="62" on="0"/>
        <pt x="1248" y="20" on="0"/>
        <pt x="1153" y="0" on="0"/>
        <pt x="1111" y="0" on="1"/>
        <pt x="882" y="0" on="1"/>
        <pt x="855" y="-70" on="1"/>
        <pt x="884" y="-70" on="0"/>
        <pt x="957" y="-84" on="0"/>
        <pt x="1022" y="-123" on="0"/>
        <pt x="1066" y="-193" on="0"/>
        <pt x="1066" y="-250" on="1"/>
        <pt x="1066" y="-307" on="0"/>
        <pt x="1009" y="-385" on="0"/>
        <pt x="918" y="-433" on="0"/>
        <pt x="805" y="-453" on="0"/>
        <pt x="749" y="-453" on="1"/>
        <pt x="698" y="-453" on="0"/>
        <pt x="630" y="-448" on="0"/>
        <pt x="582" y="-441" on="0"/>
        <pt x="545" y="-433" on="0"/>
        <pt x="526" y="-430" on="1"/>
        <pt x="526" y="-254" on="1"/>
        <pt x="566" y="-273" on="0"/>
        <pt x="671" y="-299" on="0"/>
        <pt x="726" y="-299" on="1"/>
        <pt x="783" y="-299" on="0"/>
        <pt x="859" y="-276" on="0"/>
        <pt x="859" y="-248" on="1"/>
        <pt x="859" y="-232" on="0"/>
        <pt x="835" y="-212" on="0"/>
        <pt x="799" y="-201" on="0"/>
        <pt x="759" y="-197" on="0"/>
        <pt x="743" y="-197" on="1"/>
        <pt x="720" y="-197" on="0"/>
        <pt x="668" y="-203" on="0"/>
        <pt x="648" y="-209" on="1"/>
        <pt x="726" y="0" on="1"/>
        <pt x="108" y="0" on="1"/>
        <pt x="108" y="260" on="1"/>
        <pt x="1111" y="260" on="1"/>
        <pt x="1186" y="260" on="0"/>
        <pt x="1269" y="348" on="0"/>
        <pt x="1269" y="422" on="1"/>
        <pt x="1269" y="458" on="0"/>
        <pt x="1247" y="518" on="0"/>
        <pt x="1206" y="562" on="0"/>
        <pt x="1147" y="586" on="0"/>
        <pt x="1111" y="586" on="1"/>
        <pt x="513" y="586" on="1"/>
        <pt x="450" y="586" on="0"/>
        <pt x="304" y="631" on="0"/>
        <pt x="179" y="731" on="0"/>
        <pt x="96" y="893" on="0"/>
        <pt x="96" y="1010" on="1"/>
        <pt x="96" y="1127" on="0"/>
        <pt x="179" y="1288" on="0"/>
        <pt x="304" y="1389" on="0"/>
        <pt x="450" y="1434" on="0"/>
        <pt x="513" y="1434" on="1"/>
        <pt x="1398" y="1434" on="1"/>
        <pt x="1398" y="1174" on="1"/>
        <pt x="513" y="1174" on="1"/>
        <pt x="439" y="1174" on="0"/>
        <pt x="356" y="1084" on="0"/>
        <pt x="356" y="1010" on="1"/>
        <pt x="356" y="935" on="0"/>
        <pt x="439" y="848" on="0"/>
        <pt x="513" y="848" on="1"/>
        <pt x="1113" y="848" on="1"/>
        <pt x="1155" y="847" on="0"/>
        <pt x="1249" y="826" on="0"/>
        <pt x="1342" y="782" on="0"/>
        <pt x="1426" y="715" on="0"/>
        <pt x="1491" y="621" on="0"/>
        <pt x="1529" y="499" on="0"/>
      </contour>
    </TTGlyph>
    <TTGlyph name="Scircumflex" xMin="96" yMin="0" xMax="1529" yMax="1943">
      <component glyphName="S" x="0" y="0" flags="0x204"/>
      <component glyphName="circumflex" x="225" y="350" flags="0x4"/>
    </TTGlyph>
    <TTGlyph name="T" xMin="40" yMin="0" xMax="1447" yMax="1434">
      <contour>
        <pt x="1447" y="1174" on="1"/>
        <pt x="874" y="1174" on="1"/>
        <pt x="874" y="0" on="1"/>
        <pt x="614" y="0" on="1"/>
        <pt x="614" y="1174" on="1"/>
        <pt x="40" y="1174" on="1"/>
        <pt x="40" y="1434" on="1"/>
        <pt x="1447" y="1434" on="1"/>
      </contour>
    </TTGlyph>
    <TTGlyph name="Tbar" xMin="40" yMin="0" xMax="1447" yMax="1434">
      <contour>
        <pt x="1152" y="500" on="1"/>
        <pt x="874" y="500" on="1"/>
        <pt x="874" y="0" on="1"/>
        <pt x="614" y="0" on="1"/>
        <pt x="614" y="500" on="1"/>
        <pt x="333" y="500" on="1"/>
        <pt x="333" y="733" on="1"/>
        <pt x="614" y="733" on="1"/>
        <pt x="614" y="1174" on="1"/>
        <pt x="40" y="1174" on="1"/>
        <pt x="40" y="1434" on="1"/>
        <pt x="1447" y="1434" on="1"/>
        <pt x="1447" y="1174" on="1"/>
        <pt x="874" y="1174" on="1"/>
        <pt x="874" y="733" on="1"/>
        <pt x="1152" y="733" on="1"/>
      </contour>
    </TTGlyph>
    <TTGlyph name="Tcaron" xMin="40" yMin="0" xMax="1447" yMax="1923">
      <component glyphName="T" x="0" y="0" flags="0x204"/>
      <component glyphName="caron" x="172" y="350" flags="0x4"/>
    </TTGlyph>
    <TTGlyph name="Tcommaaccent" xMin="40" yMin="-582" xMax="1447" yMax="1434">
      <component glyphName="T" x="0" y="0" flags="0x204"/>
      <component glyphName="uni0326" x="524" y="0" flags="0x4"/>
    </TTGlyph>
    <TTGlyph name="Thorn" xMin="153" yMin="-104" xMax="1586" yMax="1550">
      <contour>
        <pt x="413" y="1235" on="1"/>
        <pt x="439" y="1243" on="0"/>
        <pt x="493" y="1251" on="0"/>
        <pt x="517" y="1251" on="1"/>
        <pt x="1105" y="1251" on="1"/>
        <pt x="1193" y="1251" on="0"/>
        <pt x="1333" y="1207" on="0"/>
        <pt x="1440" y="1132" on="0"/>
        <pt x="1515" y="1034" on="0"/>
        <pt x="1564" y="926" on="0"/>
        <pt x="1586" y="817" on="0"/>
        <pt x="1586" y="768" on="1"/>
        <pt x="1586" y="651" on="1"/>
        <pt x="1586" y="562" on="0"/>
        <pt x="1542" y="422" on="0"/>
        <pt x="1467" y="316" on="0"/>
        <pt x="1369" y="240" on="0"/>
        <pt x="1262" y="192" on="0"/>
        <pt x="1153" y="170" on="0"/>
        <pt x="1105" y="170" on="1"/>
        <pt x="517" y="170" on="1"/>
        <pt x="517" y="430" on="1"/>
        <pt x="1105" y="430" on="1"/>
        <pt x="1155" y="434" on="0"/>
        <pt x="1236" y="466" on="0"/>
        <pt x="1294" y="522" on="0"/>
        <pt x="1326" y="601" on="0"/>
        <pt x="1326" y="651" on="1"/>
        <pt x="1326" y="768" on="1"/>
        <pt x="1326" y="817" on="0"/>
        <pt x="1295" y="899" on="0"/>
        <pt x="1238" y="958" on="0"/>
        <pt x="1156" y="991" on="0"/>
        <pt x="1105" y="991" on="1"/>
        <pt x="519" y="991" on="1"/>
        <pt x="468" y="991" on="0"/>
        <pt x="415" y="940" on="0"/>
        <pt x="413" y="895" on="1"/>
        <pt x="413" y="-104" on="1"/>
        <pt x="153" y="-104" on="1"/>
        <pt x="153" y="1550" on="1"/>
        <pt x="413" y="1550" on="1"/>
      </contour>
    </TTGlyph>
    <TTGlyph name="U" xMin="122" yMin="0" xMax="1556" yMax="1434">
      <contour>
        <pt x="1556" y="131" on="1"/>
        <pt x="1556" y="103" on="0"/>
        <pt x="1536" y="55" on="0"/>
        <pt x="1500" y="20" on="0"/>
        <pt x="1452" y="0" on="0"/>
        <pt x="1425" y="0" on="1"/>
        <pt x="839" y="0" on="1"/>
        <pt x="756" y="0" on="0"/>
        <pt x="586" y="36" on="0"/>
        <pt x="427" y="111" on="0"/>
        <pt x="287" y="227" on="0"/>
        <pt x="182" y="386" on="0"/>
        <pt x="122" y="591" on="0"/>
        <pt x="122" y="717" on="1"/>
        <pt x="122" y="1434" on="1"/>
        <pt x="382" y="1434" on="1"/>
        <pt x="382" y="717" on="1"/>
        <pt x="382" y="607" on="0"/>
        <pt x="443" y="455" on="0"/>
        <pt x="537" y="353" on="0"/>
        <pt x="649" y="295" on="0"/>
        <pt x="750" y="267" on="0"/>
        <pt x="827" y="260" on="0"/>
        <pt x="839" y="260" on="1"/>
        <pt x="1296" y="260" on="1"/>
        <pt x="1296" y="1434" on="1"/>
        <pt x="1556" y="1434" on="1"/>
      </contour>
    </TTGlyph>
    <TTGlyph name="Uacute" xMin="122" yMin="0" xMax="1556" yMax="1917">
      <component glyphName="U" x="0" y="0" flags="0x204"/>
      <component glyphName="acute" x="403" y="328" flags="0x4"/>
    </TTGlyph>
    <TTGlyph name="Ubreve" xMin="122" yMin="0" xMax="1556" yMax="1902">
      <component glyphName="U" x="0" y="0" flags="0x204"/>
      <component glyphName="breve" x="283" y="350" flags="0x4"/>
    </TTGlyph>
    <TTGlyph name="Ucircumflex" xMin="122" yMin="0" xMax="1556" yMax="2003">
      <component glyphName="U" x="0" y="0" flags="0x204"/>
      <component glyphName="circumflex" x="268" y="410" flags="0x4"/>
    </TTGlyph>
    <TTGlyph name="Udieresis" xMin="122" yMin="0" xMax="1556" yMax="1786">
      <component glyphName="U" x="0" y="0" flags="0x204"/>
      <component glyphName="dieresis" x="268" y="342" flags="0x4"/>
    </TTGlyph>
    <TTGlyph name="Ugrave" xMin="122" yMin="0" xMax="1556" yMax="1917">
      <component glyphName="U" x="0" y="0" flags="0x204"/>
      <component glyphName="grave" x="152" y="328" flags="0x4"/>
    </TTGlyph>
    <TTGlyph name="Uhungarumlaut" xMin="122" yMin="0" xMax="1556" yMax="1888">
      <component glyphName="U" x="0" y="0" flags="0x204"/>
      <component glyphName="hungarumlaut" x="340" y="350" flags="0x4"/>
    </TTGlyph>
    <TTGlyph name="Umacron" xMin="122" yMin="0" xMax="1556" yMax="1786">
      <component glyphName="U" x="0" y="0" flags="0x204"/>
      <component glyphName="macron" x="283" y="350" flags="0x4"/>
    </TTGlyph>
    <TTGlyph name="Uogonek" xMin="122" yMin="-434" xMax="1556" yMax="1434">
      <contour>
        <pt x="1556" y="131" on="1"/>
        <pt x="1556" y="103" on="0"/>
        <pt x="1536" y="55" on="0"/>
        <pt x="1500" y="20" on="0"/>
        <pt x="1452" y="0" on="0"/>
        <pt x="1425" y="0" on="1"/>
        <pt x="1337" y="0" on="1"/>
        <pt x="1286" y="-42" on="0"/>
        <pt x="1228" y="-141" on="0"/>
        <pt x="1228" y="-186" on="1"/>
        <pt x="1228" y="-224" on="0"/>
        <pt x="1280" y="-254" on="0"/>
        <pt x="1337" y="-254" on="1"/>
        <pt x="1362" y="-254" on="0"/>
        <pt x="1423" y="-244" on="0"/>
        <pt x="1483" y="-228" on="0"/>
        <pt x="1538" y="-211" on="0"/>
        <pt x="1556" y="-203" on="1"/>
        <pt x="1556" y="-389" on="1"/>
        <pt x="1538" y="-394" on="0"/>
        <pt x="1487" y="-410" on="0"/>
        <pt x="1418" y="-424" on="0"/>
        <pt x="1330" y="-434" on="0"/>
        <pt x="1275" y="-434" on="1"/>
        <pt x="1221" y="-434" on="0"/>
        <pt x="1127" y="-414" on="0"/>
        <pt x="1056" y="-370" on="0"/>
        <pt x="1015" y="-298" on="0"/>
        <pt x="1015" y="-246" on="1"/>
        <pt x="1015" y="-219" on="0"/>
        <pt x="1028" y="-154" on="0"/>
        <pt x="1058" y="-88" on="0"/>
        <pt x="1105" y="-25" on="0"/>
        <pt x="1140" y="0" on="1"/>
        <pt x="839" y="0" on="1"/>
        <pt x="756" y="0" on="0"/>
        <pt x="586" y="36" on="0"/>
        <pt x="427" y="111" on="0"/>
        <pt x="287" y="227" on="0"/>
        <pt x="182" y="386" on="0"/>
        <pt x="122" y="591" on="0"/>
        <pt x="122" y="717" on="1"/>
        <pt x="122" y="1434" on="1"/>
        <pt x="382" y="1434" on="1"/>
        <pt x="382" y="717" on="1"/>
        <pt x="382" y="607" on="0"/>
        <pt x="443" y="455" on="0"/>
        <pt x="537" y="353" on="0"/>
        <pt x="649" y="295" on="0"/>
        <pt x="750" y="267" on="0"/>
        <pt x="827" y="260" on="0"/>
        <pt x="839" y="260" on="1"/>
        <pt x="1296" y="260" on="1"/>
        <pt x="1296" y="1434" on="1"/>
        <pt x="1556" y="1434" on="1"/>
      </contour>
    </TTGlyph>
    <TTGlyph name="Uring" xMin="122" yMin="0" xMax="1556" yMax="1943">
      <component glyphName="U" x="0" y="0" flags="0x204"/>
      <component glyphName="ring" x="283" y="350" flags="0x4"/>
    </TTGlyph>
    <TTGlyph name="Utilde" xMin="122" yMin="0" xMax="1556" yMax="1861">
      <component glyphName="U" x="0" y="0" flags="0x204"/>
      <component glyphName="tilde" x="283" y="350" flags="0x4"/>
    </TTGlyph>
    <TTGlyph name="V" xMin="-5" yMin="-20" xMax="1586" yMax="1434">
      <contour>
        <pt x="1586" y="1434" on="1"/>
        <pt x="907" y="51" on="1"/>
        <pt x="891" y="19" on="0"/>
        <pt x="828" y="-20" on="0"/>
        <pt x="790" y="-20" on="1"/>
        <pt x="753" y="-20" on="0"/>
        <pt x="690" y="19" on="0"/>
        <pt x="673" y="51" on="1"/>
        <pt x="-5" y="1434" on="1"/>
        <pt x="286" y="1434" on="1"/>
        <pt x="790" y="401" on="1"/>
        <pt x="1296" y="1434" on="1"/>
      </contour>
    </TTGlyph>
    <TTGlyph name="W" xMin="71" yMin="-23" xMax="1982" yMax="1434">
      <contour>
        <pt x="1982" y="1434" on="1"/>
        <pt x="1742" y="90" on="1"/>
        <pt x="1734" y="50" on="0"/>
        <pt x="1678" y="-8" on="0"/>
        <pt x="1638" y="-16" on="1"/>
        <pt x="1597" y="-23" on="0"/>
        <pt x="1524" y="9" on="0"/>
        <pt x="1503" y="43" on="1"/>
        <pt x="1027" y="825" on="1"/>
        <pt x="550" y="43" on="1"/>
        <pt x="533" y="14" on="0"/>
        <pt x="474" y="-18" on="0"/>
        <pt x="440" y="-18" on="1"/>
        <pt x="393" y="-18" on="0"/>
        <pt x="321" y="42" on="0"/>
        <pt x="313" y="90" on="1"/>
        <pt x="71" y="1434" on="1"/>
        <pt x="335" y="1434" on="1"/>
        <pt x="507" y="487" on="1"/>
        <pt x="917" y="1141" on="1"/>
        <pt x="934" y="1170" on="0"/>
        <pt x="993" y="1202" on="0"/>
        <pt x="1027" y="1202" on="1"/>
        <pt x="1061" y="1202" on="0"/>
        <pt x="1119" y="1170" on="0"/>
        <pt x="1138" y="1141" on="1"/>
        <pt x="1546" y="487" on="1"/>
        <pt x="1718" y="1434" on="1"/>
      </contour>
    </TTGlyph>
    <TTGlyph name="Wacute" xMin="71" yMin="-23" xMax="1982" yMax="1939">
      <component glyphName="W" x="0" y="0" flags="0x204"/>
      <component glyphName="acute" x="602" y="350" flags="0x4"/>
    </TTGlyph>
    <TTGlyph name="Wcircumflex" xMin="71" yMin="-23" xMax="1982" yMax="1943">
      <component glyphName="W" x="0" y="0" flags="0x204"/>
      <component glyphName="circumflex" x="455" y="350" flags="0x4"/>
    </TTGlyph>
    <TTGlyph name="Wdieresis" xMin="71" yMin="-23" xMax="1982" yMax="1794">
      <component glyphName="W" x="0" y="0" flags="0x204"/>
      <component glyphName="dieresis" x="455" y="350" flags="0x4"/>
    </TTGlyph>
    <TTGlyph name="Wgrave" xMin="71" yMin="-23" xMax="1982" yMax="1939">
      <component glyphName="W" x="0" y="0" flags="0x204"/>
      <component glyphName="grave" x="309" y="350" flags="0x4"/>
    </TTGlyph>
    <TTGlyph name="X" xMin="16" yMin="0" xMax="1599" yMax="1434">
      <contour>
        <pt x="806" y="922" on="1"/>
        <pt x="1244" y="1434" on="1"/>
        <pt x="1599" y="1434" on="1"/>
        <pt x="982" y="715" on="1"/>
        <pt x="1595" y="0" on="1"/>
        <pt x="1242" y="0" on="1"/>
        <pt x="806" y="508" on="1"/>
        <pt x="372" y="0" on="1"/>
        <pt x="18" y="0" on="1"/>
        <pt x="630" y="715" on="1"/>
        <pt x="16" y="1434" on="1"/>
        <pt x="368" y="1434" on="1"/>
      </contour>
    </TTGlyph>
    <TTGlyph name="Y" xMin="83" yMin="0" xMax="1517" yMax="1434">
      <contour>
        <pt x="1517" y="954" on="1"/>
        <pt x="1517" y="865" on="0"/>
        <pt x="1472" y="725" on="0"/>
        <pt x="1398" y="618" on="0"/>
        <pt x="1299" y="542" on="0"/>
        <pt x="1193" y="493" on="0"/>
        <pt x="1084" y="471" on="0"/>
        <pt x="1036" y="471" on="1"/>
        <pt x="931" y="471" on="1"/>
        <pt x="931" y="0" on="1"/>
        <pt x="669" y="0" on="1"/>
        <pt x="669" y="471" on="1"/>
        <pt x="565" y="471" on="1"/>
        <pt x="517" y="471" on="0"/>
        <pt x="408" y="493" on="0"/>
        <pt x="301" y="542" on="0"/>
        <pt x="203" y="618" on="0"/>
        <pt x="128" y="725" on="0"/>
        <pt x="83" y="866" on="0"/>
        <pt x="83" y="954" on="1"/>
        <pt x="83" y="1434" on="1"/>
        <pt x="343" y="1434" on="1"/>
        <pt x="343" y="954" on="1"/>
        <pt x="343" y="903" on="0"/>
        <pt x="375" y="822" on="0"/>
        <pt x="433" y="764" on="0"/>
        <pt x="516" y="733" on="0"/>
        <pt x="567" y="733" on="1"/>
        <pt x="1036" y="733" on="1"/>
        <pt x="1073" y="739" on="0"/>
        <pt x="1151" y="758" on="0"/>
        <pt x="1215" y="804" on="0"/>
        <pt x="1257" y="886" on="0"/>
        <pt x="1257" y="954" on="1"/>
        <pt x="1257" y="1434" on="1"/>
        <pt x="1517" y="1434" on="1"/>
      </contour>
    </TTGlyph>
    <TTGlyph name="Yacute" xMin="83" yMin="0" xMax="1517" yMax="1855">
      <component glyphName="Y" x="0" y="0" flags="0x204"/>
      <component glyphName="acute" x="446" y="266" flags="0x4"/>
    </TTGlyph>
    <TTGlyph name="Ycircumflex" xMin="83" yMin="0" xMax="1517" yMax="1943">
      <component glyphName="Y" x="0" y="0" flags="0x204"/>
      <component glyphName="circumflex" x="229" y="350" flags="0x4"/>
    </TTGlyph>
    <TTGlyph name="Ydieresis" xMin="83" yMin="0" xMax="1517" yMax="1854">
      <component glyphName="Y" x="0" y="0" flags="0x204"/>
      <component glyphName="dieresis" x="229" y="410" flags="0x4"/>
    </TTGlyph>
    <TTGlyph name="Ygrave" xMin="83" yMin="0" xMax="1517" yMax="1939">
      <component glyphName="Y" x="0" y="0" flags="0x204"/>
      <component glyphName="grave" x="74" y="350" flags="0x4"/>
    </TTGlyph>
    <TTGlyph name="Z" xMin="68" yMin="0" xMax="1393" yMax="1434">
      <contour>
        <pt x="1378" y="1356" on="1"/>
        <pt x="1393" y="1321" on="0"/>
        <pt x="1381" y="1244" on="0"/>
        <pt x="1355" y="1217" on="1"/>
        <pt x="497" y="260" on="1"/>
        <pt x="1376" y="260" on="1"/>
        <pt x="1376" y="0" on="1"/>
        <pt x="204" y="0" on="1"/>
        <pt x="166" y="0" on="0"/>
        <pt x="101" y="43" on="0"/>
        <pt x="85" y="78" on="1"/>
        <pt x="68" y="113" on="0"/>
        <pt x="81" y="189" on="0"/>
        <pt x="106" y="217" on="1"/>
        <pt x="966" y="1174" on="1"/>
        <pt x="85" y="1174" on="1"/>
        <pt x="85" y="1434" on="1"/>
        <pt x="1259" y="1434" on="1"/>
        <pt x="1297" y="1434" on="0"/>
        <pt x="1362" y="1391" on="0"/>
      </contour>
    </TTGlyph>
    <TTGlyph name="Zacute" xMin="68" yMin="0" xMax="1393" yMax="1939">
      <component glyphName="Z" x="0" y="0" flags="0x204"/>
      <component glyphName="acute" x="313" y="350" flags="0x4"/>
    </TTGlyph>
    <TTGlyph name="Zcaron" xMin="68" yMin="0" xMax="1393" yMax="1983">
      <component glyphName="Z" x="0" y="0" flags="0x204"/>
      <component glyphName="caron" x="160" y="410" flags="0x4"/>
    </TTGlyph>
    <TTGlyph name="Zdotaccent" xMin="68" yMin="0" xMax="1393" yMax="1794">
      <component glyphName="Z" x="0" y="0" flags="0x204"/>
      <component glyphName="dotaccent" x="160" y="350" flags="0x4"/>
    </TTGlyph>
    <TTGlyph name="a" xMin="53" yMin="0" xMax="1238" yMax="1081">
      <contour>
        <pt x="1238" y="358" on="1"/>
        <pt x="1238" y="304" on="0"/>
        <pt x="1200" y="179" on="0"/>
        <pt x="1115" y="72" on="0"/>
        <pt x="978" y="0" on="0"/>
        <pt x="880" y="0" on="1"/>
        <pt x="411" y="0" on="1"/>
        <pt x="357" y="0" on="0"/>
        <pt x="232" y="38" on="0"/>
        <pt x="125" y="123" on="0"/>
        <pt x="53" y="260" on="0"/>
        <pt x="53" y="358" on="1"/>
        <pt x="53" y="412" on="0"/>
        <pt x="91" y="538" on="0"/>
        <pt x="176" y="645" on="0"/>
        <pt x="313" y="717" on="0"/>
        <pt x="411" y="717" on="1"/>
        <pt x="880" y="717" on="1"/>
        <pt x="880" y="469" on="1"/>
        <pt x="411" y="469" on="1"/>
        <pt x="358" y="469" on="0"/>
        <pt x="300" y="404" on="0"/>
        <pt x="300" y="356" on="1"/>
        <pt x="300" y="305" on="0"/>
        <pt x="367" y="248" on="0"/>
        <pt x="413" y="248" on="1"/>
        <pt x="880" y="248" on="1"/>
        <pt x="933" y="248" on="0"/>
        <pt x="991" y="312" on="0"/>
        <pt x="991" y="360" on="1"/>
        <pt x="991" y="723" on="1"/>
        <pt x="991" y="774" on="0"/>
        <pt x="928" y="834" on="0"/>
        <pt x="880" y="834" on="1"/>
        <pt x="309" y="834" on="1"/>
        <pt x="309" y="1081" on="1"/>
        <pt x="880" y="1081" on="1"/>
        <pt x="934" y="1081" on="0"/>
        <pt x="1059" y="1043" on="0"/>
        <pt x="1166" y="958" on="0"/>
        <pt x="1238" y="821" on="0"/>
        <pt x="1238" y="723" on="1"/>
      </contour>
    </TTGlyph>
    <TTGlyph name="aacute" xMin="53" yMin="0" xMax="1238" yMax="1650">
      <component glyphName="a" x="0" y="0" flags="0x204"/>
      <component glyphName="acute" x="262" y="61" flags="0x4"/>
    </TTGlyph>
    <TTGlyph name="abreve" xMin="53" yMin="0" xMax="1238" yMax="1552">
      <component glyphName="a" x="0" y="0" flags="0x204"/>
      <component glyphName="breve" x="98" y="0" flags="0x4"/>
    </TTGlyph>
    <TTGlyph name="acircumflex" xMin="53" yMin="0" xMax="1238" yMax="1654">
      <component glyphName="a" x="0" y="0" flags="0x204"/>
      <component glyphName="circumflex" x="74" y="61" flags="0x4"/>
    </TTGlyph>
    <TTGlyph name="acute" xMin="354" yMin="1159" xMax="945" yMax="1589">
      <contour>
        <pt x="945" y="1346" on="1"/>
        <pt x="423" y="1159" on="1"/>
        <pt x="354" y="1309" on="1"/>
        <pt x="835" y="1589" on="1"/>
      </contour>
    </TTGlyph>
    <TTGlyph name="adieresis" xMin="53" yMin="0" xMax="1238" yMax="1505">
      <component glyphName="a" x="0" y="0" flags="0x204"/>
      <component glyphName="dieresis" x="74" y="61" flags="0x4"/>
    </TTGlyph>
    <TTGlyph name="ae" xMin="53" yMin="0" xMax="2176" yMax="1081">
      <contour>
        <pt x="2176" y="723" on="1"/>
        <pt x="2176" y="669" on="0"/>
        <pt x="2138" y="544" on="0"/>
        <pt x="2053" y="437" on="0"/>
        <pt x="1916" y="365" on="0"/>
        <pt x="1818" y="365" on="1"/>
        <pt x="1349" y="365" on="1"/>
        <pt x="1349" y="612" on="1"/>
        <pt x="1818" y="612" on="1"/>
        <pt x="1871" y="612" on="0"/>
        <pt x="1928" y="677" on="0"/>
        <pt x="1928" y="725" on="1"/>
        <pt x="1928" y="776" on="0"/>
        <pt x="1864" y="834" on="0"/>
        <pt x="1818" y="834" on="1"/>
        <pt x="1349" y="834" on="1"/>
        <pt x="1296" y="834" on="0"/>
        <pt x="1238" y="769" on="0"/>
        <pt x="1238" y="723" on="1"/>
        <pt x="1238" y="358" on="1"/>
        <pt x="1238" y="348" on="1"/>
        <pt x="1241" y="300" on="0"/>
        <pt x="1305" y="248" on="0"/>
        <pt x="1351" y="248" on="1"/>
        <pt x="1818" y="248" on="1"/>
        <pt x="1818" y="0" on="1"/>
        <pt x="1349" y="0" on="1"/>
        <pt x="1295" y="0" on="0"/>
        <pt x="1169" y="39" on="0"/>
        <pt x="1115" y="82" on="1"/>
        <pt x="1072" y="45" on="0"/>
        <pt x="957" y="0" on="0"/>
        <pt x="880" y="0" on="1"/>
        <pt x="411" y="0" on="1"/>
        <pt x="357" y="0" on="0"/>
        <pt x="232" y="38" on="0"/>
        <pt x="125" y="123" on="0"/>
        <pt x="53" y="260" on="0"/>
        <pt x="53" y="358" on="1"/>
        <pt x="53" y="412" on="0"/>
        <pt x="91" y="538" on="0"/>
        <pt x="176" y="645" on="0"/>
        <pt x="313" y="717" on="0"/>
        <pt x="411" y="717" on="1"/>
        <pt x="880" y="717" on="1"/>
        <pt x="880" y="469" on="1"/>
        <pt x="411" y="469" on="1"/>
        <pt x="358" y="469" on="0"/>
        <pt x="300" y="404" on="0"/>
        <pt x="300" y="356" on="1"/>
        <pt x="300" y="305" on="0"/>
        <pt x="367" y="248" on="0"/>
        <pt x="413" y="248" on="1"/>
        <pt x="880" y="248" on="1"/>
        <pt x="933" y="248" on="0"/>
        <pt x="991" y="312" on="0"/>
        <pt x="991" y="360" on="1"/>
        <pt x="991" y="723" on="1"/>
        <pt x="991" y="774" on="0"/>
        <pt x="928" y="834" on="0"/>
        <pt x="880" y="834" on="1"/>
        <pt x="309" y="834" on="1"/>
        <pt x="309" y="1081" on="1"/>
        <pt x="880" y="1081" on="1"/>
        <pt x="934" y="1081" on="0"/>
        <pt x="1059" y="1043" on="0"/>
        <pt x="1113" y="999" on="1"/>
        <pt x="1155" y="1037" on="0"/>
        <pt x="1272" y="1081" on="0"/>
        <pt x="1349" y="1081" on="1"/>
        <pt x="1818" y="1081" on="1"/>
        <pt x="1872" y="1081" on="0"/>
        <pt x="1997" y="1043" on="0"/>
        <pt x="2104" y="958" on="0"/>
        <pt x="2176" y="821" on="0"/>
      </contour>
    </TTGlyph>
    <TTGlyph name="aeacute" xMin="53" yMin="0" xMax="2176" yMax="1589">
      <component glyphName="ae" x="0" y="0" flags="0x204"/>
      <component glyphName="acute" x="692" y="0" flags="0x4"/>
    </TTGlyph>
    <TTGlyph name="agrave" xMin="53" yMin="0" xMax="1238" yMax="1650">
      <component glyphName="a" x="0" y="0" flags="0x204"/>
      <component glyphName="grave" x="-85" y="61" flags="0x4"/>
    </TTGlyph>
    <TTGlyph name="amacron" xMin="53" yMin="0" xMax="1238" yMax="1436">
      <component glyphName="a" x="0" y="0" flags="0x204"/>
      <component glyphName="macron" x="98" y="0" flags="0x4"/>
    </TTGlyph>
    <TTGlyph name="ampersand" xMin="124" yMin="12" xMax="1298" yMax="1303">
      <contour>
        <pt x="1298" y="365" on="1"/>
        <pt x="1181" y="365" on="1"/>
        <pt x="1179" y="362" on="1"/>
        <pt x="1179" y="298" on="0"/>
        <pt x="1146" y="196" on="0"/>
        <pt x="1092" y="119" on="0"/>
        <pt x="1020" y="63" on="0"/>
        <pt x="943" y="28" on="0"/>
        <pt x="864" y="12" on="0"/>
        <pt x="829" y="12" on="1"/>
        <pt x="476" y="12" on="1"/>
        <pt x="383" y="12" on="0"/>
        <pt x="252" y="82" on="0"/>
        <pt x="167" y="186" on="0"/>
        <pt x="126" y="308" on="0"/>
        <pt x="124" y="360" on="1"/>
        <pt x="124" y="481" on="1"/>
        <pt x="124" y="560" on="0"/>
        <pt x="169" y="675" on="0"/>
        <pt x="206" y="717" on="1"/>
        <pt x="163" y="771" on="0"/>
        <pt x="124" y="897" on="0"/>
        <pt x="124" y="952" on="1"/>
        <pt x="124" y="1049" on="0"/>
        <pt x="194" y="1183" on="0"/>
        <pt x="300" y="1266" on="0"/>
        <pt x="423" y="1303" on="0"/>
        <pt x="476" y="1303" on="1"/>
        <pt x="1062" y="1303" on="1"/>
        <pt x="1062" y="1069" on="1"/>
        <pt x="476" y="1069" on="1"/>
        <pt x="449" y="1069" on="0"/>
        <pt x="406" y="1052" on="0"/>
        <pt x="375" y="1020" on="0"/>
        <pt x="359" y="977" on="0"/>
        <pt x="360" y="952" on="1"/>
        <pt x="360" y="895" on="0"/>
        <pt x="424" y="834" on="0"/>
        <pt x="476" y="834" on="1"/>
        <pt x="829" y="834" on="1"/>
        <pt x="829" y="600" on="1"/>
        <pt x="476" y="600" on="1"/>
        <pt x="421" y="600" on="0"/>
        <pt x="360" y="532" on="0"/>
        <pt x="360" y="481" on="1"/>
        <pt x="360" y="369" on="1"/>
        <pt x="360" y="315" on="0"/>
        <pt x="425" y="248" on="0"/>
        <pt x="476" y="248" on="1"/>
        <pt x="827" y="248" on="1"/>
        <pt x="882" y="248" on="0"/>
        <pt x="945" y="314" on="0"/>
        <pt x="945" y="365" on="1"/>
        <pt x="945" y="408" on="0"/>
        <pt x="975" y="492" on="0"/>
        <pt x="1035" y="559" on="0"/>
        <pt x="1122" y="600" on="0"/>
        <pt x="1179" y="600" on="1"/>
        <pt x="1298" y="600" on="1"/>
      </contour>
    </TTGlyph>
    <TTGlyph name="aogonek" xMin="53" yMin="-434" xMax="1238" yMax="1081">
      <contour>
        <pt x="1238" y="358" on="1"/>
        <pt x="1238" y="305" on="0"/>
        <pt x="1201" y="182" on="0"/>
        <pt x="1118" y="75" on="0"/>
        <pt x="985" y="2" on="0"/>
        <pt x="890" y="0" on="1"/>
        <pt x="839" y="-42" on="0"/>
        <pt x="782" y="-141" on="0"/>
        <pt x="782" y="-186" on="1"/>
        <pt x="782" y="-224" on="0"/>
        <pt x="833" y="-254" on="0"/>
        <pt x="890" y="-254" on="1"/>
        <pt x="915" y="-254" on="0"/>
        <pt x="977" y="-244" on="0"/>
        <pt x="1037" y="-228" on="0"/>
        <pt x="1091" y="-211" on="0"/>
        <pt x="1109" y="-203" on="1"/>
        <pt x="1109" y="-389" on="1"/>
        <pt x="1091" y="-394" on="0"/>
        <pt x="1040" y="-410" on="0"/>
        <pt x="972" y="-424" on="0"/>
        <pt x="884" y="-434" on="0"/>
        <pt x="829" y="-434" on="1"/>
        <pt x="775" y="-434" on="0"/>
        <pt x="680" y="-414" on="0"/>
        <pt x="610" y="-370" on="0"/>
        <pt x="569" y="-298" on="0"/>
        <pt x="569" y="-246" on="1"/>
        <pt x="569" y="-219" on="0"/>
        <pt x="582" y="-154" on="0"/>
        <pt x="611" y="-88" on="0"/>
        <pt x="659" y="-25" on="0"/>
        <pt x="694" y="0" on="1"/>
        <pt x="411" y="0" on="1"/>
        <pt x="357" y="0" on="0"/>
        <pt x="232" y="38" on="0"/>
        <pt x="125" y="123" on="0"/>
        <pt x="53" y="260" on="0"/>
        <pt x="53" y="358" on="1"/>
        <pt x="53" y="412" on="0"/>
        <pt x="91" y="538" on="0"/>
        <pt x="176" y="645" on="0"/>
        <pt x="313" y="717" on="0"/>
        <pt x="411" y="717" on="1"/>
        <pt x="880" y="717" on="1"/>
        <pt x="880" y="469" on="1"/>
        <pt x="411" y="469" on="1"/>
        <pt x="358" y="469" on="0"/>
        <pt x="300" y="404" on="0"/>
        <pt x="300" y="356" on="1"/>
        <pt x="300" y="305" on="0"/>
        <pt x="367" y="248" on="0"/>
        <pt x="413" y="248" on="1"/>
        <pt x="880" y="248" on="1"/>
        <pt x="933" y="248" on="0"/>
        <pt x="991" y="312" on="0"/>
        <pt x="991" y="360" on="1"/>
        <pt x="991" y="723" on="1"/>
        <pt x="991" y="774" on="0"/>
        <pt x="928" y="834" on="0"/>
        <pt x="880" y="834" on="1"/>
        <pt x="309" y="834" on="1"/>
        <pt x="309" y="1081" on="1"/>
        <pt x="880" y="1081" on="1"/>
        <pt x="934" y="1081" on="0"/>
        <pt x="1059" y="1043" on="0"/>
        <pt x="1166" y="958" on="0"/>
        <pt x="1238" y="821" on="0"/>
        <pt x="1238" y="723" on="1"/>
      </contour>
    </TTGlyph>
    <TTGlyph name="approxequal" xMin="143" yMin="297" xMax="1222" yMax="1075">
      <contour>
        <pt x="1222" y="811" on="1"/>
        <pt x="1201" y="790" on="0"/>
        <pt x="1143" y="754" on="0"/>
        <pt x="1073" y="727" on="0"/>
        <pt x="996" y="711" on="0"/>
        <pt x="956" y="711" on="1"/>
        <pt x="894" y="711" on="0"/>
        <pt x="753" y="745" on="0"/>
        <pt x="607" y="785" on="0"/>
        <pt x="463" y="819" on="0"/>
        <pt x="399" y="819" on="1"/>
        <pt x="364" y="819" on="0"/>
        <pt x="290" y="799" on="0"/>
        <pt x="221" y="767" on="0"/>
        <pt x="162" y="727" on="0"/>
        <pt x="143" y="707" on="1"/>
        <pt x="143" y="969" on="1"/>
        <pt x="164" y="990" on="0"/>
        <pt x="226" y="1028" on="0"/>
        <pt x="298" y="1055" on="0"/>
        <pt x="373" y="1071" on="0"/>
        <pt x="407" y="1071" on="1"/>
        <pt x="468" y="1071" on="0"/>
        <pt x="611" y="1037" on="0"/>
        <pt x="758" y="995" on="0"/>
        <pt x="902" y="961" on="0"/>
        <pt x="966" y="961" on="1"/>
        <pt x="1000" y="961" on="0"/>
        <pt x="1074" y="981" on="0"/>
        <pt x="1143" y="1014" on="0"/>
        <pt x="1202" y="1054" on="0"/>
        <pt x="1222" y="1075" on="1"/>
      </contour>
      <contour>
        <pt x="1222" y="401" on="1"/>
        <pt x="1201" y="380" on="0"/>
        <pt x="1143" y="344" on="0"/>
        <pt x="1073" y="317" on="0"/>
        <pt x="996" y="301" on="0"/>
        <pt x="956" y="301" on="1"/>
        <pt x="894" y="301" on="0"/>
        <pt x="753" y="335" on="0"/>
        <pt x="607" y="376" on="0"/>
        <pt x="463" y="410" on="0"/>
        <pt x="399" y="410" on="1"/>
        <pt x="364" y="410" on="0"/>
        <pt x="290" y="390" on="0"/>
        <pt x="221" y="357" on="0"/>
        <pt x="162" y="317" on="0"/>
        <pt x="143" y="297" on="1"/>
        <pt x="143" y="559" on="1"/>
        <pt x="164" y="580" on="0"/>
        <pt x="226" y="618" on="0"/>
        <pt x="298" y="646" on="0"/>
        <pt x="373" y="662" on="0"/>
        <pt x="407" y="662" on="1"/>
        <pt x="468" y="662" on="0"/>
        <pt x="611" y="627" on="0"/>
        <pt x="758" y="586" on="0"/>
        <pt x="902" y="551" on="0"/>
        <pt x="966" y="551" on="1"/>
        <pt x="1000" y="551" on="0"/>
        <pt x="1074" y="571" on="0"/>
        <pt x="1143" y="604" on="0"/>
        <pt x="1202" y="645" on="0"/>
        <pt x="1222" y="666" on="1"/>
      </contour>
    </TTGlyph>
    <TTGlyph name="aring" xMin="53" yMin="0" xMax="1238" yMax="1654">
      <component glyphName="a" x="0" y="0" flags="0x204"/>
      <component glyphName="ring" x="74" y="61" flags="0x4"/>
    </TTGlyph>
    <TTGlyph name="asciicircum" xMin="30" yMin="696" xMax="851" yMax="1436">
      <contour>
        <pt x="851" y="696" on="1"/>
        <pt x="433" y="1161" on="1"/>
        <pt x="30" y="698" on="1"/>
        <pt x="30" y="1034" on="1"/>
        <pt x="345" y="1395" on="1"/>
        <pt x="381" y="1436" on="0"/>
        <pt x="433" y="1436" on="1"/>
        <pt x="458" y="1436" on="0"/>
        <pt x="505" y="1415" on="0"/>
        <pt x="522" y="1397" on="1"/>
        <pt x="851" y="1028" on="1"/>
      </contour>
    </TTGlyph>
    <TTGlyph name="asciitilde" xMin="110" yMin="502" xMax="1189" yMax="870">
      <contour>
        <pt x="1189" y="606" on="1"/>
        <pt x="1168" y="585" on="0"/>
        <pt x="1110" y="549" on="0"/>
        <pt x="1040" y="522" on="0"/>
        <pt x="963" y="506" on="0"/>
        <pt x="923" y="506" on="1"/>
        <pt x="861" y="506" on="0"/>
        <pt x="720" y="540" on="0"/>
        <pt x="574" y="580" on="0"/>
        <pt x="430" y="614" on="0"/>
        <pt x="366" y="614" on="1"/>
        <pt x="331" y="614" on="0"/>
        <pt x="257" y="594" on="0"/>
        <pt x="188" y="562" on="0"/>
        <pt x="129" y="522" on="0"/>
        <pt x="110" y="502" on="1"/>
        <pt x="110" y="764" on="1"/>
        <pt x="131" y="785" on="0"/>
        <pt x="193" y="823" on="0"/>
        <pt x="265" y="850" on="0"/>
        <pt x="340" y="866" on="0"/>
        <pt x="374" y="866" on="1"/>
        <pt x="435" y="866" on="0"/>
        <pt x="578" y="832" on="0"/>
        <pt x="725" y="790" on="0"/>
        <pt x="869" y="756" on="0"/>
        <pt x="933" y="756" on="1"/>
        <pt x="967" y="756" on="0"/>
        <pt x="1041" y="776" on="0"/>
        <pt x="1110" y="809" on="0"/>
        <pt x="1169" y="849" on="0"/>
        <pt x="1189" y="870" on="1"/>
      </contour>
    </TTGlyph>
    <TTGlyph name="asterisk" xMin="132" yMin="512" xMax="980" yMax="1434">
      <contour>
        <pt x="452" y="1176" on="1"/>
        <pt x="452" y="1434" on="1"/>
        <pt x="661" y="1434" on="1"/>
        <pt x="661" y="1178" on="1"/>
        <pt x="857" y="1319" on="1"/>
        <pt x="980" y="1149" on="1"/>
        <pt x="735" y="973" on="1"/>
        <pt x="980" y="797" on="1"/>
        <pt x="857" y="627" on="1"/>
        <pt x="661" y="768" on="1"/>
        <pt x="661" y="512" on="1"/>
        <pt x="452" y="512" on="1"/>
        <pt x="452" y="768" on="1"/>
        <pt x="253" y="627" on="1"/>
        <pt x="132" y="797" on="1"/>
        <pt x="376" y="973" on="1"/>
        <pt x="132" y="1149" on="1"/>
        <pt x="253" y="1319" on="1"/>
      </contour>
    </TTGlyph>
    <TTGlyph name="at" xMin="126" yMin="-2" xMax="1247" yMax="1118">
      <contour>
        <pt x="1247" y="440" on="1"/>
        <pt x="1247" y="409" on="0"/>
        <pt x="1225" y="337" on="0"/>
        <pt x="1175" y="275" on="0"/>
        <pt x="1095" y="233" on="0"/>
        <pt x="1038" y="233" on="1"/>
        <pt x="569" y="233" on="1"/>
        <pt x="537" y="233" on="0"/>
        <pt x="465" y="255" on="0"/>
        <pt x="403" y="305" on="0"/>
        <pt x="362" y="383" on="0"/>
        <pt x="362" y="440" on="1"/>
        <pt x="362" y="471" on="0"/>
        <pt x="384" y="545" on="0"/>
        <pt x="433" y="607" on="0"/>
        <pt x="512" y="649" on="0"/>
        <pt x="569" y="649" on="1"/>
        <pt x="778" y="649" on="1"/>
        <pt x="778" y="467" on="1"/>
        <pt x="569" y="467" on="1"/>
        <pt x="566" y="467" on="0"/>
        <pt x="558" y="466" on="0"/>
        <pt x="550" y="461" on="0"/>
        <pt x="544" y="450" on="0"/>
        <pt x="544" y="440" on="1"/>
        <pt x="544" y="426" on="0"/>
        <pt x="560" y="416" on="0"/>
        <pt x="571" y="416" on="1"/>
        <pt x="812" y="416" on="1"/>
        <pt x="820" y="416" on="0"/>
        <pt x="831" y="427" on="0"/>
        <pt x="831" y="442" on="1"/>
        <pt x="831" y="676" on="1"/>
        <pt x="831" y="685" on="0"/>
        <pt x="824" y="702" on="0"/>
        <pt x="802" y="702" on="1"/>
        <pt x="466" y="702" on="1"/>
        <pt x="466" y="885" on="1"/>
        <pt x="804" y="885" on="1"/>
        <pt x="835" y="885" on="0"/>
        <pt x="909" y="863" on="0"/>
        <pt x="971" y="813" on="0"/>
        <pt x="1013" y="733" on="0"/>
        <pt x="1013" y="676" on="1"/>
        <pt x="1013" y="440" on="1"/>
        <pt x="1013" y="434" on="0"/>
        <pt x="1011" y="422" on="0"/>
        <pt x="1011" y="416" on="1"/>
        <pt x="1038" y="416" on="1"/>
        <pt x="1049" y="416" on="0"/>
        <pt x="1064" y="422" on="0"/>
        <pt x="1064" y="442" on="1"/>
        <pt x="1064" y="793" on="1"/>
        <pt x="1064" y="826" on="0"/>
        <pt x="1042" y="879" on="0"/>
        <pt x="1004" y="916" on="0"/>
        <pt x="952" y="936" on="0"/>
        <pt x="921" y="936" on="1"/>
        <pt x="452" y="936" on="1"/>
        <pt x="419" y="936" on="0"/>
        <pt x="366" y="914" on="0"/>
        <pt x="329" y="875" on="0"/>
        <pt x="309" y="823" on="0"/>
        <pt x="309" y="793" on="1"/>
        <pt x="309" y="324" on="1"/>
        <pt x="309" y="292" on="0"/>
        <pt x="331" y="239" on="0"/>
        <pt x="370" y="201" on="0"/>
        <pt x="422" y="180" on="0"/>
        <pt x="452" y="180" on="1"/>
        <pt x="569" y="180" on="1"/>
        <pt x="569" y="-2" on="1"/>
        <pt x="452" y="-2" on="1"/>
        <pt x="403" y="-2" on="0"/>
        <pt x="289" y="32" on="0"/>
        <pt x="191" y="110" on="0"/>
        <pt x="126" y="234" on="0"/>
        <pt x="126" y="324" on="1"/>
        <pt x="126" y="793" on="1"/>
        <pt x="126" y="842" on="0"/>
        <pt x="160" y="956" on="0"/>
        <pt x="238" y="1053" on="0"/>
        <pt x="362" y="1118" on="0"/>
        <pt x="452" y="1118" on="1"/>
        <pt x="921" y="1118" on="1"/>
        <pt x="970" y="1118" on="0"/>
        <pt x="1084" y="1084" on="0"/>
        <pt x="1182" y="1007" on="0"/>
        <pt x="1247" y="883" on="0"/>
        <pt x="1247" y="793" on="1"/>
      </contour>
    </TTGlyph>
    <TTGlyph name="atilde" xMin="53" yMin="0" xMax="1238" yMax="1572">
      <component glyphName="a" x="0" y="0" flags="0x204"/>
      <component glyphName="tilde" x="74" y="61" flags="0x4"/>
    </TTGlyph>
    <TTGlyph name="b" xMin="116" yMin="0" xMax="1314" yMax="1538">
      <contour>
        <pt x="1314" y="365" on="1"/>
        <pt x="1314" y="328" on="0"/>
        <pt x="1297" y="246" on="0"/>
        <pt x="1261" y="165" on="0"/>
        <pt x="1204" y="91" on="0"/>
        <pt x="1123" y="34" on="0"/>
        <pt x="1017" y="0" on="0"/>
        <pt x="950" y="0" on="1"/>
        <pt x="481" y="0" on="1"/>
        <pt x="444" y="0" on="0"/>
        <pt x="362" y="17" on="0"/>
        <pt x="281" y="53" on="0"/>
        <pt x="207" y="110" on="0"/>
        <pt x="150" y="191" on="0"/>
        <pt x="116" y="298" on="0"/>
        <pt x="116" y="365" on="1"/>
        <pt x="116" y="1538" on="1"/>
        <pt x="376" y="1538" on="1"/>
        <pt x="376" y="365" on="1"/>
        <pt x="376" y="317" on="0"/>
        <pt x="436" y="260" on="0"/>
        <pt x="481" y="260" on="1"/>
        <pt x="950" y="260" on="1"/>
        <pt x="999" y="260" on="0"/>
        <pt x="1054" y="318" on="0"/>
        <pt x="1054" y="365" on="1"/>
        <pt x="1054" y="717" on="1"/>
        <pt x="1054" y="766" on="0"/>
        <pt x="996" y="821" on="0"/>
        <pt x="950" y="821" on="1"/>
        <pt x="481" y="821" on="1"/>
        <pt x="481" y="1081" on="1"/>
        <pt x="950" y="1081" on="1"/>
        <pt x="987" y="1081" on="0"/>
        <pt x="1069" y="1064" on="0"/>
        <pt x="1150" y="1028" on="0"/>
        <pt x="1224" y="971" on="0"/>
        <pt x="1280" y="890" on="0"/>
        <pt x="1314" y="784" on="0"/>
        <pt x="1314" y="717" on="1"/>
      </contour>
    </TTGlyph>
    <TTGlyph name="backslash" xMin="81" yMin="0" xMax="1265" yMax="1434">
      <contour>
        <pt x="1265" y="0" on="1"/>
        <pt x="986" y="0" on="1"/>
        <pt x="81" y="1434" on="1"/>
        <pt x="360" y="1434" on="1"/>
      </contour>
    </TTGlyph>
    <TTGlyph name="bar" xMin="136" yMin="-236" xMax="397" yMax="1669">
      <contour>
        <pt x="397" y="-236" on="1"/>
        <pt x="136" y="-236" on="1"/>
        <pt x="136" y="1669" on="1"/>
        <pt x="397" y="1669" on="1"/>
      </contour>
    </TTGlyph>
    <TTGlyph name="braceleft" xMin="22" yMin="-236" xMax="798" yMax="1665">
      <contour>
        <pt x="798" y="1405" on="1"/>
        <pt x="669" y="1405" on="1"/>
        <pt x="644" y="1405" on="0"/>
        <pt x="591" y="1394" on="0"/>
        <pt x="547" y="1370" on="0"/>
        <pt x="519" y="1332" on="0"/>
        <pt x="519" y="1305" on="1"/>
        <pt x="519" y="1303" on="1"/>
        <pt x="519" y="952" on="1"/>
        <pt x="519" y="875" on="0"/>
        <pt x="475" y="758" on="0"/>
        <pt x="440" y="715" on="1"/>
        <pt x="482" y="661" on="0"/>
        <pt x="517" y="537" on="0"/>
        <pt x="517" y="483" on="1"/>
        <pt x="517" y="129" on="1"/>
        <pt x="517" y="94" on="0"/>
        <pt x="553" y="53" on="0"/>
        <pt x="603" y="32" on="0"/>
        <pt x="653" y="27" on="0"/>
        <pt x="667" y="27" on="1"/>
        <pt x="796" y="27" on="1"/>
        <pt x="796" y="-236" on="1"/>
        <pt x="665" y="-236" on="1"/>
        <pt x="624" y="-236" on="0"/>
        <pt x="531" y="-219" on="0"/>
        <pt x="440" y="-182" on="0"/>
        <pt x="357" y="-124" on="0"/>
        <pt x="294" y="-42" on="0"/>
        <pt x="257" y="64" on="0"/>
        <pt x="257" y="131" on="1"/>
        <pt x="257" y="481" on="1"/>
        <pt x="257" y="534" on="0"/>
        <pt x="202" y="586" on="0"/>
        <pt x="153" y="586" on="1"/>
        <pt x="125" y="586" on="0"/>
        <pt x="77" y="607" on="0"/>
        <pt x="42" y="642" on="0"/>
        <pt x="22" y="690" on="0"/>
        <pt x="22" y="717" on="1"/>
        <pt x="22" y="744" on="0"/>
        <pt x="42" y="791" on="0"/>
        <pt x="77" y="826" on="0"/>
        <pt x="124" y="847" on="0"/>
        <pt x="151" y="848" on="1"/>
        <pt x="205" y="848" on="0"/>
        <pt x="259" y="901" on="0"/>
        <pt x="259" y="952" on="1"/>
        <pt x="259" y="1305" on="1"/>
        <pt x="259" y="1391" on="0"/>
        <pt x="329" y="1525" on="0"/>
        <pt x="445" y="1617" on="0"/>
        <pt x="592" y="1665" on="0"/>
        <pt x="669" y="1665" on="1"/>
        <pt x="798" y="1665" on="1"/>
      </contour>
    </TTGlyph>
    <TTGlyph name="braceright" xMin="71" yMin="-236" xMax="847" yMax="1665">
      <contour>
        <pt x="847" y="717" on="1"/>
        <pt x="847" y="690" on="0"/>
        <pt x="827" y="642" on="0"/>
        <pt x="792" y="607" on="0"/>
        <pt x="745" y="586" on="0"/>
        <pt x="718" y="586" on="1"/>
        <pt x="667" y="586" on="0"/>
        <pt x="612" y="534" on="0"/>
        <pt x="612" y="481" on="1"/>
        <pt x="614" y="131" on="1"/>
        <pt x="614" y="64" on="0"/>
        <pt x="576" y="-42" on="0"/>
        <pt x="512" y="-124" on="0"/>
        <pt x="429" y="-182" on="0"/>
        <pt x="338" y="-219" on="0"/>
        <pt x="245" y="-236" on="0"/>
        <pt x="204" y="-236" on="1"/>
        <pt x="75" y="-236" on="1"/>
        <pt x="73" y="27" on="1"/>
        <pt x="204" y="27" on="1"/>
        <pt x="217" y="27" on="0"/>
        <pt x="267" y="32" on="0"/>
        <pt x="316" y="53" on="0"/>
        <pt x="352" y="94" on="0"/>
        <pt x="352" y="129" on="1"/>
        <pt x="352" y="483" on="1"/>
        <pt x="352" y="537" on="0"/>
        <pt x="389" y="661" on="0"/>
        <pt x="429" y="715" on="1"/>
        <pt x="394" y="758" on="0"/>
        <pt x="349" y="875" on="0"/>
        <pt x="349" y="952" on="1"/>
        <pt x="349" y="1303" on="1"/>
        <pt x="349" y="1305" on="1"/>
        <pt x="344" y="1333" on="0"/>
        <pt x="317" y="1371" on="0"/>
        <pt x="277" y="1395" on="0"/>
        <pt x="228" y="1405" on="0"/>
        <pt x="202" y="1405" on="1"/>
        <pt x="71" y="1405" on="1"/>
        <pt x="71" y="1665" on="1"/>
        <pt x="202" y="1665" on="1"/>
        <pt x="283" y="1665" on="0"/>
        <pt x="431" y="1614" on="0"/>
        <pt x="544" y="1519" on="0"/>
        <pt x="610" y="1386" on="0"/>
        <pt x="610" y="1305" on="1"/>
        <pt x="610" y="1298" on="0"/>
        <pt x="612" y="1123" on="0"/>
        <pt x="612" y="952" on="1"/>
        <pt x="612" y="901" on="0"/>
        <pt x="664" y="848" on="0"/>
        <pt x="718" y="848" on="1"/>
        <pt x="745" y="847" on="0"/>
        <pt x="792" y="826" on="0"/>
        <pt x="827" y="791" on="0"/>
        <pt x="847" y="744" on="0"/>
      </contour>
    </TTGlyph>
    <TTGlyph name="bracketleft" xMin="134" yMin="-236" xMax="677" yMax="1665">
      <contour>
        <pt x="677" y="1405" on="1"/>
        <pt x="399" y="1405" on="1"/>
        <pt x="395" y="27" on="1"/>
        <pt x="673" y="27" on="1"/>
        <pt x="673" y="-236" on="1"/>
        <pt x="266" y="-236" on="1"/>
        <pt x="240" y="-236" on="0"/>
        <pt x="192" y="-215" on="0"/>
        <pt x="173" y="-197" on="1"/>
        <pt x="155" y="-178" on="0"/>
        <pt x="134" y="-130" on="0"/>
        <pt x="134" y="-104" on="1"/>
        <pt x="134" y="1536" on="1"/>
        <pt x="134" y="1563" on="0"/>
        <pt x="156" y="1610" on="0"/>
        <pt x="192" y="1645" on="0"/>
        <pt x="241" y="1665" on="0"/>
        <pt x="268" y="1665" on="1"/>
        <pt x="677" y="1665" on="1"/>
      </contour>
    </TTGlyph>
    <TTGlyph name="bracketright" xMin="71" yMin="-236" xMax="614" yMax="1665">
      <contour>
        <pt x="614" y="-104" on="1"/>
        <pt x="614" y="-130" on="0"/>
        <pt x="593" y="-178" on="0"/>
        <pt x="575" y="-197" on="1"/>
        <pt x="556" y="-215" on="0"/>
        <pt x="509" y="-236" on="0"/>
        <pt x="483" y="-236" on="1"/>
        <pt x="75" y="-236" on="1"/>
        <pt x="75" y="27" on="1"/>
        <pt x="352" y="27" on="1"/>
        <pt x="349" y="1405" on="1"/>
        <pt x="71" y="1405" on="1"/>
        <pt x="71" y="1665" on="1"/>
        <pt x="479" y="1665" on="1"/>
        <pt x="506" y="1665" on="0"/>
        <pt x="555" y="1645" on="0"/>
        <pt x="592" y="1610" on="0"/>
        <pt x="614" y="1563" on="0"/>
        <pt x="614" y="1536" on="1"/>
      </contour>
    </TTGlyph>
    <TTGlyph name="breve" xMin="163" yMin="1171" xMax="978" yMax="1552">
      <contour>
        <pt x="978" y="1552" on="1"/>
        <pt x="976" y="1527" on="0"/>
        <pt x="963" y="1452" on="0"/>
        <pt x="929" y="1367" on="0"/>
        <pt x="872" y="1282" on="0"/>
        <pt x="782" y="1214" on="0"/>
        <pt x="657" y="1171" on="0"/>
        <pt x="571" y="1171" on="1"/>
        <pt x="485" y="1171" on="0"/>
        <pt x="359" y="1214" on="0"/>
        <pt x="270" y="1282" on="0"/>
        <pt x="212" y="1367" on="0"/>
        <pt x="179" y="1452" on="0"/>
        <pt x="164" y="1527" on="0"/>
        <pt x="163" y="1552" on="1"/>
        <pt x="352" y="1552" on="1"/>
        <pt x="358" y="1534" on="0"/>
        <pt x="383" y="1484" on="0"/>
        <pt x="432" y="1438" on="0"/>
        <pt x="511" y="1405" on="0"/>
        <pt x="571" y="1405" on="1"/>
        <pt x="630" y="1405" on="0"/>
        <pt x="709" y="1438" on="0"/>
        <pt x="759" y="1484" on="0"/>
        <pt x="786" y="1534" on="0"/>
        <pt x="792" y="1552" on="1"/>
      </contour>
    </TTGlyph>
    <TTGlyph name="brokenbar" xMin="139" yMin="-236" xMax="399" yMax="1669">
      <contour>
        <pt x="399" y="821" on="1"/>
        <pt x="139" y="821" on="1"/>
        <pt x="139" y="1669" on="1"/>
        <pt x="399" y="1669" on="1"/>
      </contour>
      <contour>
        <pt x="399" y="-236" on="1"/>
        <pt x="139" y="-236" on="1"/>
        <pt x="139" y="612" on="1"/>
        <pt x="399" y="612" on="1"/>
      </contour>
    </TTGlyph>
    <TTGlyph name="bullet" xMin="141" yMin="528" xMax="542" yMax="928">
      <contour>
        <pt x="542" y="729" on="1"/>
        <pt x="542" y="687" on="0"/>
        <pt x="510" y="613" on="0"/>
        <pt x="455" y="559" on="0"/>
        <pt x="382" y="528" on="0"/>
        <pt x="341" y="528" on="1"/>
        <pt x="299" y="528" on="0"/>
        <pt x="226" y="559" on="0"/>
        <pt x="172" y="613" on="0"/>
        <pt x="141" y="687" on="0"/>
        <pt x="141" y="729" on="1"/>
        <pt x="141" y="769" on="0"/>
        <pt x="172" y="841" on="0"/>
        <pt x="226" y="896" on="0"/>
        <pt x="299" y="928" on="0"/>
        <pt x="341" y="928" on="1"/>
        <pt x="382" y="928" on="0"/>
        <pt x="455" y="896" on="0"/>
        <pt x="510" y="841" on="0"/>
        <pt x="542" y="769" on="0"/>
      </contour>
    </TTGlyph>
    <TTGlyph name="c" xMin="100" yMin="0" xMax="1169" yMax="1081">
      <contour>
        <pt x="1169" y="0" on="1"/>
        <pt x="464" y="0" on="1"/>
        <pt x="410" y="0" on="0"/>
        <pt x="282" y="38" on="0"/>
        <pt x="173" y="125" on="0"/>
        <pt x="100" y="264" on="0"/>
        <pt x="100" y="365" on="1"/>
        <pt x="100" y="717" on="1"/>
        <pt x="100" y="754" on="0"/>
        <pt x="117" y="836" on="0"/>
        <pt x="153" y="917" on="0"/>
        <pt x="210" y="991" on="0"/>
        <pt x="291" y="1047" on="0"/>
        <pt x="397" y="1081" on="0"/>
        <pt x="464" y="1081" on="1"/>
        <pt x="1169" y="1081" on="1"/>
        <pt x="1169" y="821" on="1"/>
        <pt x="464" y="821" on="1"/>
        <pt x="413" y="821" on="0"/>
        <pt x="360" y="769" on="0"/>
        <pt x="360" y="715" on="1"/>
        <pt x="360" y="365" on="1"/>
        <pt x="360" y="314" on="0"/>
        <pt x="414" y="260" on="0"/>
        <pt x="466" y="260" on="1"/>
        <pt x="1169" y="260" on="1"/>
      </contour>
    </TTGlyph>
    <TTGlyph name="cacute" xMin="100" yMin="0" xMax="1240" yMax="1589">
      <component glyphName="c" x="0" y="0" flags="0x204"/>
      <component glyphName="acute" x="295" y="0" flags="0x4"/>
    </TTGlyph>
    <TTGlyph name="caron" xMin="102" yMin="1139" xMax="1040" yMax="1573">
      <contour>
        <pt x="223" y="1573" on="1"/>
        <pt x="571" y="1393" on="1"/>
        <pt x="919" y="1573" on="1"/>
        <pt x="1040" y="1405" on="1"/>
        <pt x="571" y="1139" on="1"/>
        <pt x="102" y="1405" on="1"/>
      </contour>
    </TTGlyph>
    <TTGlyph name="ccaron" xMin="100" yMin="0" xMax="1169" yMax="1573">
      <component glyphName="c" x="0" y="0" flags="0x204"/>
      <component glyphName="caron" x="119" y="0" flags="0x4"/>
    </TTGlyph>
    <TTGlyph name="ccedilla" xMin="100" yMin="-453" xMax="1169" yMax="1081">
      <contour>
        <pt x="1169" y="0" on="1"/>
        <pt x="771" y="0" on="1"/>
        <pt x="745" y="-70" on="1"/>
        <pt x="774" y="-70" on="0"/>
        <pt x="847" y="-84" on="0"/>
        <pt x="912" y="-123" on="0"/>
        <pt x="956" y="-193" on="0"/>
        <pt x="956" y="-250" on="1"/>
        <pt x="956" y="-307" on="0"/>
        <pt x="899" y="-385" on="0"/>
        <pt x="808" y="-433" on="0"/>
        <pt x="694" y="-453" on="0"/>
        <pt x="638" y="-453" on="1"/>
        <pt x="587" y="-453" on="0"/>
        <pt x="519" y="-448" on="0"/>
        <pt x="471" y="-441" on="0"/>
        <pt x="434" y="-433" on="0"/>
        <pt x="415" y="-430" on="1"/>
        <pt x="415" y="-254" on="1"/>
        <pt x="455" y="-273" on="0"/>
        <pt x="560" y="-299" on="0"/>
        <pt x="616" y="-299" on="1"/>
        <pt x="673" y="-299" on="0"/>
        <pt x="749" y="-276" on="0"/>
        <pt x="749" y="-248" on="1"/>
        <pt x="749" y="-232" on="0"/>
        <pt x="725" y="-212" on="0"/>
        <pt x="689" y="-201" on="0"/>
        <pt x="648" y="-197" on="0"/>
        <pt x="632" y="-197" on="1"/>
        <pt x="609" y="-197" on="0"/>
        <pt x="558" y="-203" on="0"/>
        <pt x="538" y="-209" on="1"/>
        <pt x="616" y="0" on="1"/>
        <pt x="464" y="0" on="1"/>
        <pt x="410" y="0" on="0"/>
        <pt x="282" y="38" on="0"/>
        <pt x="173" y="125" on="0"/>
        <pt x="100" y="264" on="0"/>
        <pt x="100" y="365" on="1"/>
        <pt x="100" y="717" on="1"/>
        <pt x="100" y="754" on="0"/>
        <pt x="117" y="836" on="0"/>
        <pt x="153" y="917" on="0"/>
        <pt x="210" y="991" on="0"/>
        <pt x="291" y="1047" on="0"/>
        <pt x="397" y="1081" on="0"/>
        <pt x="464" y="1081" on="1"/>
        <pt x="1169" y="1081" on="1"/>
        <pt x="1169" y="821" on="1"/>
        <pt x="464" y="821" on="1"/>
        <pt x="413" y="821" on="0"/>
        <pt x="360" y="769" on="0"/>
        <pt x="360" y="715" on="1"/>
        <pt x="360" y="365" on="1"/>
        <pt x="360" y="314" on="0"/>
        <pt x="414" y="260" on="0"/>
        <pt x="466" y="260" on="1"/>
        <pt x="1169" y="260" on="1"/>
      </contour>
    </TTGlyph>
    <TTGlyph name="ccircumflex" xMin="100" yMin="0" xMax="1169" yMax="1593">
      <component glyphName="c" x="0" y="0" flags="0x204"/>
      <component glyphName="circumflex" x="86" y="0" flags="0x4"/>
    </TTGlyph>
    <TTGlyph name="cdotaccent" xMin="100" yMin="0" xMax="1169" yMax="1444">
      <component glyphName="c" x="0" y="0" flags="0x204"/>
      <component glyphName="dotaccent" x="96" y="0" flags="0x4"/>
    </TTGlyph>
    <TTGlyph name="cedilla" xMin="220" yMin="-453" xMax="761" yMax="18">
      <contour>
        <pt x="550" y="-70" on="1"/>
        <pt x="579" y="-70" on="0"/>
        <pt x="652" y="-84" on="0"/>
        <pt x="717" y="-123" on="0"/>
        <pt x="761" y="-193" on="0"/>
        <pt x="761" y="-250" on="1"/>
        <pt x="761" y="-307" on="0"/>
        <pt x="704" y="-385" on="0"/>
        <pt x="613" y="-433" on="0"/>
        <pt x="500" y="-453" on="0"/>
        <pt x="444" y="-453" on="1"/>
        <pt x="393" y="-453" on="0"/>
        <pt x="325" y="-448" on="0"/>
        <pt x="276" y="-441" on="0"/>
        <pt x="239" y="-433" on="0"/>
        <pt x="220" y="-430" on="1"/>
        <pt x="220" y="-254" on="1"/>
        <pt x="261" y="-273" on="0"/>
        <pt x="365" y="-299" on="0"/>
        <pt x="421" y="-299" on="1"/>
        <pt x="478" y="-299" on="0"/>
        <pt x="554" y="-276" on="0"/>
        <pt x="554" y="-248" on="1"/>
        <pt x="554" y="-232" on="0"/>
        <pt x="530" y="-212" on="0"/>
        <pt x="494" y="-201" on="0"/>
        <pt x="454" y="-197" on="0"/>
        <pt x="438" y="-197" on="1"/>
        <pt x="415" y="-197" on="0"/>
        <pt x="363" y="-203" on="0"/>
        <pt x="343" y="-209" on="1"/>
        <pt x="429" y="18" on="1"/>
        <pt x="585" y="18" on="1"/>
      </contour>
    </TTGlyph>
    <TTGlyph name="cent" xMin="100" yMin="0" xMax="931" yMax="1434">
      <contour>
        <pt x="931" y="248" on="1"/>
        <pt x="685" y="248" on="1"/>
        <pt x="685" y="0" on="1"/>
        <pt x="452" y="0" on="1"/>
        <pt x="452" y="248" on="1"/>
        <pt x="399" y="248" on="0"/>
        <pt x="276" y="285" on="0"/>
        <pt x="170" y="369" on="0"/>
        <pt x="100" y="503" on="0"/>
        <pt x="100" y="600" on="1"/>
        <pt x="100" y="834" on="1"/>
        <pt x="100" y="887" on="0"/>
        <pt x="137" y="1010" on="0"/>
        <pt x="221" y="1116" on="0"/>
        <pt x="355" y="1186" on="0"/>
        <pt x="452" y="1186" on="1"/>
        <pt x="452" y="1434" on="1"/>
        <pt x="685" y="1434" on="1"/>
        <pt x="685" y="1186" on="1"/>
        <pt x="931" y="1186" on="1"/>
        <pt x="931" y="952" on="1"/>
        <pt x="452" y="952" on="1"/>
        <pt x="396" y="952" on="0"/>
        <pt x="335" y="886" on="0"/>
        <pt x="335" y="834" on="1"/>
        <pt x="335" y="600" on="1"/>
        <pt x="335" y="546" on="0"/>
        <pt x="399" y="481" on="0"/>
        <pt x="452" y="481" on="1"/>
        <pt x="931" y="481" on="1"/>
      </contour>
    </TTGlyph>
    <TTGlyph name="circumflex" xMin="102" yMin="1159" xMax="1040" yMax="1593">
      <contour>
        <pt x="919" y="1159" on="1"/>
        <pt x="571" y="1339" on="1"/>
        <pt x="223" y="1159" on="1"/>
        <pt x="102" y="1327" on="1"/>
        <pt x="571" y="1593" on="1"/>
        <pt x="1040" y="1327" on="1"/>
      </contour>
    </TTGlyph>
    <TTGlyph name="colon" xMin="120" yMin="2" xMax="378" yMax="1079">
      <contour>
        <pt x="378" y="131" on="1"/>
        <pt x="378" y="104" on="0"/>
        <pt x="357" y="57" on="0"/>
        <pt x="322" y="22" on="0"/>
        <pt x="275" y="2" on="0"/>
        <pt x="249" y="2" on="1"/>
        <pt x="222" y="2" on="0"/>
        <pt x="175" y="22" on="0"/>
        <pt x="140" y="57" on="0"/>
        <pt x="120" y="104" on="0"/>
        <pt x="120" y="131" on="1"/>
        <pt x="120" y="157" on="0"/>
        <pt x="140" y="204" on="0"/>
        <pt x="175" y="239" on="0"/>
        <pt x="222" y="260" on="0"/>
        <pt x="249" y="260" on="1"/>
        <pt x="275" y="260" on="0"/>
        <pt x="322" y="239" on="0"/>
        <pt x="357" y="204" on="0"/>
        <pt x="378" y="157" on="0"/>
      </contour>
      <contour>
        <pt x="378" y="950" on="1"/>
        <pt x="378" y="923" on="0"/>
        <pt x="357" y="876" on="0"/>
        <pt x="322" y="841" on="0"/>
        <pt x="275" y="821" on="0"/>
        <pt x="249" y="821" on="1"/>
        <pt x="222" y="821" on="0"/>
        <pt x="175" y="841" on="0"/>
        <pt x="140" y="876" on="0"/>
        <pt x="120" y="923" on="0"/>
        <pt x="120" y="950" on="1"/>
        <pt x="120" y="976" on="0"/>
        <pt x="140" y="1023" on="0"/>
        <pt x="175" y="1058" on="0"/>
        <pt x="222" y="1079" on="0"/>
        <pt x="249" y="1079" on="1"/>
        <pt x="275" y="1079" on="0"/>
        <pt x="322" y="1058" on="0"/>
        <pt x="357" y="1023" on="0"/>
        <pt x="378" y="976" on="0"/>
      </contour>
    </TTGlyph>
    <TTGlyph name="comma" xMin="46" yMin="-184" xMax="384" yMax="319">
      <contour>
        <pt x="229" y="-184" on="1"/>
        <pt x="46" y="-184" on="1"/>
        <pt x="139" y="319" on="1"/>
        <pt x="384" y="319" on="1"/>
      </contour>
    </TTGlyph>
    <TTGlyph name="copyright" xMin="124" yMin="170" xMax="1312" yMax="1264">
      <contour>
        <pt x="1312" y="623" on="1"/>
        <pt x="1312" y="533" on="0"/>
        <pt x="1267" y="396" on="0"/>
        <pt x="1192" y="296" on="0"/>
        <pt x="1097" y="228" on="0"/>
        <pt x="996" y="187" on="0"/>
        <pt x="898" y="170" on="0"/>
        <pt x="859" y="170" on="1"/>
        <pt x="577" y="170" on="1"/>
        <pt x="538" y="170" on="0"/>
        <pt x="441" y="187" on="0"/>
        <pt x="340" y="228" on="0"/>
        <pt x="244" y="296" on="0"/>
        <pt x="169" y="396" on="0"/>
        <pt x="124" y="533" on="0"/>
        <pt x="124" y="623" on="1"/>
        <pt x="124" y="811" on="1"/>
        <pt x="124" y="900" on="0"/>
        <pt x="169" y="1037" on="0"/>
        <pt x="244" y="1138" on="0"/>
        <pt x="340" y="1206" on="0"/>
        <pt x="441" y="1247" on="0"/>
        <pt x="538" y="1264" on="0"/>
        <pt x="577" y="1264" on="1"/>
        <pt x="859" y="1264" on="1"/>
        <pt x="898" y="1264" on="0"/>
        <pt x="996" y="1247" on="0"/>
        <pt x="1097" y="1206" on="0"/>
        <pt x="1193" y="1138" on="0"/>
        <pt x="1267" y="1037" on="0"/>
        <pt x="1312" y="900" on="0"/>
        <pt x="1312" y="811" on="1"/>
      </contour>
      <contour>
        <pt x="1156" y="623" on="1"/>
        <pt x="1156" y="811" on="1"/>
        <pt x="1156" y="996" on="0"/>
        <pt x="1011" y="1069" on="1"/>
        <pt x="983" y="1083" on="0"/>
        <pt x="929" y="1098" on="0"/>
        <pt x="907" y="1102" on="1"/>
        <pt x="881" y="1106" on="0"/>
        <pt x="859" y="1108" on="1"/>
        <pt x="577" y="1108" on="1"/>
        <pt x="570" y="1108" on="0"/>
        <pt x="520" y="1104" on="0"/>
        <pt x="454" y="1086" on="0"/>
        <pt x="381" y="1049" on="0"/>
        <pt x="320" y="983" on="0"/>
        <pt x="280" y="883" on="0"/>
        <pt x="280" y="811" on="1"/>
        <pt x="280" y="623" on="1"/>
        <pt x="280" y="551" on="0"/>
        <pt x="320" y="451" on="0"/>
        <pt x="381" y="385" on="0"/>
        <pt x="454" y="348" on="0"/>
        <pt x="521" y="330" on="0"/>
        <pt x="571" y="326" on="0"/>
        <pt x="579" y="326" on="1"/>
        <pt x="859" y="326" on="1"/>
        <pt x="867" y="326" on="0"/>
        <pt x="917" y="330" on="0"/>
        <pt x="983" y="349" on="0"/>
        <pt x="1055" y="386" on="0"/>
        <pt x="1116" y="452" on="0"/>
        <pt x="1156" y="552" on="0"/>
      </contour>
      <contour>
        <pt x="964" y="410" on="1"/>
        <pt x="589" y="410" on="1"/>
        <pt x="564" y="410" on="0"/>
        <pt x="504" y="429" on="0"/>
        <pt x="452" y="470" on="0"/>
        <pt x="417" y="535" on="0"/>
        <pt x="417" y="582" on="1"/>
        <pt x="417" y="862" on="1"/>
        <pt x="417" y="887" on="0"/>
        <pt x="435" y="948" on="0"/>
        <pt x="476" y="999" on="0"/>
        <pt x="541" y="1034" on="0"/>
        <pt x="589" y="1034" on="1"/>
        <pt x="964" y="1034" on="1"/>
        <pt x="964" y="879" on="1"/>
        <pt x="589" y="879" on="1"/>
        <pt x="586" y="879" on="0"/>
        <pt x="582" y="878" on="0"/>
        <pt x="580" y="878" on="1"/>
        <pt x="578" y="877" on="0"/>
        <pt x="577" y="877" on="1"/>
        <pt x="575" y="875" on="0"/>
        <pt x="573" y="864" on="0"/>
        <pt x="573" y="862" on="1"/>
        <pt x="573" y="582" on="1"/>
        <pt x="573" y="575" on="0"/>
        <pt x="574" y="573" on="1"/>
        <pt x="574" y="571" on="0"/>
        <pt x="575" y="571" on="1"/>
        <pt x="577" y="568" on="0"/>
        <pt x="587" y="565" on="0"/>
        <pt x="589" y="565" on="1"/>
        <pt x="964" y="565" on="1"/>
      </contour>
    </TTGlyph>
    <TTGlyph name="currency" xMin="71" yMin="344" xMax="827" yMax="1090">
      <contour>
        <pt x="337" y="721" on="1"/>
        <pt x="337" y="674" on="0"/>
        <pt x="399" y="612" on="0"/>
        <pt x="446" y="612" on="1"/>
        <pt x="469" y="612" on="0"/>
        <pt x="509" y="629" on="0"/>
        <pt x="539" y="658" on="0"/>
        <pt x="556" y="698" on="0"/>
        <pt x="556" y="721" on="1"/>
        <pt x="556" y="744" on="0"/>
        <pt x="539" y="784" on="0"/>
        <pt x="509" y="814" on="0"/>
        <pt x="469" y="831" on="0"/>
        <pt x="446" y="831" on="1"/>
        <pt x="423" y="831" on="0"/>
        <pt x="383" y="814" on="0"/>
        <pt x="354" y="784" on="0"/>
        <pt x="337" y="744" on="0"/>
      </contour>
      <contour>
        <pt x="827" y="942" on="1"/>
        <pt x="714" y="831" on="1"/>
        <pt x="725" y="805" on="0"/>
        <pt x="737" y="750" on="0"/>
        <pt x="737" y="721" on="1"/>
        <pt x="737" y="689" on="0"/>
        <pt x="722" y="630" on="0"/>
        <pt x="710" y="602" on="1"/>
        <pt x="827" y="487" on="1"/>
        <pt x="675" y="344" on="1"/>
        <pt x="562" y="457" on="1"/>
        <pt x="509" y="432" on="0"/>
        <pt x="446" y="432" on="1"/>
        <pt x="415" y="432" on="0"/>
        <pt x="359" y="442" on="0"/>
        <pt x="333" y="453" on="1"/>
        <pt x="225" y="344" on="1"/>
        <pt x="75" y="494" on="1"/>
        <pt x="184" y="600" on="1"/>
        <pt x="170" y="628" on="0"/>
        <pt x="157" y="689" on="0"/>
        <pt x="157" y="721" on="1"/>
        <pt x="157" y="752" on="0"/>
        <pt x="169" y="812" on="0"/>
        <pt x="182" y="840" on="1"/>
        <pt x="71" y="952" on="1"/>
        <pt x="225" y="1090" on="1"/>
        <pt x="327" y="985" on="1"/>
        <pt x="355" y="997" on="0"/>
        <pt x="414" y="1012" on="0"/>
        <pt x="446" y="1012" on="1"/>
        <pt x="478" y="1012" on="0"/>
        <pt x="541" y="997" on="0"/>
        <pt x="569" y="983" on="1"/>
        <pt x="675" y="1090" on="1"/>
      </contour>
    </TTGlyph>
    <TTGlyph name="d" xMin="110" yMin="0" xMax="1308" yMax="1538">
      <contour>
        <pt x="1308" y="365" on="1"/>
        <pt x="1308" y="298" on="0"/>
        <pt x="1274" y="191" on="0"/>
        <pt x="1218" y="110" on="0"/>
        <pt x="1144" y="53" on="0"/>
        <pt x="1063" y="17" on="0"/>
        <pt x="980" y="0" on="0"/>
        <pt x="943" y="0" on="1"/>
        <pt x="474" y="0" on="1"/>
        <pt x="407" y="0" on="0"/>
        <pt x="301" y="34" on="0"/>
        <pt x="220" y="91" on="0"/>
        <pt x="163" y="165" on="0"/>
        <pt x="127" y="246" on="0"/>
        <pt x="110" y="329" on="0"/>
        <pt x="110" y="365" on="1"/>
        <pt x="110" y="717" on="1"/>
        <pt x="110" y="817" on="0"/>
        <pt x="183" y="956" on="0"/>
        <pt x="292" y="1043" on="0"/>
        <pt x="420" y="1081" on="0"/>
        <pt x="474" y="1081" on="1"/>
        <pt x="943" y="1081" on="1"/>
        <pt x="943" y="821" on="1"/>
        <pt x="476" y="821" on="1"/>
        <pt x="424" y="821" on="0"/>
        <pt x="370" y="768" on="0"/>
        <pt x="370" y="717" on="1"/>
        <pt x="370" y="367" on="1"/>
        <pt x="370" y="314" on="0"/>
        <pt x="423" y="260" on="0"/>
        <pt x="474" y="260" on="1"/>
        <pt x="943" y="260" on="1"/>
        <pt x="996" y="260" on="0"/>
        <pt x="1048" y="314" on="0"/>
        <pt x="1048" y="365" on="1"/>
        <pt x="1048" y="1538" on="1"/>
        <pt x="1308" y="1538" on="1"/>
      </contour>
    </TTGlyph>
    <TTGlyph name="dagger" xMin="79" yMin="-236" xMax="784" yMax="1669">
      <contour>
        <pt x="560" y="1303" on="1"/>
        <pt x="784" y="1303" on="1"/>
        <pt x="784" y="1069" on="1"/>
        <pt x="560" y="1069" on="1"/>
        <pt x="560" y="-236" on="1"/>
        <pt x="300" y="-236" on="1"/>
        <pt x="300" y="1069" on="1"/>
        <pt x="79" y="1069" on="1"/>
        <pt x="79" y="1303" on="1"/>
        <pt x="300" y="1303" on="1"/>
        <pt x="300" y="1669" on="1"/>
        <pt x="560" y="1669" on="1"/>
      </contour>
    </TTGlyph>
    <TTGlyph name="daggerdbl" xMin="98" yMin="-236" xMax="802" yMax="1669">
      <contour>
        <pt x="579" y="1303" on="1"/>
        <pt x="802" y="1303" on="1"/>
        <pt x="802" y="1069" on="1"/>
        <pt x="579" y="1069" on="1"/>
        <pt x="579" y="365" on="1"/>
        <pt x="802" y="365" on="1"/>
        <pt x="802" y="131" on="1"/>
        <pt x="579" y="131" on="1"/>
        <pt x="579" y="-236" on="1"/>
        <pt x="319" y="-236" on="1"/>
        <pt x="319" y="131" on="1"/>
        <pt x="98" y="131" on="1"/>
        <pt x="98" y="365" on="1"/>
        <pt x="319" y="365" on="1"/>
        <pt x="319" y="1069" on="1"/>
        <pt x="98" y="1069" on="1"/>
        <pt x="98" y="1303" on="1"/>
        <pt x="319" y="1303" on="1"/>
        <pt x="319" y="1669" on="1"/>
        <pt x="579" y="1669" on="1"/>
      </contour>
    </TTGlyph>
    <TTGlyph name="dcaron" xMin="101" yMin="0" xMax="1693" yMax="1538">
      <component glyphName="d" x="-9" y="0" flags="0x4"/>
      <component glyphName="uni0315" x="1354" y="0" flags="0x4"/>
    </TTGlyph>
    <TTGlyph name="dcroat" xMin="100" yMin="0" xMax="1505" yMax="1538">
      <contour>
        <pt x="1298" y="1438" on="1"/>
        <pt x="1505" y="1438" on="1"/>
        <pt x="1505" y="1204" on="1"/>
        <pt x="1298" y="1204" on="1"/>
        <pt x="1298" y="365" on="1"/>
        <pt x="1298" y="298" on="0"/>
        <pt x="1264" y="191" on="0"/>
        <pt x="1208" y="110" on="0"/>
        <pt x="1134" y="53" on="0"/>
        <pt x="1053" y="17" on="0"/>
        <pt x="970" y="0" on="0"/>
        <pt x="933" y="0" on="1"/>
        <pt x="464" y="0" on="1"/>
        <pt x="397" y="0" on="0"/>
        <pt x="291" y="34" on="0"/>
        <pt x="210" y="91" on="0"/>
        <pt x="153" y="165" on="0"/>
        <pt x="117" y="246" on="0"/>
        <pt x="100" y="329" on="0"/>
        <pt x="100" y="365" on="1"/>
        <pt x="100" y="717" on="1"/>
        <pt x="100" y="817" on="0"/>
        <pt x="173" y="956" on="0"/>
        <pt x="282" y="1043" on="0"/>
        <pt x="410" y="1081" on="0"/>
        <pt x="464" y="1081" on="1"/>
        <pt x="933" y="1081" on="1"/>
        <pt x="933" y="821" on="1"/>
        <pt x="466" y="821" on="1"/>
        <pt x="414" y="821" on="0"/>
        <pt x="360" y="768" on="0"/>
        <pt x="360" y="717" on="1"/>
        <pt x="360" y="367" on="1"/>
        <pt x="360" y="314" on="0"/>
        <pt x="413" y="260" on="0"/>
        <pt x="464" y="260" on="1"/>
        <pt x="933" y="260" on="1"/>
        <pt x="986" y="260" on="0"/>
        <pt x="1038" y="314" on="0"/>
        <pt x="1038" y="365" on="1"/>
        <pt x="1038" y="1204" on="1"/>
        <pt x="825" y="1204" on="1"/>
        <pt x="825" y="1438" on="1"/>
        <pt x="1038" y="1438" on="1"/>
        <pt x="1038" y="1538" on="1"/>
        <pt x="1298" y="1538" on="1"/>
      </contour>
    </TTGlyph>
    <TTGlyph name="degree" xMin="75" yMin="795" xMax="655" yMax="1374">
      <contour>
        <pt x="75" y="1083" on="1"/>
        <pt x="75" y="1143" on="0"/>
        <pt x="120" y="1249" on="0"/>
        <pt x="199" y="1328" on="0"/>
        <pt x="304" y="1374" on="0"/>
        <pt x="364" y="1374" on="1"/>
        <pt x="424" y="1374" on="0"/>
        <pt x="530" y="1328" on="0"/>
        <pt x="609" y="1249" on="0"/>
        <pt x="655" y="1143" on="0"/>
        <pt x="655" y="1083" on="1"/>
        <pt x="655" y="1023" on="0"/>
        <pt x="609" y="918" on="0"/>
        <pt x="530" y="840" on="0"/>
        <pt x="424" y="795" on="0"/>
        <pt x="364" y="795" on="1"/>
        <pt x="304" y="795" on="0"/>
        <pt x="199" y="840" on="0"/>
        <pt x="120" y="918" on="0"/>
        <pt x="75" y="1023" on="0"/>
      </contour>
      <contour>
        <pt x="255" y="1083" on="1"/>
        <pt x="255" y="1037" on="0"/>
        <pt x="317" y="975" on="0"/>
        <pt x="364" y="975" on="1"/>
        <pt x="387" y="975" on="0"/>
        <pt x="427" y="992" on="0"/>
        <pt x="457" y="1021" on="0"/>
        <pt x="474" y="1060" on="0"/>
        <pt x="474" y="1083" on="1"/>
        <pt x="474" y="1106" on="0"/>
        <pt x="457" y="1147" on="0"/>
        <pt x="427" y="1177" on="0"/>
        <pt x="387" y="1194" on="0"/>
        <pt x="364" y="1194" on="1"/>
        <pt x="317" y="1194" on="0"/>
        <pt x="255" y="1130" on="0"/>
      </contour>
    </TTGlyph>
    <TTGlyph name="dieresis" xMin="210" yMin="1186" xMax="931" yMax="1444">
      <contour>
        <pt x="468" y="1315" on="1"/>
        <pt x="468" y="1288" on="0"/>
        <pt x="447" y="1241" on="0"/>
        <pt x="412" y="1206" on="0"/>
        <pt x="365" y="1186" on="0"/>
        <pt x="339" y="1186" on="1"/>
        <pt x="312" y="1186" on="0"/>
        <pt x="265" y="1206" on="0"/>
        <pt x="230" y="1241" on="0"/>
        <pt x="210" y="1288" on="0"/>
        <pt x="210" y="1315" on="1"/>
        <pt x="210" y="1341" on="0"/>
        <pt x="230" y="1388" on="0"/>
        <pt x="265" y="1423" on="0"/>
        <pt x="312" y="1444" on="0"/>
        <pt x="339" y="1444" on="1"/>
        <pt x="365" y="1444" on="0"/>
        <pt x="412" y="1423" on="0"/>
        <pt x="447" y="1388" on="0"/>
        <pt x="468" y="1341" on="0"/>
      </contour>
      <contour>
        <pt x="931" y="1315" on="1"/>
        <pt x="931" y="1288" on="0"/>
        <pt x="910" y="1241" on="0"/>
        <pt x="875" y="1206" on="0"/>
        <pt x="828" y="1186" on="0"/>
        <pt x="802" y="1186" on="1"/>
        <pt x="775" y="1186" on="0"/>
        <pt x="728" y="1206" on="0"/>
        <pt x="693" y="1241" on="0"/>
        <pt x="673" y="1288" on="0"/>
        <pt x="673" y="1315" on="1"/>
        <pt x="673" y="1341" on="0"/>
        <pt x="693" y="1388" on="0"/>
        <pt x="728" y="1423" on="0"/>
        <pt x="775" y="1444" on="0"/>
        <pt x="802" y="1444" on="1"/>
        <pt x="828" y="1444" on="0"/>
        <pt x="875" y="1423" on="0"/>
        <pt x="910" y="1388" on="0"/>
        <pt x="931" y="1341" on="0"/>
      </contour>
    </TTGlyph>
    <TTGlyph name="divide" xMin="100" yMin="236" xMax="1038" yMax="1198">
      <contour>
        <pt x="698" y="1069" on="1"/>
        <pt x="698" y="1042" on="0"/>
        <pt x="678" y="995" on="0"/>
        <pt x="643" y="960" on="0"/>
        <pt x="596" y="940" on="0"/>
        <pt x="569" y="940" on="1"/>
        <pt x="542" y="940" on="0"/>
        <pt x="495" y="960" on="0"/>
        <pt x="460" y="995" on="0"/>
        <pt x="440" y="1042" on="0"/>
        <pt x="440" y="1069" on="1"/>
        <pt x="440" y="1096" on="0"/>
        <pt x="460" y="1143" on="0"/>
        <pt x="495" y="1178" on="0"/>
        <pt x="542" y="1198" on="0"/>
        <pt x="569" y="1198" on="1"/>
        <pt x="596" y="1198" on="0"/>
        <pt x="643" y="1178" on="0"/>
        <pt x="678" y="1143" on="0"/>
        <pt x="698" y="1096" on="0"/>
      </contour>
      <contour>
        <pt x="1038" y="600" on="1"/>
        <pt x="100" y="600" on="1"/>
        <pt x="100" y="834" on="1"/>
        <pt x="1038" y="834" on="1"/>
      </contour>
      <contour>
        <pt x="698" y="365" on="1"/>
        <pt x="698" y="338" on="0"/>
        <pt x="678" y="291" on="0"/>
        <pt x="643" y="256" on="0"/>
        <pt x="596" y="236" on="0"/>
        <pt x="569" y="236" on="1"/>
        <pt x="542" y="236" on="0"/>
        <pt x="495" y="256" on="0"/>
        <pt x="460" y="291" on="0"/>
        <pt x="440" y="338" on="0"/>
        <pt x="440" y="365" on="1"/>
        <pt x="440" y="392" on="0"/>
        <pt x="460" y="439" on="0"/>
        <pt x="495" y="474" on="0"/>
        <pt x="542" y="494" on="0"/>
        <pt x="569" y="494" on="1"/>
        <pt x="596" y="494" on="0"/>
        <pt x="643" y="474" on="0"/>
        <pt x="678" y="439" on="0"/>
        <pt x="698" y="392" on="0"/>
      </contour>
    </TTGlyph>
    <TTGlyph name="dollar" xMin="75" yMin="0" xMax="1013" yMax="1434">
      <contour>
        <pt x="1013" y="717" on="1"/>
        <pt x="1013" y="624" on="0"/>
        <pt x="978" y="483" on="0"/>
        <pt x="920" y="378" on="0"/>
        <pt x="846" y="308" on="0"/>
        <pt x="768" y="266" on="0"/>
        <pt x="692" y="248" on="0"/>
        <pt x="661" y="248" on="1"/>
        <pt x="661" y="0" on="1"/>
        <pt x="427" y="0" on="1"/>
        <pt x="427" y="248" on="1"/>
        <pt x="192" y="248" on="1"/>
        <pt x="192" y="481" on="1"/>
        <pt x="659" y="481" on="1"/>
        <pt x="666" y="481" on="0"/>
        <pt x="693" y="489" on="0"/>
        <pt x="725" y="514" on="0"/>
        <pt x="755" y="561" on="0"/>
        <pt x="765" y="600" on="1"/>
        <pt x="192" y="600" on="1"/>
        <pt x="168" y="600" on="0"/>
        <pt x="125" y="618" on="0"/>
        <pt x="94" y="649" on="0"/>
        <pt x="75" y="692" on="0"/>
        <pt x="75" y="717" on="1"/>
        <pt x="75" y="803" on="0"/>
        <pt x="105" y="934" on="0"/>
        <pt x="153" y="1031" on="0"/>
        <pt x="211" y="1097" on="0"/>
        <pt x="239" y="1118" on="1"/>
        <pt x="271" y="1143" on="0"/>
        <pt x="334" y="1170" on="0"/>
        <pt x="385" y="1183" on="0"/>
        <pt x="421" y="1186" on="0"/>
        <pt x="427" y="1186" on="1"/>
        <pt x="427" y="1434" on="1"/>
        <pt x="661" y="1434" on="1"/>
        <pt x="661" y="1186" on="1"/>
        <pt x="896" y="1186" on="1"/>
        <pt x="896" y="952" on="1"/>
        <pt x="429" y="952" on="1"/>
        <pt x="423" y="952" on="0"/>
        <pt x="396" y="944" on="0"/>
        <pt x="364" y="920" on="0"/>
        <pt x="333" y="873" on="0"/>
        <pt x="323" y="834" on="1"/>
        <pt x="896" y="834" on="1"/>
        <pt x="921" y="834" on="0"/>
        <pt x="963" y="816" on="0"/>
        <pt x="995" y="784" on="0"/>
        <pt x="1013" y="741" on="0"/>
      </contour>
    </TTGlyph>
    <TTGlyph name="dotaccent" xMin="442" yMin="1186" xMax="700" yMax="1444">
      <contour>
        <pt x="700" y="1315" on="1"/>
        <pt x="700" y="1288" on="0"/>
        <pt x="679" y="1241" on="0"/>
        <pt x="644" y="1206" on="0"/>
        <pt x="597" y="1186" on="0"/>
        <pt x="571" y="1186" on="1"/>
        <pt x="544" y="1186" on="0"/>
        <pt x="497" y="1206" on="0"/>
        <pt x="462" y="1241" on="0"/>
        <pt x="442" y="1288" on="0"/>
        <pt x="442" y="1315" on="1"/>
        <pt x="442" y="1341" on="0"/>
        <pt x="462" y="1388" on="0"/>
        <pt x="497" y="1423" on="0"/>
        <pt x="544" y="1444" on="0"/>
        <pt x="571" y="1444" on="1"/>
        <pt x="597" y="1444" on="0"/>
        <pt x="644" y="1423" on="0"/>
        <pt x="679" y="1388" on="0"/>
        <pt x="700" y="1341" on="0"/>
      </contour>
    </TTGlyph>
    <TTGlyph name="dotlessi" xMin="126" yMin="0" xMax="386" yMax="1081">
      <contour>
        <pt x="386" y="0" on="1"/>
        <pt x="126" y="0" on="1"/>
        <pt x="126" y="1081" on="1"/>
        <pt x="386" y="1081" on="1"/>
      </contour>
    </TTGlyph>
    <TTGlyph name="dotlessj" xMin="-447" yMin="-469" xMax="386" yMax="1081">
      <contour>
        <pt x="386" y="-104" on="1"/>
        <pt x="386" y="-171" on="0"/>
        <pt x="352" y="-278" on="0"/>
        <pt x="296" y="-359" on="0"/>
        <pt x="222" y="-416" on="0"/>
        <pt x="141" y="-452" on="0"/>
        <pt x="59" y="-469" on="0"/>
        <pt x="22" y="-469" on="1"/>
        <pt x="-447" y="-469" on="1"/>
        <pt x="-447" y="-209" on="1"/>
        <pt x="22" y="-209" on="1"/>
        <pt x="74" y="-209" on="0"/>
        <pt x="126" y="-155" on="0"/>
        <pt x="126" y="-104" on="1"/>
        <pt x="126" y="1081" on="1"/>
        <pt x="386" y="1081" on="1"/>
      </contour>
    </TTGlyph>
    <TTGlyph name="e" xMin="100" yMin="0" xMax="1285" yMax="1081">
      <contour>
        <pt x="1285" y="723" on="1"/>
        <pt x="1285" y="669" on="0"/>
        <pt x="1247" y="544" on="0"/>
        <pt x="1162" y="437" on="0"/>
        <pt x="1025" y="365" on="0"/>
        <pt x="927" y="365" on="1"/>
        <pt x="458" y="365" on="1"/>
        <pt x="458" y="612" on="1"/>
        <pt x="927" y="612" on="1"/>
        <pt x="980" y="612" on="0"/>
        <pt x="1038" y="677" on="0"/>
        <pt x="1038" y="725" on="1"/>
        <pt x="1038" y="776" on="0"/>
        <pt x="973" y="834" on="0"/>
        <pt x="927" y="834" on="1"/>
        <pt x="458" y="834" on="1"/>
        <pt x="405" y="834" on="0"/>
        <pt x="347" y="769" on="0"/>
        <pt x="347" y="721" on="1"/>
        <pt x="347" y="358" on="1"/>
        <pt x="347" y="306" on="0"/>
        <pt x="412" y="248" on="0"/>
        <pt x="460" y="248" on="1"/>
        <pt x="927" y="248" on="1"/>
        <pt x="927" y="0" on="1"/>
        <pt x="458" y="0" on="1"/>
        <pt x="404" y="0" on="0"/>
        <pt x="279" y="38" on="0"/>
        <pt x="172" y="123" on="0"/>
        <pt x="100" y="260" on="0"/>
        <pt x="100" y="358" on="1"/>
        <pt x="100" y="723" on="1"/>
        <pt x="100" y="777" on="0"/>
        <pt x="138" y="902" on="0"/>
        <pt x="223" y="1009" on="0"/>
        <pt x="360" y="1081" on="0"/>
        <pt x="458" y="1081" on="1"/>
        <pt x="927" y="1081" on="1"/>
        <pt x="981" y="1081" on="0"/>
        <pt x="1106" y="1043" on="0"/>
        <pt x="1213" y="958" on="0"/>
        <pt x="1285" y="821" on="0"/>
      </contour>
    </TTGlyph>
    <TTGlyph name="eacute" xMin="100" yMin="0" xMax="1285" yMax="1650">
      <component glyphName="e" x="0" y="0" flags="0x204"/>
      <component glyphName="acute" x="268" y="61" flags="0x4"/>
    </TTGlyph>
    <TTGlyph name="ebreve" xMin="100" yMin="0" xMax="1285" yMax="1552">
      <component glyphName="e" x="0" y="0" flags="0x204"/>
      <component glyphName="breve" x="98" y="0" flags="0x4"/>
    </TTGlyph>
    <TTGlyph name="ecaron" xMin="100" yMin="0" xMax="1285" yMax="1573">
      <component glyphName="e" x="0" y="0" flags="0x204"/>
      <component glyphName="caron" x="98" y="0" flags="0x4"/>
    </TTGlyph>
    <TTGlyph name="ecircumflex" xMin="100" yMin="0" xMax="1285" yMax="1654">
      <component glyphName="e" x="0" y="0" flags="0x204"/>
      <component glyphName="circumflex" x="121" y="61" flags="0x4"/>
    </TTGlyph>
    <TTGlyph name="edieresis" xMin="100" yMin="0" xMax="1285" yMax="1505">
      <component glyphName="e" x="0" y="0" flags="0x204"/>
      <component glyphName="dieresis" x="121" y="61" flags="0x4"/>
    </TTGlyph>
    <TTGlyph name="edotaccent" xMin="100" yMin="0" xMax="1285" yMax="1444">
      <component glyphName="e" x="0" y="0" flags="0x204"/>
      <component glyphName="dotaccent" x="98" y="0" flags="0x4"/>
    </TTGlyph>
    <TTGlyph name="egrave" xMin="100" yMin="0" xMax="1285" yMax="1650">
      <component glyphName="e" x="0" y="0" flags="0x204"/>
      <component glyphName="grave" x="-54" y="61" flags="0x4"/>
    </TTGlyph>
    <TTGlyph name="eight" xMin="106" yMin="0" xMax="1423" yMax="1434">
      <contour>
        <pt x="1423" y="365" on="1"/>
        <pt x="1423" y="328" on="0"/>
        <pt x="1406" y="246" on="0"/>
        <pt x="1369" y="165" on="0"/>
        <pt x="1311" y="91" on="0"/>
        <pt x="1230" y="34" on="0"/>
        <pt x="1124" y="0" on="0"/>
        <pt x="1058" y="0" on="1"/>
        <pt x="470" y="0" on="1"/>
        <pt x="416" y="0" on="0"/>
        <pt x="288" y="38" on="0"/>
        <pt x="179" y="125" on="0"/>
        <pt x="106" y="264" on="0"/>
        <pt x="106" y="365" on="1"/>
        <pt x="106" y="481" on="1"/>
        <pt x="106" y="519" on="0"/>
        <pt x="123" y="603" on="0"/>
        <pt x="160" y="685" on="0"/>
        <pt x="218" y="759" on="0"/>
        <pt x="259" y="786" on="1"/>
        <pt x="241" y="828" on="0"/>
        <pt x="223" y="914" on="0"/>
        <pt x="223" y="952" on="1"/>
        <pt x="223" y="1069" on="1"/>
        <pt x="223" y="1169" on="0"/>
        <pt x="296" y="1309" on="0"/>
        <pt x="405" y="1395" on="0"/>
        <pt x="533" y="1434" on="0"/>
        <pt x="587" y="1434" on="1"/>
        <pt x="939" y="1434" on="1"/>
        <pt x="1006" y="1434" on="0"/>
        <pt x="1113" y="1400" on="0"/>
        <pt x="1194" y="1343" on="0"/>
        <pt x="1251" y="1269" on="0"/>
        <pt x="1287" y="1188" on="0"/>
        <pt x="1304" y="1105" on="0"/>
        <pt x="1304" y="1069" on="1"/>
        <pt x="1304" y="952" on="1"/>
        <pt x="1304" y="854" on="0"/>
        <pt x="1269" y="782" on="1"/>
        <pt x="1301" y="761" on="0"/>
        <pt x="1357" y="704" on="0"/>
        <pt x="1399" y="630" on="0"/>
        <pt x="1423" y="537" on="0"/>
        <pt x="1423" y="481" on="1"/>
      </contour>
      <contour>
        <pt x="1044" y="1067" on="1"/>
        <pt x="1044" y="1120" on="0"/>
        <pt x="990" y="1174" on="0"/>
        <pt x="939" y="1174" on="1"/>
        <pt x="589" y="1174" on="1"/>
        <pt x="536" y="1174" on="0"/>
        <pt x="485" y="1120" on="0"/>
        <pt x="485" y="1069" on="1"/>
        <pt x="485" y="952" on="1"/>
        <pt x="485" y="900" on="0"/>
        <pt x="538" y="848" on="0"/>
        <pt x="587" y="848" on="1"/>
        <pt x="939" y="848" on="1"/>
        <pt x="992" y="848" on="0"/>
        <pt x="1044" y="901" on="0"/>
        <pt x="1044" y="952" on="1"/>
      </contour>
      <contour>
        <pt x="1160" y="481" on="1"/>
        <pt x="1160" y="531" on="0"/>
        <pt x="1105" y="586" on="0"/>
        <pt x="1058" y="586" on="1"/>
        <pt x="470" y="586" on="1"/>
        <pt x="422" y="586" on="0"/>
        <pt x="366" y="526" on="0"/>
        <pt x="366" y="481" on="1"/>
        <pt x="366" y="365" on="1"/>
        <pt x="366" y="317" on="0"/>
        <pt x="425" y="260" on="0"/>
        <pt x="470" y="260" on="1"/>
        <pt x="1058" y="260" on="1"/>
        <pt x="1108" y="260" on="0"/>
        <pt x="1160" y="320" on="0"/>
        <pt x="1160" y="365" on="1"/>
      </contour>
    </TTGlyph>
    <TTGlyph name="ellipsis" xMin="81" yMin="2" xMax="1060" yMax="260">
      <contour>
        <pt x="339" y="131" on="1"/>
        <pt x="339" y="104" on="0"/>
        <pt x="318" y="57" on="0"/>
        <pt x="283" y="22" on="0"/>
        <pt x="236" y="2" on="0"/>
        <pt x="210" y="2" on="1"/>
        <pt x="183" y="2" on="0"/>
        <pt x="136" y="22" on="0"/>
        <pt x="101" y="57" on="0"/>
        <pt x="81" y="104" on="0"/>
        <pt x="81" y="131" on="1"/>
        <pt x="81" y="157" on="0"/>
        <pt x="101" y="204" on="0"/>
        <pt x="136" y="239" on="0"/>
        <pt x="183" y="260" on="0"/>
        <pt x="210" y="260" on="1"/>
        <pt x="236" y="260" on="0"/>
        <pt x="283" y="239" on="0"/>
        <pt x="318" y="204" on="0"/>
        <pt x="339" y="157" on="0"/>
      </contour>
      <contour>
        <pt x="700" y="131" on="1"/>
        <pt x="700" y="104" on="0"/>
        <pt x="679" y="57" on="0"/>
        <pt x="644" y="22" on="0"/>
        <pt x="597" y="2" on="0"/>
        <pt x="571" y="2" on="1"/>
        <pt x="544" y="2" on="0"/>
        <pt x="497" y="22" on="0"/>
        <pt x="462" y="57" on="0"/>
        <pt x="442" y="104" on="0"/>
        <pt x="442" y="131" on="1"/>
        <pt x="442" y="157" on="0"/>
        <pt x="462" y="204" on="0"/>
        <pt x="497" y="239" on="0"/>
        <pt x="544" y="260" on="0"/>
        <pt x="571" y="260" on="1"/>
        <pt x="597" y="260" on="0"/>
        <pt x="644" y="239" on="0"/>
        <pt x="679" y="204" on="0"/>
        <pt x="700" y="157" on="0"/>
      </contour>
      <contour>
        <pt x="1060" y="131" on="1"/>
        <pt x="1060" y="104" on="0"/>
        <pt x="1039" y="57" on="0"/>
        <pt x="1004" y="22" on="0"/>
        <pt x="957" y="2" on="0"/>
        <pt x="931" y="2" on="1"/>
        <pt x="904" y="2" on="0"/>
        <pt x="857" y="22" on="0"/>
        <pt x="822" y="57" on="0"/>
        <pt x="802" y="104" on="0"/>
        <pt x="802" y="131" on="1"/>
        <pt x="802" y="157" on="0"/>
        <pt x="822" y="204" on="0"/>
        <pt x="857" y="239" on="0"/>
        <pt x="904" y="260" on="0"/>
        <pt x="931" y="260" on="1"/>
        <pt x="957" y="260" on="0"/>
        <pt x="1004" y="239" on="0"/>
        <pt x="1039" y="204" on="0"/>
        <pt x="1060" y="157" on="0"/>
      </contour>
    </TTGlyph>
    <TTGlyph name="emacron" xMin="100" yMin="0" xMax="1285" yMax="1436">
      <component glyphName="e" x="0" y="0" flags="0x204"/>
      <component glyphName="macron" x="98" y="0" flags="0x4"/>
    </TTGlyph>
    <TTGlyph name="emdash" xMin="116" yMin="600" xMax="1754" yMax="834">
      <contour>
        <pt x="1754" y="600" on="1"/>
        <pt x="116" y="600" on="1"/>
        <pt x="116" y="834" on="1"/>
        <pt x="1754" y="834" on="1"/>
      </contour>
    </TTGlyph>
    <TTGlyph name="endash" xMin="116" yMin="600" xMax="935" yMax="834">
      <contour>
        <pt x="935" y="600" on="1"/>
        <pt x="116" y="600" on="1"/>
        <pt x="116" y="834" on="1"/>
        <pt x="935" y="834" on="1"/>
      </contour>
    </TTGlyph>
    <TTGlyph name="eng" xMin="122" yMin="-582" xMax="1320" yMax="1081">
      <contour>
        <pt x="1316" y="-217" on="1"/>
        <pt x="1316" y="-284" on="0"/>
        <pt x="1282" y="-390" on="0"/>
        <pt x="1226" y="-471" on="0"/>
        <pt x="1152" y="-529" on="0"/>
        <pt x="1071" y="-565" on="0"/>
        <pt x="989" y="-582" on="0"/>
        <pt x="952" y="-582" on="1"/>
        <pt x="483" y="-582" on="1"/>
        <pt x="483" y="-322" on="1"/>
        <pt x="952" y="-322" on="1"/>
        <pt x="1004" y="-322" on="0"/>
        <pt x="1056" y="-268" on="0"/>
        <pt x="1056" y="-217" on="1"/>
        <pt x="1060" y="600" on="1"/>
        <pt x="1060" y="651" on="0"/>
        <pt x="1025" y="732" on="0"/>
        <pt x="965" y="790" on="0"/>
        <pt x="884" y="821" on="0"/>
        <pt x="837" y="821" on="1"/>
        <pt x="382" y="821" on="1"/>
        <pt x="382" y="0" on="1"/>
        <pt x="122" y="0" on="1"/>
        <pt x="122" y="952" on="1"/>
        <pt x="122" y="979" on="0"/>
        <pt x="142" y="1026" on="0"/>
        <pt x="178" y="1061" on="0"/>
        <pt x="226" y="1081" on="0"/>
        <pt x="253" y="1081" on="1"/>
        <pt x="839" y="1081" on="1"/>
        <pt x="888" y="1081" on="0"/>
        <pt x="997" y="1059" on="0"/>
        <pt x="1104" y="1010" on="0"/>
        <pt x="1201" y="935" on="0"/>
        <pt x="1276" y="828" on="0"/>
        <pt x="1320" y="688" on="0"/>
        <pt x="1320" y="600" on="1"/>
      </contour>
    </TTGlyph>
    <TTGlyph name="eogonek" xMin="100" yMin="-434" xMax="1285" yMax="1081">
      <contour>
        <pt x="1285" y="723" on="1"/>
        <pt x="1285" y="669" on="0"/>
        <pt x="1247" y="544" on="0"/>
        <pt x="1162" y="437" on="0"/>
        <pt x="1025" y="365" on="0"/>
        <pt x="927" y="365" on="1"/>
        <pt x="458" y="365" on="1"/>
        <pt x="458" y="612" on="1"/>
        <pt x="927" y="612" on="1"/>
        <pt x="980" y="612" on="0"/>
        <pt x="1038" y="677" on="0"/>
        <pt x="1038" y="725" on="1"/>
        <pt x="1038" y="776" on="0"/>
        <pt x="973" y="834" on="0"/>
        <pt x="927" y="834" on="1"/>
        <pt x="458" y="834" on="1"/>
        <pt x="405" y="834" on="0"/>
        <pt x="347" y="769" on="0"/>
        <pt x="347" y="721" on="1"/>
        <pt x="347" y="358" on="1"/>
        <pt x="347" y="306" on="0"/>
        <pt x="412" y="248" on="0"/>
        <pt x="460" y="248" on="1"/>
        <pt x="927" y="248" on="1"/>
        <pt x="927" y="0" on="1"/>
        <pt x="849" y="0" on="1"/>
        <pt x="798" y="-42" on="0"/>
        <pt x="741" y="-141" on="0"/>
        <pt x="741" y="-186" on="1"/>
        <pt x="741" y="-224" on="0"/>
        <pt x="792" y="-254" on="0"/>
        <pt x="849" y="-254" on="1"/>
        <pt x="874" y="-254" on="0"/>
        <pt x="936" y="-244" on="0"/>
        <pt x="996" y="-228" on="0"/>
        <pt x="1050" y="-211" on="0"/>
        <pt x="1068" y="-203" on="1"/>
        <pt x="1068" y="-389" on="1"/>
        <pt x="1050" y="-394" on="0"/>
        <pt x="999" y="-410" on="0"/>
        <pt x="931" y="-424" on="0"/>
        <pt x="843" y="-434" on="0"/>
        <pt x="788" y="-434" on="1"/>
        <pt x="734" y="-434" on="0"/>
        <pt x="639" y="-414" on="0"/>
        <pt x="569" y="-370" on="0"/>
        <pt x="528" y="-298" on="0"/>
        <pt x="528" y="-246" on="1"/>
        <pt x="528" y="-219" on="0"/>
        <pt x="541" y="-154" on="0"/>
        <pt x="570" y="-88" on="0"/>
        <pt x="618" y="-25" on="0"/>
        <pt x="653" y="0" on="1"/>
        <pt x="458" y="0" on="1"/>
        <pt x="404" y="0" on="0"/>
        <pt x="279" y="38" on="0"/>
        <pt x="172" y="123" on="0"/>
        <pt x="100" y="260" on="0"/>
        <pt x="100" y="358" on="1"/>
        <pt x="100" y="723" on="1"/>
        <pt x="100" y="777" on="0"/>
        <pt x="138" y="902" on="0"/>
        <pt x="223" y="1009" on="0"/>
        <pt x="360" y="1081" on="0"/>
        <pt x="458" y="1081" on="1"/>
        <pt x="927" y="1081" on="1"/>
        <pt x="981" y="1081" on="0"/>
        <pt x="1106" y="1043" on="0"/>
        <pt x="1213" y="958" on="0"/>
        <pt x="1285" y="821" on="0"/>
      </contour>
    </TTGlyph>
    <TTGlyph name="equal" xMin="136" yMin="365" xMax="1074" yMax="1069">
      <contour>
        <pt x="1074" y="834" on="1"/>
        <pt x="136" y="834" on="1"/>
        <pt x="136" y="1069" on="1"/>
        <pt x="1074" y="1069" on="1"/>
      </contour>
      <contour>
        <pt x="1074" y="365" on="1"/>
        <pt x="136" y="365" on="1"/>
        <pt x="136" y="600" on="1"/>
        <pt x="1074" y="600" on="1"/>
      </contour>
    </TTGlyph>
    <TTGlyph name="eth" xMin="100" yMin="0" xMax="1560" yMax="1669">
      <contour>
        <pt x="1298" y="365" on="1"/>
        <pt x="1298" y="298" on="0"/>
        <pt x="1264" y="191" on="0"/>
        <pt x="1208" y="110" on="0"/>
        <pt x="1134" y="53" on="0"/>
        <pt x="1053" y="17" on="0"/>
        <pt x="970" y="0" on="0"/>
        <pt x="933" y="0" on="1"/>
        <pt x="464" y="0" on="1"/>
        <pt x="397" y="0" on="0"/>
        <pt x="291" y="34" on="0"/>
        <pt x="210" y="91" on="0"/>
        <pt x="153" y="165" on="0"/>
        <pt x="117" y="246" on="0"/>
        <pt x="100" y="329" on="0"/>
        <pt x="100" y="365" on="1"/>
        <pt x="100" y="717" on="1"/>
        <pt x="100" y="817" on="0"/>
        <pt x="173" y="956" on="0"/>
        <pt x="282" y="1043" on="0"/>
        <pt x="410" y="1081" on="0"/>
        <pt x="464" y="1081" on="1"/>
        <pt x="933" y="1081" on="1"/>
        <pt x="933" y="821" on="1"/>
        <pt x="466" y="821" on="1"/>
        <pt x="414" y="821" on="0"/>
        <pt x="360" y="768" on="0"/>
        <pt x="360" y="717" on="1"/>
        <pt x="360" y="367" on="1"/>
        <pt x="360" y="314" on="0"/>
        <pt x="413" y="260" on="0"/>
        <pt x="464" y="260" on="1"/>
        <pt x="933" y="260" on="1"/>
        <pt x="986" y="260" on="0"/>
        <pt x="1038" y="314" on="0"/>
        <pt x="1038" y="365" on="1"/>
        <pt x="1038" y="1186" on="1"/>
        <pt x="1038" y="1236" on="0"/>
        <pt x="1008" y="1317" on="0"/>
        <pt x="951" y="1375" on="0"/>
        <pt x="868" y="1407" on="0"/>
        <pt x="816" y="1407" on="1"/>
        <pt x="685" y="1407" on="1"/>
        <pt x="685" y="1669" on="1"/>
        <pt x="816" y="1669" on="1"/>
        <pt x="891" y="1669" on="0"/>
        <pt x="1016" y="1636" on="0"/>
        <pt x="1115" y="1579" on="0"/>
        <pt x="1191" y="1502" on="0"/>
        <pt x="1218" y="1458" on="1"/>
        <pt x="1455" y="1577" on="1"/>
        <pt x="1560" y="1368" on="1"/>
        <pt x="1294" y="1235" on="1"/>
        <pt x="1296" y="1223" on="0"/>
        <pt x="1298" y="1198" on="0"/>
        <pt x="1298" y="1186" on="1"/>
      </contour>
    </TTGlyph>
    <TTGlyph name="exclam" xMin="116" yMin="2" xMax="417" yMax="1434">
      <contour>
        <pt x="356" y="352" on="1"/>
        <pt x="177" y="352" on="1"/>
        <pt x="116" y="1434" on="1"/>
        <pt x="417" y="1434" on="1"/>
      </contour>
      <contour>
        <pt x="397" y="131" on="1"/>
        <pt x="397" y="104" on="0"/>
        <pt x="376" y="57" on="0"/>
        <pt x="341" y="22" on="0"/>
        <pt x="294" y="2" on="0"/>
        <pt x="268" y="2" on="1"/>
        <pt x="241" y="2" on="0"/>
        <pt x="194" y="22" on="0"/>
        <pt x="159" y="57" on="0"/>
        <pt x="139" y="104" on="0"/>
        <pt x="139" y="131" on="1"/>
        <pt x="139" y="157" on="0"/>
        <pt x="159" y="204" on="0"/>
        <pt x="194" y="239" on="0"/>
        <pt x="241" y="260" on="0"/>
        <pt x="268" y="260" on="1"/>
        <pt x="294" y="260" on="0"/>
        <pt x="341" y="239" on="0"/>
        <pt x="376" y="204" on="0"/>
        <pt x="397" y="157" on="0"/>
      </contour>
    </TTGlyph>
    <TTGlyph name="exclamdown" xMin="104" yMin="-408" xMax="405" yMax="1024">
      <contour>
        <pt x="165" y="674" on="1"/>
        <pt x="343" y="674" on="1"/>
        <pt x="405" y="-408" on="1"/>
        <pt x="104" y="-408" on="1"/>
      </contour>
      <contour>
        <pt x="124" y="895" on="1"/>
        <pt x="124" y="922" on="0"/>
        <pt x="145" y="969" on="0"/>
        <pt x="180" y="1004" on="0"/>
        <pt x="227" y="1024" on="0"/>
        <pt x="253" y="1024" on="1"/>
        <pt x="280" y="1024" on="0"/>
        <pt x="327" y="1004" on="0"/>
        <pt x="362" y="969" on="0"/>
        <pt x="382" y="922" on="0"/>
        <pt x="382" y="895" on="1"/>
        <pt x="382" y="869" on="0"/>
        <pt x="362" y="822" on="0"/>
        <pt x="327" y="787" on="0"/>
        <pt x="280" y="766" on="0"/>
        <pt x="253" y="766" on="1"/>
        <pt x="227" y="766" on="0"/>
        <pt x="180" y="787" on="0"/>
        <pt x="145" y="822" on="0"/>
        <pt x="124" y="869" on="0"/>
      </contour>
    </TTGlyph>
    <TTGlyph name="f" xMin="126" yMin="0" xMax="1079" yMax="1550">
      <contour>
        <pt x="1079" y="821" on="1"/>
        <pt x="491" y="821" on="1"/>
        <pt x="491" y="1081" on="1"/>
        <pt x="1079" y="1081" on="1"/>
      </contour>
      <contour>
        <pt x="1079" y="1290" on="1"/>
        <pt x="493" y="1290" on="1"/>
        <pt x="440" y="1290" on="0"/>
        <pt x="386" y="1237" on="0"/>
        <pt x="386" y="1186" on="1"/>
        <pt x="386" y="0" on="1"/>
        <pt x="126" y="0" on="1"/>
        <pt x="126" y="1186" on="1"/>
        <pt x="126" y="1253" on="0"/>
        <pt x="160" y="1359" on="0"/>
        <pt x="217" y="1440" on="0"/>
        <pt x="291" y="1497" on="0"/>
        <pt x="372" y="1533" on="0"/>
        <pt x="454" y="1550" on="0"/>
        <pt x="491" y="1550" on="1"/>
        <pt x="1079" y="1550" on="1"/>
      </contour>
    </TTGlyph>
    <TTGlyph name="fi" xMin="126" yMin="0" xMax="1455" yMax="1550">
      <contour>
        <pt x="1079" y="1290" on="1"/>
        <pt x="493" y="1290" on="1"/>
        <pt x="440" y="1290" on="0"/>
        <pt x="386" y="1237" on="0"/>
        <pt x="386" y="1186" on="1"/>
        <pt x="386" y="0" on="1"/>
        <pt x="126" y="0" on="1"/>
        <pt x="126" y="1186" on="1"/>
        <pt x="126" y="1253" on="0"/>
        <pt x="160" y="1359" on="0"/>
        <pt x="217" y="1440" on="0"/>
        <pt x="291" y="1497" on="0"/>
        <pt x="372" y="1533" on="0"/>
        <pt x="454" y="1550" on="0"/>
        <pt x="491" y="1550" on="1"/>
        <pt x="1079" y="1550" on="1"/>
      </contour>
      <contour>
        <pt x="1453" y="0" on="1"/>
        <pt x="1193" y="0" on="1"/>
        <pt x="1191" y="821" on="1"/>
        <pt x="491" y="821" on="1"/>
        <pt x="491" y="1081" on="1"/>
        <pt x="1455" y="1081" on="1"/>
      </contour>
      <contour>
        <pt x="1453" y="1290" on="1"/>
        <pt x="1193" y="1290" on="1"/>
        <pt x="1193" y="1546" on="1"/>
        <pt x="1453" y="1546" on="1"/>
      </contour>
    </TTGlyph>
    <TTGlyph name="five" xMin="128" yMin="0" xMax="1445" yMax="1434">
      <contour>
        <pt x="1445" y="365" on="1"/>
        <pt x="1445" y="328" on="0"/>
        <pt x="1428" y="246" on="0"/>
        <pt x="1391" y="165" on="0"/>
        <pt x="1334" y="91" on="0"/>
        <pt x="1253" y="34" on="0"/>
        <pt x="1147" y="0" on="0"/>
        <pt x="1081" y="0" on="1"/>
        <pt x="128" y="0" on="1"/>
        <pt x="128" y="260" on="1"/>
        <pt x="1081" y="260" on="1"/>
        <pt x="1130" y="260" on="0"/>
        <pt x="1183" y="320" on="0"/>
        <pt x="1183" y="365" on="1"/>
        <pt x="1183" y="481" on="1"/>
        <pt x="1183" y="532" on="0"/>
        <pt x="1131" y="586" on="0"/>
        <pt x="1079" y="586" on="1"/>
        <pt x="493" y="586" on="1"/>
        <pt x="392" y="586" on="0"/>
        <pt x="253" y="659" on="0"/>
        <pt x="167" y="769" on="0"/>
        <pt x="128" y="897" on="0"/>
        <pt x="128" y="952" on="1"/>
        <pt x="128" y="1434" on="1"/>
        <pt x="1326" y="1434" on="1"/>
        <pt x="1326" y="1174" on="1"/>
        <pt x="388" y="1174" on="1"/>
        <pt x="388" y="952" on="1"/>
        <pt x="388" y="900" on="0"/>
        <pt x="442" y="848" on="0"/>
        <pt x="493" y="848" on="1"/>
        <pt x="1081" y="848" on="1"/>
        <pt x="1135" y="848" on="0"/>
        <pt x="1263" y="809" on="0"/>
        <pt x="1372" y="722" on="0"/>
        <pt x="1445" y="582" on="0"/>
        <pt x="1445" y="481" on="1"/>
      </contour>
    </TTGlyph>
    <TTGlyph name="fl" xMin="126" yMin="0" xMax="1664" yMax="1550">
      <contour>
        <pt x="1664" y="0" on="1"/>
        <pt x="1548" y="0" on="1"/>
        <pt x="1492" y="0" on="0"/>
        <pt x="1365" y="38" on="0"/>
        <pt x="1255" y="125" on="0"/>
        <pt x="1183" y="264" on="0"/>
        <pt x="1183" y="365" on="1"/>
        <pt x="1183" y="1290" on="1"/>
        <pt x="493" y="1290" on="1"/>
        <pt x="440" y="1290" on="0"/>
        <pt x="386" y="1237" on="0"/>
        <pt x="386" y="1186" on="1"/>
        <pt x="386" y="0" on="1"/>
        <pt x="126" y="0" on="1"/>
        <pt x="126" y="1186" on="1"/>
        <pt x="126" y="1253" on="0"/>
        <pt x="160" y="1359" on="0"/>
        <pt x="217" y="1440" on="0"/>
        <pt x="291" y="1497" on="0"/>
        <pt x="372" y="1533" on="0"/>
        <pt x="454" y="1550" on="0"/>
        <pt x="491" y="1550" on="1"/>
        <pt x="1445" y="1550" on="1"/>
        <pt x="1443" y="365" on="1"/>
        <pt x="1443" y="317" on="0"/>
        <pt x="1503" y="260" on="0"/>
        <pt x="1548" y="260" on="1"/>
        <pt x="1664" y="260" on="1"/>
      </contour>
      <contour>
        <pt x="935" y="821" on="1"/>
        <pt x="491" y="821" on="1"/>
        <pt x="491" y="1081" on="1"/>
        <pt x="935" y="1081" on="1"/>
      </contour>
    </TTGlyph>
    <TTGlyph name="florin" xMin="89" yMin="-584" xMax="1373" yMax="1542">
      <contour>
        <pt x="1373" y="817" on="1"/>
        <pt x="790" y="817" on="1"/>
        <pt x="790" y="1077" on="1"/>
        <pt x="1373" y="1077" on="1"/>
      </contour>
      <contour>
        <pt x="1373" y="1284" on="1"/>
        <pt x="790" y="1284" on="1"/>
        <pt x="737" y="1284" on="0"/>
        <pt x="685" y="1231" on="0"/>
        <pt x="685" y="1180" on="1"/>
        <pt x="685" y="-221" on="1"/>
        <pt x="685" y="-288" on="0"/>
        <pt x="652" y="-393" on="0"/>
        <pt x="595" y="-474" on="0"/>
        <pt x="522" y="-531" on="0"/>
        <pt x="441" y="-567" on="0"/>
        <pt x="359" y="-584" on="0"/>
        <pt x="323" y="-584" on="1"/>
        <pt x="89" y="-584" on="1"/>
        <pt x="89" y="-324" on="1"/>
        <pt x="321" y="-324" on="1"/>
        <pt x="373" y="-324" on="0"/>
        <pt x="427" y="-271" on="0"/>
        <pt x="427" y="-221" on="1"/>
        <pt x="427" y="1180" on="1"/>
        <pt x="427" y="1280" on="0"/>
        <pt x="499" y="1418" on="0"/>
        <pt x="608" y="1504" on="0"/>
        <pt x="735" y="1542" on="0"/>
        <pt x="790" y="1542" on="1"/>
        <pt x="1373" y="1542" on="1"/>
      </contour>
    </TTGlyph>
    <TTGlyph name="four" xMin="108" yMin="0" xMax="1425" yMax="1434">
      <contour>
        <pt x="1425" y="0" on="1"/>
        <pt x="1163" y="0" on="1"/>
        <pt x="1163" y="586" on="1"/>
        <pt x="239" y="586" on="1"/>
        <pt x="211" y="586" on="0"/>
        <pt x="163" y="607" on="0"/>
        <pt x="128" y="642" on="0"/>
        <pt x="108" y="690" on="0"/>
        <pt x="108" y="717" on="1"/>
        <pt x="108" y="1434" on="1"/>
        <pt x="368" y="1434" on="1"/>
        <pt x="368" y="848" on="1"/>
        <pt x="1163" y="848" on="1"/>
        <pt x="1163" y="1434" on="1"/>
        <pt x="1425" y="1434" on="1"/>
      </contour>
    </TTGlyph>
    <TTGlyph name="fraction" xMin="28" yMin="12" xMax="1005" yMax="1303">
      <contour>
        <pt x="1005" y="1303" on="1"/>
        <pt x="268" y="12" on="1"/>
        <pt x="28" y="12" on="1"/>
        <pt x="765" y="1303" on="1"/>
      </contour>
    </TTGlyph>
    <TTGlyph name="g" xMin="100" yMin="-469" xMax="1298" yMax="1081">
      <contour>
        <pt x="1298" y="-104" on="1"/>
        <pt x="1298" y="-171" on="0"/>
        <pt x="1264" y="-278" on="0"/>
        <pt x="1208" y="-359" on="0"/>
        <pt x="1134" y="-416" on="0"/>
        <pt x="1053" y="-452" on="0"/>
        <pt x="970" y="-469" on="0"/>
        <pt x="933" y="-469" on="1"/>
        <pt x="464" y="-469" on="1"/>
        <pt x="464" y="-209" on="1"/>
        <pt x="933" y="-209" on="1"/>
        <pt x="986" y="-209" on="0"/>
        <pt x="1038" y="-155" on="0"/>
        <pt x="1038" y="-104" on="1"/>
        <pt x="1038" y="717" on="1"/>
        <pt x="1038" y="768" on="0"/>
        <pt x="986" y="821" on="0"/>
        <pt x="933" y="821" on="1"/>
        <pt x="464" y="821" on="1"/>
        <pt x="416" y="821" on="0"/>
        <pt x="360" y="762" on="0"/>
        <pt x="360" y="717" on="1"/>
        <pt x="360" y="365" on="1"/>
        <pt x="360" y="314" on="0"/>
        <pt x="414" y="260" on="0"/>
        <pt x="466" y="260" on="1"/>
        <pt x="933" y="260" on="1"/>
        <pt x="933" y="0" on="1"/>
        <pt x="464" y="0" on="1"/>
        <pt x="427" y="0" on="0"/>
        <pt x="345" y="17" on="0"/>
        <pt x="264" y="53" on="0"/>
        <pt x="190" y="110" on="0"/>
        <pt x="134" y="191" on="0"/>
        <pt x="100" y="298" on="0"/>
        <pt x="100" y="365" on="1"/>
        <pt x="100" y="717" on="1"/>
        <pt x="100" y="754" on="0"/>
        <pt x="117" y="836" on="0"/>
        <pt x="153" y="917" on="0"/>
        <pt x="210" y="991" on="0"/>
        <pt x="291" y="1047" on="0"/>
        <pt x="397" y="1081" on="0"/>
        <pt x="464" y="1081" on="1"/>
        <pt x="933" y="1081" on="1"/>
        <pt x="970" y="1081" on="0"/>
        <pt x="1053" y="1064" on="0"/>
        <pt x="1134" y="1028" on="0"/>
        <pt x="1208" y="971" on="0"/>
        <pt x="1264" y="890" on="0"/>
        <pt x="1298" y="784" on="0"/>
        <pt x="1298" y="717" on="1"/>
      </contour>
    </TTGlyph>
    <TTGlyph name="gbreve" xMin="100" yMin="-469" xMax="1298" yMax="1552">
      <component glyphName="g" x="0" y="0" flags="0x204"/>
      <component glyphName="breve" x="135" y="0" flags="0x4"/>
    </TTGlyph>
    <TTGlyph name="gcircumflex" xMin="100" yMin="-469" xMax="1298" yMax="1593">
      <component glyphName="g" x="0" y="0" flags="0x204"/>
      <component glyphName="circumflex" x="135" y="0" flags="0x4"/>
    </TTGlyph>
    <TTGlyph name="gcommaaccent" xMin="100" yMin="-469" xMax="1298" yMax="1671">
      <component glyphName="g" x="0" y="0" flags="0x204"/>
      <component glyphName="uni0312" x="514" y="307" flags="0x4"/>
    </TTGlyph>
    <TTGlyph name="gdotaccent" xMin="100" yMin="-469" xMax="1298" yMax="1444">
      <component glyphName="g" x="0" y="0" flags="0x204"/>
      <component glyphName="dotaccent" x="135" y="0" flags="0x4"/>
    </TTGlyph>
    <TTGlyph name="germandbls" xMin="126" yMin="0" xMax="1552" yMax="1542">
      <contour>
        <pt x="1552" y="362" on="1"/>
        <pt x="1552" y="262" on="0"/>
        <pt x="1480" y="124" on="0"/>
        <pt x="1371" y="38" on="0"/>
        <pt x="1244" y="0" on="0"/>
        <pt x="1189" y="0" on="1"/>
        <pt x="489" y="0" on="1"/>
        <pt x="489" y="260" on="1"/>
        <pt x="1189" y="260" on="1"/>
        <pt x="1240" y="260" on="0"/>
        <pt x="1294" y="313" on="0"/>
        <pt x="1294" y="362" on="1"/>
        <pt x="1291" y="467" on="0"/>
        <pt x="1189" y="467" on="1"/>
        <pt x="788" y="467" on="1"/>
        <pt x="702" y="467" on="0"/>
        <pt x="583" y="526" on="0"/>
        <pt x="509" y="616" on="0"/>
        <pt x="476" y="721" on="0"/>
        <pt x="476" y="766" on="1"/>
        <pt x="476" y="851" on="0"/>
        <pt x="538" y="970" on="0"/>
        <pt x="632" y="1044" on="0"/>
        <pt x="741" y="1077" on="0"/>
        <pt x="788" y="1077" on="1"/>
        <pt x="839" y="1077" on="1"/>
        <pt x="943" y="1077" on="0"/>
        <pt x="943" y="1180" on="1"/>
        <pt x="940" y="1284" on="0"/>
        <pt x="839" y="1284" on="1"/>
        <pt x="491" y="1284" on="1"/>
        <pt x="438" y="1284" on="0"/>
        <pt x="386" y="1231" on="0"/>
        <pt x="386" y="1180" on="1"/>
        <pt x="386" y="0" on="1"/>
        <pt x="126" y="0" on="1"/>
        <pt x="126" y="1180" on="1"/>
        <pt x="126" y="1280" on="0"/>
        <pt x="198" y="1418" on="0"/>
        <pt x="307" y="1504" on="0"/>
        <pt x="434" y="1542" on="0"/>
        <pt x="489" y="1542" on="1"/>
        <pt x="839" y="1542" on="1"/>
        <pt x="905" y="1542" on="0"/>
        <pt x="1011" y="1509" on="0"/>
        <pt x="1092" y="1452" on="0"/>
        <pt x="1150" y="1379" on="0"/>
        <pt x="1187" y="1298" on="0"/>
        <pt x="1204" y="1216" on="0"/>
        <pt x="1204" y="1180" on="1"/>
        <pt x="1204" y="1080" on="0"/>
        <pt x="1131" y="941" on="0"/>
        <pt x="1022" y="855" on="0"/>
        <pt x="894" y="817" on="0"/>
        <pt x="839" y="817" on="1"/>
        <pt x="790" y="817" on="1"/>
        <pt x="770" y="817" on="0"/>
        <pt x="748" y="807" on="0"/>
        <pt x="738" y="793" on="0"/>
        <pt x="736" y="775" on="0"/>
        <pt x="737" y="768" on="1"/>
        <pt x="737" y="753" on="0"/>
        <pt x="746" y="736" on="0"/>
        <pt x="760" y="728" on="0"/>
        <pt x="779" y="727" on="0"/>
        <pt x="788" y="727" on="1"/>
        <pt x="1189" y="727" on="1"/>
        <pt x="1255" y="727" on="0"/>
        <pt x="1361" y="693" on="0"/>
        <pt x="1442" y="637" on="0"/>
        <pt x="1499" y="563" on="0"/>
        <pt x="1535" y="482" on="0"/>
        <pt x="1552" y="399" on="0"/>
      </contour>
    </TTGlyph>
    <TTGlyph name="grave" xMin="196" yMin="1159" xMax="788" yMax="1589">
      <contour>
        <pt x="306" y="1589" on="1"/>
        <pt x="788" y="1309" on="1"/>
        <pt x="718" y="1159" on="1"/>
        <pt x="196" y="1346" on="1"/>
      </contour>
    </TTGlyph>
    <TTGlyph name="greater" xMin="102" yMin="197" xMax="1005" yMax="1253">
      <contour>
        <pt x="472" y="1253" on="1"/>
        <pt x="962" y="815" on="1"/>
        <pt x="982" y="797" on="0"/>
        <pt x="1005" y="747" on="0"/>
        <pt x="1005" y="719" on="1"/>
        <pt x="1005" y="690" on="0"/>
        <pt x="981" y="639" on="0"/>
        <pt x="960" y="621" on="1"/>
        <pt x="476" y="197" on="1"/>
        <pt x="102" y="197" on="1"/>
        <pt x="698" y="719" on="1"/>
        <pt x="102" y="1253" on="1"/>
      </contour>
    </TTGlyph>
    <TTGlyph name="guillemotleft" xMin="65" yMin="131" xMax="1337" yMax="952">
      <contour>
        <pt x="804" y="952" on="1"/>
        <pt x="339" y="535" on="1"/>
        <pt x="802" y="131" on="1"/>
        <pt x="466" y="131" on="1"/>
        <pt x="106" y="446" on="1"/>
        <pt x="65" y="481" on="0"/>
        <pt x="65" y="535" on="1"/>
        <pt x="65" y="559" on="0"/>
        <pt x="85" y="606" on="0"/>
        <pt x="104" y="623" on="1"/>
        <pt x="472" y="952" on="1"/>
      </contour>
      <contour>
        <pt x="1337" y="952" on="1"/>
        <pt x="872" y="535" on="1"/>
        <pt x="1335" y="131" on="1"/>
        <pt x="999" y="131" on="1"/>
        <pt x="638" y="446" on="1"/>
        <pt x="597" y="482" on="0"/>
        <pt x="597" y="535" on="1"/>
        <pt x="597" y="559" on="0"/>
        <pt x="618" y="606" on="0"/>
        <pt x="636" y="623" on="1"/>
        <pt x="1005" y="952" on="1"/>
      </contour>
    </TTGlyph>
    <TTGlyph name="guillemotright" xMin="89" yMin="131" xMax="1361" yMax="952">
      <contour>
        <pt x="954" y="952" on="1"/>
        <pt x="1322" y="623" on="1"/>
        <pt x="1341" y="606" on="0"/>
        <pt x="1361" y="559" on="0"/>
        <pt x="1361" y="535" on="1"/>
        <pt x="1361" y="481" on="0"/>
        <pt x="1320" y="446" on="1"/>
        <pt x="960" y="131" on="1"/>
        <pt x="624" y="131" on="1"/>
        <pt x="1087" y="535" on="1"/>
        <pt x="622" y="952" on="1"/>
      </contour>
      <contour>
        <pt x="421" y="952" on="1"/>
        <pt x="790" y="623" on="1"/>
        <pt x="808" y="606" on="0"/>
        <pt x="829" y="559" on="0"/>
        <pt x="829" y="535" on="1"/>
        <pt x="829" y="482" on="0"/>
        <pt x="788" y="446" on="1"/>
        <pt x="427" y="131" on="1"/>
        <pt x="91" y="131" on="1"/>
        <pt x="554" y="535" on="1"/>
        <pt x="89" y="952" on="1"/>
      </contour>
    </TTGlyph>
    <TTGlyph name="guilsinglleft" xMin="65" yMin="131" xMax="804" yMax="952">
      <contour>
        <pt x="804" y="952" on="1"/>
        <pt x="339" y="535" on="1"/>
        <pt x="802" y="131" on="1"/>
        <pt x="466" y="131" on="1"/>
        <pt x="106" y="446" on="1"/>
        <pt x="65" y="481" on="0"/>
        <pt x="65" y="535" on="1"/>
        <pt x="65" y="559" on="0"/>
        <pt x="85" y="606" on="0"/>
        <pt x="104" y="623" on="1"/>
        <pt x="472" y="952" on="1"/>
      </contour>
    </TTGlyph>
    <TTGlyph name="guilsinglright" xMin="89" yMin="131" xMax="829" yMax="952">
      <contour>
        <pt x="421" y="952" on="1"/>
        <pt x="790" y="623" on="1"/>
        <pt x="808" y="606" on="0"/>
        <pt x="829" y="559" on="0"/>
        <pt x="829" y="535" on="1"/>
        <pt x="829" y="482" on="0"/>
        <pt x="788" y="446" on="1"/>
        <pt x="427" y="131" on="1"/>
        <pt x="91" y="131" on="1"/>
        <pt x="554" y="535" on="1"/>
        <pt x="89" y="952" on="1"/>
      </contour>
    </TTGlyph>
    <TTGlyph name="h" xMin="126" yMin="0" xMax="1324" yMax="1538">
      <contour>
        <pt x="1324" y="0" on="1"/>
        <pt x="1064" y="0" on="1"/>
        <pt x="1064" y="717" on="1"/>
        <pt x="1064" y="768" on="0"/>
        <pt x="1012" y="821" on="0"/>
        <pt x="960" y="821" on="1"/>
        <pt x="491" y="821" on="1"/>
        <pt x="491" y="1081" on="1"/>
        <pt x="960" y="1081" on="1"/>
        <pt x="997" y="1081" on="0"/>
        <pt x="1079" y="1064" on="0"/>
        <pt x="1160" y="1028" on="0"/>
        <pt x="1234" y="971" on="0"/>
        <pt x="1290" y="890" on="0"/>
        <pt x="1324" y="784" on="0"/>
        <pt x="1324" y="717" on="1"/>
      </contour>
      <contour>
        <pt x="386" y="0" on="1"/>
        <pt x="126" y="0" on="1"/>
        <pt x="126" y="1538" on="1"/>
        <pt x="386" y="1538" on="1"/>
      </contour>
    </TTGlyph>
    <TTGlyph name="hbar" xMin="-25" yMin="0" xMax="1324" yMax="1538">
      <contour>
        <pt x="386" y="1438" on="1"/>
        <pt x="534" y="1438" on="1"/>
        <pt x="534" y="1204" on="1"/>
        <pt x="386" y="1204" on="1"/>
        <pt x="386" y="0" on="1"/>
        <pt x="126" y="0" on="1"/>
        <pt x="126" y="1204" on="1"/>
        <pt x="-25" y="1204" on="1"/>
        <pt x="-25" y="1438" on="1"/>
        <pt x="126" y="1438" on="1"/>
        <pt x="126" y="1538" on="1"/>
        <pt x="386" y="1538" on="1"/>
      </contour>
      <contour>
        <pt x="1324" y="0" on="1"/>
        <pt x="1064" y="0" on="1"/>
        <pt x="1064" y="717" on="1"/>
        <pt x="1064" y="768" on="0"/>
        <pt x="1012" y="821" on="0"/>
        <pt x="960" y="821" on="1"/>
        <pt x="491" y="821" on="1"/>
        <pt x="491" y="1081" on="1"/>
        <pt x="960" y="1081" on="1"/>
        <pt x="997" y="1081" on="0"/>
        <pt x="1079" y="1064" on="0"/>
        <pt x="1160" y="1028" on="0"/>
        <pt x="1234" y="971" on="0"/>
        <pt x="1290" y="890" on="0"/>
        <pt x="1324" y="784" on="0"/>
        <pt x="1324" y="717" on="1"/>
      </contour>
    </TTGlyph>
    <TTGlyph name="hcircumflex" xMin="126" yMin="0" xMax="1353" yMax="1593">
      <component glyphName="h" x="0" y="0" flags="0x204"/>
      <component glyphName="circumflex" x="313" y="0" flags="0x4"/>
    </TTGlyph>
    <TTGlyph name="hungarumlaut" xMin="225" yMin="1159" xMax="1089" yMax="1538">
      <contour>
        <pt x="659" y="1346" on="1"/>
        <pt x="280" y="1159" on="1"/>
        <pt x="225" y="1251" on="1"/>
        <pt x="546" y="1538" on="1"/>
      </contour>
      <contour>
        <pt x="1089" y="1346" on="1"/>
        <pt x="710" y="1159" on="1"/>
        <pt x="659" y="1251" on="1"/>
        <pt x="976" y="1538" on="1"/>
      </contour>
    </TTGlyph>
    <TTGlyph name="hyphen" xMin="116" yMin="600" xMax="1054" yMax="834">
      <contour>
        <pt x="1054" y="600" on="1"/>
        <pt x="116" y="600" on="1"/>
        <pt x="116" y="834" on="1"/>
        <pt x="1054" y="834" on="1"/>
      </contour>
    </TTGlyph>
    <TTGlyph name="i" xMin="126" yMin="0" xMax="386" yMax="1538">
      <contour>
        <pt x="386" y="1303" on="1"/>
        <pt x="126" y="1303" on="1"/>
        <pt x="126" y="1538" on="1"/>
        <pt x="386" y="1538" on="1"/>
      </contour>
      <contour>
        <pt x="386" y="0" on="1"/>
        <pt x="126" y="0" on="1"/>
        <pt x="126" y="1081" on="1"/>
        <pt x="386" y="1081" on="1"/>
      </contour>
    </TTGlyph>
    <TTGlyph name="iacute" xMin="126" yMin="0" xMax="788" yMax="1650">
      <component glyphName="dotlessi" x="0" y="0" flags="0x204"/>
      <component glyphName="acute" x="-157" y="61" flags="0x4"/>
    </TTGlyph>
    <TTGlyph name="ibreve" xMin="-149" yMin="0" xMax="666" yMax="1552">
      <component glyphName="dotlessi" x="0" y="0" flags="0x204"/>
      <component glyphName="breve" x="-312" y="0" flags="0x4"/>
    </TTGlyph>
    <TTGlyph name="icircumflex" xMin="-210" yMin="0" xMax="728" yMax="1593">
      <component glyphName="dotlessi" x="0" y="0" flags="0x204"/>
      <component glyphName="circumflex" x="-312" y="0" flags="0x4"/>
    </TTGlyph>
    <TTGlyph name="idieresis" xMin="-102" yMin="0" xMax="619" yMax="1505">
      <component glyphName="dotlessi" x="0" y="0" flags="0x204"/>
      <component glyphName="dieresis" x="-312" y="61" flags="0x4"/>
    </TTGlyph>
    <TTGlyph name="igrave" xMin="-264" yMin="0" xMax="386" yMax="1650">
      <component glyphName="dotlessi" x="0" y="0" flags="0x204"/>
      <component glyphName="grave" x="-460" y="61" flags="0x4"/>
    </TTGlyph>
    <TTGlyph name="ij" xMin="6" yMin="-469" xMax="839" yMax="1538">
      <component glyphName="i" x="0" y="0" flags="0x4"/>
      <component glyphName="j" x="453" y="0" flags="0x4"/>
    </TTGlyph>
    <TTGlyph name="imacron" xMin="-77" yMin="0" xMax="595" yMax="1436">
      <component glyphName="dotlessi" x="0" y="0" flags="0x204"/>
      <component glyphName="macron" x="-312" y="0" flags="0x4"/>
    </TTGlyph>
    <TTGlyph name="iogonek" xMin="20" yMin="-434" xMax="560" yMax="1538">
      <contour>
        <pt x="386" y="0" on="1"/>
        <pt x="341" y="0" on="1"/>
        <pt x="290" y="-42" on="0"/>
        <pt x="233" y="-141" on="0"/>
        <pt x="233" y="-186" on="1"/>
        <pt x="233" y="-224" on="0"/>
        <pt x="284" y="-254" on="0"/>
        <pt x="341" y="-254" on="1"/>
        <pt x="366" y="-254" on="0"/>
        <pt x="428" y="-244" on="0"/>
        <pt x="488" y="-228" on="0"/>
        <pt x="542" y="-211" on="0"/>
        <pt x="560" y="-203" on="1"/>
        <pt x="560" y="-389" on="1"/>
        <pt x="542" y="-394" on="0"/>
        <pt x="491" y="-410" on="0"/>
        <pt x="423" y="-424" on="0"/>
        <pt x="335" y="-434" on="0"/>
        <pt x="280" y="-434" on="1"/>
        <pt x="226" y="-434" on="0"/>
        <pt x="131" y="-414" on="0"/>
        <pt x="61" y="-370" on="0"/>
        <pt x="20" y="-298" on="0"/>
        <pt x="20" y="-246" on="1"/>
        <pt x="20" y="-219" on="0"/>
        <pt x="33" y="-154" on="0"/>
        <pt x="63" y="-88" on="0"/>
        <pt x="110" y="-25" on="0"/>
        <pt x="145" y="0" on="1"/>
        <pt x="126" y="0" on="1"/>
        <pt x="126" y="1081" on="1"/>
        <pt x="386" y="1081" on="1"/>
      </contour>
      <contour>
        <pt x="386" y="1303" on="1"/>
        <pt x="126" y="1303" on="1"/>
        <pt x="126" y="1538" on="1"/>
        <pt x="386" y="1538" on="1"/>
      </contour>
    </TTGlyph>
    <TTGlyph name="itilde" xMin="-135" yMin="0" xMax="652" yMax="1511">
      <component glyphName="dotlessi" x="0" y="0" flags="0x204"/>
      <component glyphName="tilde" x="-312" y="0" flags="0x4"/>
    </TTGlyph>
    <TTGlyph name="j" xMin="-447" yMin="-469" xMax="386" yMax="1538">
      <contour>
        <pt x="386" y="1303" on="1"/>
        <pt x="126" y="1303" on="1"/>
        <pt x="126" y="1538" on="1"/>
        <pt x="386" y="1538" on="1"/>
      </contour>
      <contour>
        <pt x="386" y="-104" on="1"/>
        <pt x="386" y="-171" on="0"/>
        <pt x="352" y="-278" on="0"/>
        <pt x="296" y="-359" on="0"/>
        <pt x="222" y="-416" on="0"/>
        <pt x="141" y="-452" on="0"/>
        <pt x="59" y="-469" on="0"/>
        <pt x="22" y="-469" on="1"/>
        <pt x="-447" y="-469" on="1"/>
        <pt x="-447" y="-209" on="1"/>
        <pt x="22" y="-209" on="1"/>
        <pt x="74" y="-209" on="0"/>
        <pt x="126" y="-155" on="0"/>
        <pt x="126" y="-104" on="1"/>
        <pt x="126" y="1081" on="1"/>
        <pt x="386" y="1081" on="1"/>
      </contour>
    </TTGlyph>
    <TTGlyph name="jcircumflex" xMin="-447" yMin="-469" xMax="728" yMax="1593">
      <component glyphName="dotlessj" x="0" y="0" flags="0x204"/>
      <component glyphName="circumflex" x="-312" y="0" flags="0x4"/>
    </TTGlyph>
    <TTGlyph name="k" xMin="126" yMin="0" xMax="1392" yMax="1538">
      <contour>
        <pt x="1392" y="0" on="1"/>
        <pt x="1017" y="0" on="1"/>
        <pt x="493" y="506" on="1"/>
        <pt x="449" y="546" on="0"/>
        <pt x="452" y="606" on="1"/>
        <pt x="454" y="634" on="0"/>
        <pt x="479" y="683" on="0"/>
        <pt x="501" y="700" on="1"/>
        <pt x="976" y="1083" on="1"/>
        <pt x="1392" y="1083" on="1"/>
        <pt x="780" y="590" on="1"/>
      </contour>
      <contour>
        <pt x="386" y="0" on="1"/>
        <pt x="126" y="0" on="1"/>
        <pt x="126" y="1538" on="1"/>
        <pt x="386" y="1538" on="1"/>
      </contour>
    </TTGlyph>
    <TTGlyph name="kcommaaccent" xMin="126" yMin="-582" xMax="1392" yMax="1538">
      <component glyphName="k" x="0" y="0" flags="0x204"/>
      <component glyphName="uni0326" x="449" y="0" flags="0x4"/>
    </TTGlyph>
    <TTGlyph name="kgreenlandic" xMin="126" yMin="0" xMax="1392" yMax="1538">
      <contour>
        <pt x="1392" y="0" on="1"/>
        <pt x="1017" y="0" on="1"/>
        <pt x="493" y="506" on="1"/>
        <pt x="449" y="546" on="0"/>
        <pt x="452" y="606" on="1"/>
        <pt x="454" y="634" on="0"/>
        <pt x="479" y="683" on="0"/>
        <pt x="501" y="700" on="1"/>
        <pt x="976" y="1083" on="1"/>
        <pt x="1392" y="1083" on="1"/>
        <pt x="780" y="590" on="1"/>
      </contour>
      <contour>
        <pt x="386" y="0" on="1"/>
        <pt x="126" y="0" on="1"/>
        <pt x="126" y="1538" on="1"/>
        <pt x="386" y="1538" on="1"/>
      </contour>
    </TTGlyph>
    <TTGlyph name="l" xMin="116" yMin="0" xMax="597" yMax="1538">
      <contour>
        <pt x="597" y="0" on="1"/>
        <pt x="481" y="0" on="1"/>
        <pt x="425" y="0" on="0"/>
        <pt x="298" y="38" on="0"/>
        <pt x="188" y="125" on="0"/>
        <pt x="116" y="264" on="0"/>
        <pt x="116" y="365" on="1"/>
        <pt x="116" y="1538" on="1"/>
        <pt x="376" y="1538" on="1"/>
        <pt x="376" y="365" on="1"/>
        <pt x="376" y="317" on="0"/>
        <pt x="436" y="260" on="0"/>
        <pt x="481" y="260" on="1"/>
        <pt x="597" y="260" on="1"/>
      </contour>
    </TTGlyph>
    <TTGlyph name="lacute" xMin="116" yMin="0" xMax="784" yMax="2027">
      <component glyphName="l" x="0" y="0" flags="0x204"/>
      <component glyphName="acute" x="-161" y="438" flags="0x4"/>
    </TTGlyph>
    <TTGlyph name="lcaron" xMin="116" yMin="0" xMax="921" yMax="1538">
      <component glyphName="l" x="0" y="0" flags="0x4"/>
      <component glyphName="uni0315" x="582" y="0" flags="0x4"/>
    </TTGlyph>
    <TTGlyph name="lcommaaccent" xMin="116" yMin="-582" xMax="597" yMax="1538">
      <component glyphName="l" x="0" y="0" flags="0x204"/>
      <component glyphName="uni0326" x="143" y="0" flags="0x4"/>
    </TTGlyph>
    <TTGlyph name="ldotaccent" xMin="116" yMin="0" xMax="718" yMax="1538">
      <component glyphName="l" x="0" y="0" flags="0x4"/>
      <component glyphName="periodcentered" x="371" y="0" flags="0x4"/>
    </TTGlyph>
    <TTGlyph name="less" xMin="71" yMin="197" xMax="974" yMax="1253">
      <contour>
        <pt x="974" y="1253" on="1"/>
        <pt x="378" y="719" on="1"/>
        <pt x="974" y="197" on="1"/>
        <pt x="599" y="197" on="1"/>
        <pt x="116" y="621" on="1"/>
        <pt x="71" y="658" on="0"/>
        <pt x="71" y="719" on="1"/>
        <pt x="71" y="747" on="0"/>
        <pt x="94" y="797" on="0"/>
        <pt x="114" y="815" on="1"/>
        <pt x="603" y="1253" on="1"/>
      </contour>
    </TTGlyph>
    <TTGlyph name="logicalnot" xMin="106" yMin="248" xMax="1044" yMax="834">
      <contour>
        <pt x="1044" y="248" on="1"/>
        <pt x="810" y="248" on="1"/>
        <pt x="810" y="600" on="1"/>
        <pt x="106" y="600" on="1"/>
        <pt x="106" y="834" on="1"/>
        <pt x="1044" y="834" on="1"/>
      </contour>
    </TTGlyph>
    <TTGlyph name="lslash" xMin="57" yMin="0" xMax="876" yMax="1538">
      <contour>
        <pt x="876" y="805" on="1"/>
        <pt x="581" y="657" on="1"/>
        <pt x="581" y="365" on="1"/>
        <pt x="581" y="317" on="0"/>
        <pt x="640" y="260" on="0"/>
        <pt x="685" y="260" on="1"/>
        <pt x="802" y="260" on="1"/>
        <pt x="802" y="0" on="1"/>
        <pt x="685" y="0" on="1"/>
        <pt x="648" y="0" on="0"/>
        <pt x="566" y="17" on="0"/>
        <pt x="485" y="53" on="0"/>
        <pt x="411" y="110" on="0"/>
        <pt x="355" y="191" on="0"/>
        <pt x="321" y="298" on="0"/>
        <pt x="321" y="365" on="1"/>
        <pt x="321" y="526" on="1"/>
        <pt x="57" y="395" on="1"/>
        <pt x="57" y="670" on="1"/>
        <pt x="321" y="801" on="1"/>
        <pt x="321" y="1538" on="1"/>
        <pt x="581" y="1538" on="1"/>
        <pt x="581" y="932" on="1"/>
        <pt x="876" y="1079" on="1"/>
      </contour>
    </TTGlyph>
    <TTGlyph name="m" xMin="122" yMin="0" xMax="1672" yMax="1081">
      <contour>
        <pt x="1087" y="0" on="1"/>
        <pt x="827" y="0" on="1"/>
        <pt x="827" y="717" on="1"/>
        <pt x="827" y="768" on="0"/>
        <pt x="773" y="821" on="0"/>
        <pt x="720" y="821" on="1"/>
        <pt x="382" y="821" on="1"/>
        <pt x="382" y="0" on="1"/>
        <pt x="122" y="0" on="1"/>
        <pt x="122" y="952" on="1"/>
        <pt x="122" y="979" on="0"/>
        <pt x="142" y="1026" on="0"/>
        <pt x="178" y="1061" on="0"/>
        <pt x="226" y="1081" on="0"/>
        <pt x="253" y="1081" on="1"/>
        <pt x="722" y="1081" on="1"/>
        <pt x="776" y="1081" on="0"/>
        <pt x="900" y="1043" on="0"/>
        <pt x="956" y="1001" on="1"/>
        <pt x="956" y="1081" on="1"/>
        <pt x="1308" y="1081" on="1"/>
        <pt x="1345" y="1081" on="0"/>
        <pt x="1427" y="1064" on="0"/>
        <pt x="1508" y="1028" on="0"/>
        <pt x="1582" y="971" on="0"/>
        <pt x="1638" y="890" on="0"/>
        <pt x="1672" y="784" on="0"/>
        <pt x="1672" y="717" on="1"/>
        <pt x="1672" y="0" on="1"/>
        <pt x="1412" y="0" on="1"/>
        <pt x="1412" y="717" on="1"/>
        <pt x="1412" y="768" on="0"/>
        <pt x="1361" y="821" on="0"/>
        <pt x="1308" y="821" on="1"/>
        <pt x="1074" y="821" on="1"/>
        <pt x="1087" y="773" on="0"/>
        <pt x="1087" y="717" on="1"/>
      </contour>
    </TTGlyph>
    <TTGlyph name="macron" xMin="235" yMin="1200" xMax="907" yMax="1436">
      <contour>
        <pt x="235" y="1200" on="1"/>
        <pt x="235" y="1436" on="1"/>
        <pt x="907" y="1436" on="1"/>
        <pt x="907" y="1200" on="1"/>
      </contour>
    </TTGlyph>
    <TTGlyph name="minus" xMin="134" yMin="600" xMax="1072" yMax="834">
      <contour>
        <pt x="1072" y="600" on="1"/>
        <pt x="134" y="600" on="1"/>
        <pt x="134" y="834" on="1"/>
        <pt x="1072" y="834" on="1"/>
      </contour>
    </TTGlyph>
    <TTGlyph name="mu" xMin="145" yMin="-469" xMax="1343" yMax="1081">
      <contour>
        <pt x="1343" y="131" on="1"/>
        <pt x="1343" y="103" on="0"/>
        <pt x="1323" y="55" on="0"/>
        <pt x="1288" y="20" on="0"/>
        <pt x="1241" y="0" on="0"/>
        <pt x="1214" y="0" on="1"/>
        <pt x="626" y="0" on="1"/>
        <pt x="575" y="0" on="0"/>
        <pt x="461" y="23" on="0"/>
        <pt x="405" y="51" on="1"/>
        <pt x="405" y="-469" on="1"/>
        <pt x="145" y="-469" on="1"/>
        <pt x="145" y="1081" on="1"/>
        <pt x="405" y="1081" on="1"/>
        <pt x="405" y="481" on="1"/>
        <pt x="405" y="414" on="0"/>
        <pt x="447" y="332" on="0"/>
        <pt x="511" y="286" on="0"/>
        <pt x="590" y="265" on="0"/>
        <pt x="628" y="260" on="1"/>
        <pt x="1083" y="260" on="1"/>
        <pt x="1083" y="1081" on="1"/>
        <pt x="1343" y="1081" on="1"/>
      </contour>
    </TTGlyph>
    <TTGlyph name="multiply" xMin="93" yMin="365" xMax="1093" yMax="1069">
      <contour>
        <pt x="1093" y="1069" on="1"/>
        <pt x="741" y="717" on="1"/>
        <pt x="1093" y="365" on="1"/>
        <pt x="798" y="365" on="1"/>
        <pt x="593" y="569" on="1"/>
        <pt x="388" y="365" on="1"/>
        <pt x="93" y="365" on="1"/>
        <pt x="446" y="717" on="1"/>
        <pt x="93" y="1069" on="1"/>
        <pt x="388" y="1069" on="1"/>
        <pt x="593" y="864" on="1"/>
        <pt x="798" y="1069" on="1"/>
      </contour>
    </TTGlyph>
    <TTGlyph name="n" xMin="122" yMin="0" xMax="1320" yMax="1081">
      <contour>
        <pt x="1320" y="0" on="1"/>
        <pt x="1060" y="0" on="1"/>
        <pt x="1060" y="600" on="1"/>
        <pt x="1060" y="651" on="0"/>
        <pt x="1025" y="732" on="0"/>
        <pt x="965" y="790" on="0"/>
        <pt x="884" y="821" on="0"/>
        <pt x="837" y="821" on="1"/>
        <pt x="382" y="821" on="1"/>
        <pt x="382" y="0" on="1"/>
        <pt x="122" y="0" on="1"/>
        <pt x="122" y="952" on="1"/>
        <pt x="122" y="979" on="0"/>
        <pt x="142" y="1026" on="0"/>
        <pt x="178" y="1061" on="0"/>
        <pt x="226" y="1081" on="0"/>
        <pt x="253" y="1081" on="1"/>
        <pt x="839" y="1081" on="1"/>
        <pt x="888" y="1081" on="0"/>
        <pt x="997" y="1059" on="0"/>
        <pt x="1104" y="1010" on="0"/>
        <pt x="1201" y="935" on="0"/>
        <pt x="1276" y="828" on="0"/>
        <pt x="1320" y="688" on="0"/>
        <pt x="1320" y="600" on="1"/>
      </contour>
    </TTGlyph>
    <TTGlyph name="nacute" xMin="122" yMin="0" xMax="1320" yMax="1589">
      <component glyphName="n" x="0" y="0" flags="0x204"/>
      <component glyphName="acute" x="279" y="0" flags="0x4"/>
    </TTGlyph>
    <TTGlyph name="napostrophe" xMin="69" yMin="0" xMax="1537" yMax="1364">
      <component glyphName="uni0315" x="0" y="0" flags="0x4"/>
      <component glyphName="n" x="217" y="0" flags="0x4"/>
    </TTGlyph>
    <TTGlyph name="ncaron" xMin="122" yMin="0" xMax="1320" yMax="1573">
      <component glyphName="n" x="0" y="0" flags="0x204"/>
      <component glyphName="caron" x="141" y="0" flags="0x4"/>
    </TTGlyph>
    <TTGlyph name="ncommaaccent" xMin="122" yMin="-582" xMax="1320" yMax="1081">
      <component glyphName="n" x="0" y="0" flags="0x204"/>
      <component glyphName="uni0326" x="535" y="0" flags="0x4"/>
    </TTGlyph>
    <TTGlyph name="nine" xMin="85" yMin="0" xMax="1402" yMax="1434">
      <contour>
        <pt x="85" y="952" on="1"/>
        <pt x="85" y="1069" on="1"/>
        <pt x="85" y="1105" on="0"/>
        <pt x="102" y="1188" on="0"/>
        <pt x="138" y="1269" on="0"/>
        <pt x="196" y="1343" on="0"/>
        <pt x="277" y="1400" on="0"/>
        <pt x="383" y="1434" on="0"/>
        <pt x="450" y="1434" on="1"/>
        <pt x="919" y="1434" on="1"/>
        <pt x="967" y="1434" on="0"/>
        <pt x="1077" y="1412" on="0"/>
        <pt x="1184" y="1363" on="0"/>
        <pt x="1282" y="1287" on="0"/>
        <pt x="1357" y="1180" on="0"/>
        <pt x="1402" y="1040" on="0"/>
        <pt x="1402" y="952" on="1"/>
        <pt x="1402" y="481" on="1"/>
        <pt x="1402" y="393" on="0"/>
        <pt x="1357" y="253" on="0"/>
        <pt x="1282" y="146" on="0"/>
        <pt x="1184" y="71" on="0"/>
        <pt x="1077" y="22" on="0"/>
        <pt x="967" y="0" on="0"/>
        <pt x="919" y="0" on="1"/>
        <pt x="270" y="0" on="1"/>
        <pt x="270" y="260" on="1"/>
        <pt x="919" y="260" on="1"/>
        <pt x="968" y="264" on="0"/>
        <pt x="1049" y="296" on="0"/>
        <pt x="1108" y="351" on="0"/>
        <pt x="1140" y="430" on="0"/>
        <pt x="1140" y="481" on="1"/>
        <pt x="1140" y="586" on="1"/>
        <pt x="450" y="586" on="1"/>
        <pt x="413" y="586" on="0"/>
        <pt x="331" y="603" on="0"/>
        <pt x="250" y="640" on="0"/>
        <pt x="176" y="697" on="0"/>
        <pt x="119" y="779" on="0"/>
        <pt x="85" y="885" on="0"/>
      </contour>
      <contour>
        <pt x="1140" y="952" on="1"/>
        <pt x="1140" y="1003" on="0"/>
        <pt x="1106" y="1085" on="0"/>
        <pt x="1047" y="1143" on="0"/>
        <pt x="966" y="1174" on="0"/>
        <pt x="919" y="1174" on="1"/>
        <pt x="450" y="1174" on="1"/>
        <pt x="402" y="1174" on="0"/>
        <pt x="345" y="1114" on="0"/>
        <pt x="345" y="1069" on="1"/>
        <pt x="345" y="952" on="1"/>
        <pt x="345" y="901" on="0"/>
        <pt x="399" y="848" on="0"/>
        <pt x="452" y="848" on="1"/>
        <pt x="1140" y="848" on="1"/>
      </contour>
    </TTGlyph>
    <TTGlyph name="ntilde" xMin="122" yMin="0" xMax="1320" yMax="1572">
      <component glyphName="n" x="0" y="0" flags="0x204"/>
      <component glyphName="tilde" x="150" y="61" flags="0x4"/>
    </TTGlyph>
    <TTGlyph name="numbersign" xMin="71" yMin="0" xMax="1421" yMax="1374">
      <contour>
        <pt x="239" y="1044" on="1"/>
        <pt x="454" y="1044" on="1"/>
        <pt x="528" y="1374" on="1"/>
        <pt x="771" y="1374" on="1"/>
        <pt x="698" y="1044" on="1"/>
        <pt x="948" y="1044" on="1"/>
        <pt x="1021" y="1374" on="1"/>
        <pt x="1265" y="1374" on="1"/>
        <pt x="1191" y="1044" on="1"/>
        <pt x="1421" y="1044" on="1"/>
        <pt x="1369" y="811" on="1"/>
        <pt x="1140" y="811" on="1"/>
        <pt x="1087" y="567" on="1"/>
        <pt x="1308" y="567" on="1"/>
        <pt x="1257" y="334" on="1"/>
        <pt x="1036" y="334" on="1"/>
        <pt x="962" y="0" on="1"/>
        <pt x="718" y="0" on="1"/>
        <pt x="792" y="334" on="1"/>
        <pt x="542" y="334" on="1"/>
        <pt x="468" y="0" on="1"/>
        <pt x="225" y="0" on="1"/>
        <pt x="298" y="334" on="1"/>
        <pt x="71" y="334" on="1"/>
        <pt x="126" y="567" on="1"/>
        <pt x="349" y="567" on="1"/>
        <pt x="403" y="811" on="1"/>
        <pt x="184" y="811" on="1"/>
      </contour>
      <contour>
        <pt x="593" y="567" on="1"/>
        <pt x="843" y="567" on="1"/>
        <pt x="896" y="811" on="1"/>
        <pt x="646" y="811" on="1"/>
      </contour>
    </TTGlyph>
    <TTGlyph name="o" xMin="100" yMin="0" xMax="1298" yMax="1081">
      <contour>
        <pt x="1298" y="365" on="1"/>
        <pt x="1298" y="298" on="0"/>
        <pt x="1264" y="191" on="0"/>
        <pt x="1208" y="110" on="0"/>
        <pt x="1134" y="53" on="0"/>
        <pt x="1053" y="17" on="0"/>
        <pt x="970" y="0" on="0"/>
        <pt x="933" y="0" on="1"/>
        <pt x="464" y="0" on="1"/>
        <pt x="410" y="0" on="0"/>
        <pt x="282" y="38" on="0"/>
        <pt x="173" y="125" on="0"/>
        <pt x="100" y="264" on="0"/>
        <pt x="100" y="365" on="1"/>
        <pt x="100" y="717" on="1"/>
        <pt x="100" y="817" on="0"/>
        <pt x="173" y="956" on="0"/>
        <pt x="282" y="1043" on="0"/>
        <pt x="410" y="1081" on="0"/>
        <pt x="464" y="1081" on="1"/>
        <pt x="933" y="1081" on="1"/>
        <pt x="1033" y="1081" on="0"/>
        <pt x="1173" y="1009" on="0"/>
        <pt x="1259" y="900" on="0"/>
        <pt x="1298" y="772" on="0"/>
        <pt x="1298" y="717" on="1"/>
      </contour>
      <contour>
        <pt x="1038" y="715" on="1"/>
        <pt x="1038" y="769" on="0"/>
        <pt x="984" y="821" on="0"/>
        <pt x="933" y="821" on="1"/>
        <pt x="466" y="821" on="1"/>
        <pt x="414" y="821" on="0"/>
        <pt x="360" y="768" on="0"/>
        <pt x="360" y="717" on="1"/>
        <pt x="360" y="365" on="1"/>
        <pt x="360" y="314" on="0"/>
        <pt x="414" y="260" on="0"/>
        <pt x="466" y="260" on="1"/>
        <pt x="933" y="260" on="1"/>
        <pt x="986" y="260" on="0"/>
        <pt x="1038" y="314" on="0"/>
        <pt x="1038" y="365" on="1"/>
      </contour>
    </TTGlyph>
    <TTGlyph name="oacute" xMin="100" yMin="0" xMax="1298" yMax="1650">
      <component glyphName="o" x="0" y="0" flags="0x204"/>
      <component glyphName="acute" x="285" y="61" flags="0x4"/>
    </TTGlyph>
    <TTGlyph name="obreve" xMin="100" yMin="0" xMax="1298" yMax="1552">
      <component glyphName="o" x="0" y="0" flags="0x204"/>
      <component glyphName="breve" x="127" y="0" flags="0x4"/>
    </TTGlyph>
    <TTGlyph name="ocircumflex" xMin="100" yMin="0" xMax="1298" yMax="1654">
      <component glyphName="o" x="0" y="0" flags="0x204"/>
      <component glyphName="circumflex" x="127" y="61" flags="0x4"/>
    </TTGlyph>
    <TTGlyph name="odieresis" xMin="100" yMin="0" xMax="1298" yMax="1505">
      <component glyphName="o" x="0" y="0" flags="0x204"/>
      <component glyphName="dieresis" x="127" y="61" flags="0x4"/>
    </TTGlyph>
</ttFont>
